FantasqueSansMono-Italic.sfdir
StartChar: exclam
Encoding: 33 33 68
Width: 517
VWidth: 0
Flags: HW
HStem: 0 132<178 275> 634 10G<289 388>
VStem: 153 235
LayerCount: 2
Fore
SplineSet
388 644 m 1
 295 211 l 1
 214 210 l 1
 291 644 l 1
 388 644 l 1
178 132 m 1
 300 132 l 1
 275 0 l 1
 153 0 l 1
 178 132 l 1
EndSplineSet
EndChar
StartChar: quotedbl
Encoding: 34 34 92
Width: 517
VWidth: -12
Flags: HW
HStem: 390 325
VStem: 163 326
LayerCount: 2
Fore
SplineSet
398 715 m 1
 488 696 l 1
 461 558 440 488 404 390 c 1
 344 407 l 1
 362 455 379 523 379 584 c 0
 379 594 378 604 378 614 c 1
 398 715 l 1
217 715 m 1
 307 696 l 1
 280 558 259 488 223 390 c 1
 163 407 l 1
 181 455 198 523 198 584 c 0
 198 594 197 604 197 614 c 1
 217 715 l 1
EndSplineSet
EndChar
StartChar: numbersign
Encoding: 35 35 93
Width: 517
VWidth: 2
Flags: HW
HStem: -9 10G<46 128 210 298> 188 77<39 101 206 269 368 439> 388 78<81 163 267 332 430 481> 641 10G<282 296 404 493>
VStem: 237 79<565 650>
LayerCount: 2
Fore
SplineSet
243 388 m 1
 232 349 218 304 206 264 c 1
 226 265 241 265 258 265 c 2
 294 265 l 1
 307 306 320 352 332 390 c 1
 297 390 276 388 243 388 c 1
128 -9 m 1
 46 -9 l 1
 60 46 76 101 101 183 c 1
 75 183 53 178 38 174 c 1
 28 246 l 1
 57 256 92 259 125 261 c 1
 141 300 151 347 163 386 c 1
 156 386 l 1
 124 384 100 381 81 375 c 1
 69 447 l 1
 103 459 147 461 189 463 c 1
 217 553 220 582 237 650 c 1
 251 650 273 650 292 650 c 0
 301 650 309 650 316 650 c 1
 301 591 288 536 267 466 c 1
 355 466 l 1
 380 546 393 589 414 647 c 1
 493 646 l 1
 469 587 454 544 430 467 c 1
 496 467 l 1
 481 388 l 1
 467 388 451 390 406 390 c 1
 395 351 381 308 368 266 c 1
 455 266 l 1
 439 187 l 1
 426 187 403 188 347 188 c 1
 318 92 306 48 290 -11 c 1
 210 -10 l 1
 226 45 243 102 269 188 c 1
 257 188 l 2
 231 188 206 187 181 186 c 1
 160 113 128 -9 128 -9 c 1
EndSplineSet
EndChar
StartChar: dollar
Encoding: 36 36 94
Width: 517
VWidth: 0
Flags: HW
HStem: 32 74<133 159 257 345> 547 75<199 298 396 416>
VStem: 30 79<130 214> 89 80<425 517> 388 81<150 268>
LayerCount: 2
Fore
SplineSet
151 346 m 1xe8
 117 364 89 398 89 451 c 0xd8
 89 461 90 472 92 483 c 0
 111 580 211 623 314 623 c 0
 315 623 317 623 318 623 c 1
 345 737 l 1
 429 730 l 1
 396 617 l 1
 457 607 515 568 530 511 c 1
 455 473 l 1
 448 516 409 534 375 541 c 1
 332 378 l 1
 353 373 375 367 394 357 c 1
 435 336 469 298 469 236 c 0
 469 224 467 211 465 198 c 0
 441 72 336 29 237 26 c 1
 209 -86 l 1
 124 -79 l 1
 159 32 l 1
 73 49 30 94 30 169 c 0
 30 183 31 198 34 214 c 1
 111 214 l 1
 109 203 108 195 108 186 c 0
 108 140 136 117 179 106 c 1
 236 318 l 1
 207 325 177 333 151 346 c 1xe8
298 547 m 1
 234 547 179 532 170 485 c 0
 169 479 168 473 168 468 c 0
 168 439 186 425 207 414 c 0
 222 406 239 400 257 396 c 1
 298 547 l 1
257 101 m 1
 328 105 374 131 386 194 c 0
 387 202 388 210 388 217 c 0
 388 254 367 274 337 288 c 0
 329 292 320 295 311 298 c 1
 257 101 l 1
EndSplineSet
EndChar
StartChar: percent
Encoding: 37 37 156
Width: 517
VWidth: 0
Flags: HW
HStem: -2 73<298 383> 177 73<309 394> 377 73<156 240> 556 73<167 251> 637 10G<445 532>
VStem: 75 75<456 539> 217 75<77 160> 257 75<467 551> 399 75<88 171>
LayerCount: 2
Fore
SplineSet
149 494 m 0xfd80
 149 470 167 451 193 451 c 0
 224 451 257 478 257 514 c 0
 257 538 239 556 213 556 c 0
 182 556 149 530 149 494 c 0xfd80
228 629 m 0
 289 629 332 580 332 522 c 0
 332 437 253 377 179 377 c 0
 118 377 75 428 75 486 c 0
 75 570 155 629 228 629 c 0
292 114 m 0xfe80
 292 90 309 71 335 71 c 0
 366 71 399 98 399 134 c 0
 399 158 382 177 356 177 c 0
 325 177 292 150 292 114 c 0xfe80
371 250 m 0
 432 250 474 202 474 144 c 0
 474 59 395 -2 321 -2 c 0
 260 -2 217 46 217 104 c 0
 217 188 298 250 371 250 c 0
-11 31 m 1
 124 209 367 477 523 646 c 1
 577 589 l 1
 422 423 188 170 50 -21 c 1
 -11 31 l 1
EndSplineSet
EndChar
StartChar: ampersand
Encoding: 38 38 168
Width: 517
VWidth: 0
Flags: HW
HStem: -11 76<126 260> 583 75<237 331>
VStem: 17 80<95 233> 124 79<432 548> 337 79<488 576> 396 73<230 316>
LayerCount: 2
Fore
SplineSet
307 120 m 1xf0
 268 189 233 254 196 316 c 1
 152 282 111 240 100 184 c 0
 98 174 97 165 97 156 c 0
 97 99 134 65 183 65 c 0
 232 65 276 91 307 120 c 1xf0
335 522 m 0
 336 528 337 534 337 539 c 0xf8
 337 570 315 583 284 583 c 0
 251 583 211 548 204 510 c 0
 203 505 203 499 203 494 c 0
 203 466 217 441 232 419 c 1
 273 444 295 464 309 479 c 0
 325 496 333 508 335 522 c 0
450 31 m 1
 382 -16 l 1
 377 -6 360 23 341 57 c 1
 287 9 229 -11 166 -11 c 0
 78 -11 17 44 17 135 c 0
 17 149 18 164 21 179 c 0
 38 266 96 332 160 376 c 1
 145 399 124 435 124 479 c 0
 124 488 124 497 126 506 c 0
 142 589 220 658 299 658 c 0
 362 658 416 623 416 557 c 0xf8
 416 549 415 539 413 530 c 0
 398 451 330 404 265 362 c 1
 297 307 328 252 360 194 c 1
 378 228 386 263 396 316 c 1
 469 316 l 1xf4
 453 234 429 165 396 125 c 1
 411 100 442 46 450 31 c 1
EndSplineSet
EndChar
StartChar: quotesingle
Encoding: 39 39 70
Width: 517
VWidth: -12
Flags: HW
HStem: 385 330
VStem: 231 73<401 447>
LayerCount: 2
Fore
SplineSet
285 715 m 1
 388 700 l 1
 361 562 340 483 304 385 c 1
 231 402 l 1
 248 449 267 523 267 584 c 0
 267 594 266 604 266 614 c 1
 285 715 l 1
EndSplineSet
EndChar
StartChar: parenleft
Encoding: 40 40 98
Width: 517
VWidth: 32
Flags: HW
HStem: -128 81<304 374> 647 77<424 525>
VStem: 129 81<64 361>
LayerCount: 2
Fore
SplineSet
525 647 m 1
 524 647 522 647 521 647 c 0
 337 647 210 439 210 197 c 0
 210 43 273 -47 390 -47 c 1
 374 -128 l 1
 229 -127 129 0 129 169 c 0
 129 517 304 718 540 725 c 1
 525 647 l 1
EndSplineSet
EndChar
StartChar: parenright
Encoding: 41 41 99
Width: 517
VWidth: 32
Flags: HW
HStem: -128 81<26 107> 647 77<175 254>
VStem: 342 81<270 551>
LayerCount: 2
Fore
SplineSet
161 647 m 1
 175 725 l 1
 342 720 423 597 423 443 c 0
 423 94 218 -126 10 -128 c 1
 26 -47 l 1
 202 -47 342 198 342 422 c 0
 342 563 292 647 165 647 c 0
 164 647 162 647 161 647 c 1
EndSplineSet
EndChar
StartChar: asterisk
Encoding: 42 42 191
Width: 517
VWidth: 0
Flags: HW
LayerCount: 2
Fore
SplineSet
249 361 m 1
 287 569 l 1
 370 569 l 1
 327 360 l 1
 495 431 l 1
 524 365 l 1
 333 292 l 1
 438 127 l 1
 367 81 l 1
 276 258 l 1
 122 80 l 1
 65 133 l 1
 222 299 l 1
 64 366 l 1
 98 430 l 1
 249 361 l 1
EndSplineSet
EndChar
StartChar: plus
Encoding: 43 43 101
Width: 517
VWidth: 2
Flags: HW
HStem: 216 76<49 218 310 480> 490 10G<273 350>
LayerCount: 2
Fore
SplineSet
49 288 m 1
 78 293 112 293 157 293 c 0
 179 293 205 293 235 293 c 1
 275 500 l 1
 350 500 l 1
 347 480 341 450 335 419 c 0
 323 358 310 293 310 293 c 1
 372 292 423 292 454 292 c 0
 467 292 482 292 495 292 c 1
 480 216 l 1
 473 216 l 2
 470 216 399 217 297 218 c 1
 257 10 l 1
 178 11 l 1
 218 217 l 1
 121 217 68 217 34 212 c 1
 49 288 l 1
EndSplineSet
EndChar
StartChar: comma
Encoding: 44 44 54
Width: 517
VWidth: 12
Flags: HW
HStem: -192 326
VStem: 109 199
LayerCount: 2
Fore
SplineSet
185 134 m 1
 308 134 l 1
 286 5 l 1
 286 4 l 2
 267 -92 214 -155 125 -192 c 1
 109 -124 l 1
 159 -99 190 -65 203 2 c 1
 160 2 l 1
 185 134 l 1
EndSplineSet
EndChar
StartChar: hyphen
Encoding: 45 45 100
Width: 517
VWidth: 2
Flags: HW
HStem: 216 78<71 466>
LayerCount: 2
Fore
SplineSet
71 294 m 1
 480 294 l 1
 466 216 l 1
 59 216 l 1
 71 294 l 1
EndSplineSet
EndChar
StartChar: period
Encoding: 46 46 53
Width: 517
VWidth: 12
Flags: HW
HStem: 0 131<183 280>
VStem: 157 148
LayerCount: 2
Fore
SplineSet
183 131 m 1
 305 131 l 1
 280 0 l 1
 157 0 l 1
 183 131 l 1
EndSplineSet
EndChar
StartChar: slash
Encoding: 47 47 104
Width: 517
VWidth: 29
Flags: HW
LayerCount: 2
Fore
SplineSet
3 -28 m 1
 7 -22 26 6 39 27 c 1
 107 137 379 573 459 713 c 1
 527 674 l 1
 426 502 156 69 71 -69 c 1
 3 -28 l 1
EndSplineSet
EndChar
StartChar: zero
Encoding: 48 48 52
Width: 517
VWidth: 0
Flags: HW
HStem: -8 75<167 275> 564 75<257 359>
VStem: 64 79<222 336>
LayerCount: 2
Fore
SplineSet
143 222 m 1
 380 465 l 1
 374 514 367 564 313 564 c 0
 216 564 171 396 151 292 c 0
 146 268 143 234 143 222 c 1
386 399 m 1
 147 155 l 1
 151 109 163 67 217 67 c 0
 318 67 354 225 375 332 c 0
 380 356 384 379 386 399 c 1
327 639 m 0
 431 639 463 554 463 453 c 0
 463 411 457 365 449 322 c 0
 420 175 358 -8 203 -8 c 0
 98 -8 64 74 64 176 c 0
 64 216 69 259 77 301 c 0
 106 449 179 639 327 639 c 0
EndSplineSet
EndChar
StartChar: one
Encoding: 49 49 105
Width: 517
VWidth: 0
Flags: HW
HStem: -4 10G<221 303> 626 10G<326 425>
VStem: 104 320
LayerCount: 2
Fore
SplineSet
329 636 m 1
 425 630 l 1
 301 -4 l 1
 221 -4 l 1
 321 515 l 1
 279 473 208 425 140 381 c 1
 104 455 l 1
 270 543 323 629 329 636 c 1
EndSplineSet
EndChar
StartChar: two
Encoding: 50 50 106
Width: 517
VWidth: 0
Flags: HW
HStem: 1 75<122 393> 562 76<244 376>
VStem: 115 77<417 426 427 506> 397 81<411 541>
LayerCount: 2
Fore
SplineSet
192 418 m 1
 115 401 l 1
 114 408 114 417 114 427 c 0
 114 437 115 447 116 456 c 0
 117 460 117 464 118 468 c 0
 139 576 231 638 328 638 c 0
 426 638 478 597 478 510 c 0
 478 493 476 474 472 453 c 0
 460 391 410 336 363 294 c 1
 313 252 247 211 188 162 c 0
 146 128 126 94 122 76 c 1
 408 77 l 1
 393 1 l 1
 22 1 l 1
 25 16 28 31 31 47 c 0
 33 60 37 73 42 87 c 0
 60 134 90 176 152 225 c 0
 213 273 268 305 313 342 c 1
 357 378 388 422 394 452 c 0
 396 462 397 472 397 482 c 0
 397 526 375 562 317 562 c 0
 254 562 206 527 191 449 c 0
 189 439 191 423 192 418 c 1
EndSplineSet
EndChar
StartChar: three
Encoding: 51 51 107
Width: 517
VWidth: 0
Flags: HW
HStem: -11 76<135 286> 325 77<208 304> 562 75<231 363>
VStem: 29 79<90 164> 354 80<134 281> 376 80<453 546>
LayerCount: 2
Fore
SplineSet
33 164 m 1xf8
 110 164 l 1
 109 157 108 151 108 144 c 0
 108 98 141 65 204 65 c 0
 281 65 337 111 351 183 c 0
 353 197 354 208 354 220 c 0xf8
 354 255 342 280 310 300 c 0
 270 325 231 325 192 325 c 1
 208 402 l 1
 215 402 l 2
 234 402 258 403 296 415 c 1
 340 430 365 453 375 502 c 0
 375 505 376 508 376 511 c 0
 376 543 341 562 296 562 c 0
 234 562 195 511 183 493 c 1
 122 532 l 1
 126 539 186 636 305 636 c 2
 311 636 l 2
 389 636 456 606 456 532 c 0xf4
 456 524 455 514 453 504 c 0
 441 442 405 390 357 370 c 1
 412 341 435 295 435 238 c 0
 435 221 433 203 429 184 c 0
 421 142 396 88 356 49 c 0
 316 11 267 -11 189 -11 c 0
 86 -11 29 45 29 126 c 0
 29 138 31 151 33 164 c 1xf8
EndSplineSet
EndChar
StartChar: four
Encoding: 52 52 108
Width: 517
VWidth: 0
Flags: HW
HStem: -1 10G<259 337> 202 77<158 298 389 437> 628 10G<366 459>
LayerCount: 2
Fore
SplineSet
313 278 m 1
 353 483 l 1
 305 420 212 325 158 278 c 1
 313 278 l 1
53 265 m 1
 74 287 353 558 379 638 c 1
 459 638 l 1
 389 278 l 1
 452 278 l 1
 437 203 l 1
 375 203 l 1
 335 -1 l 1
 259 -1 l 1
 298 202 l 1
 70 202 l 1
 53 265 l 1
EndSplineSet
EndChar
StartChar: five
Encoding: 53 53 109
Width: 517
VWidth: 0
Flags: HW
HStem: -1 76<149 288> 357 77<196 339> 553 76<226 449>
VStem: 369 77<168 327>
LayerCount: 2
Fore
SplineSet
270 357 m 0
 206 357 157 312 147 304 c 1
 91 331 l 1
 171 629 l 1
 464 628 l 1
 449 553 l 1
 226 553 l 1
 186 408 l 1
 211 422 245 434 283 434 c 0
 311 434 343 429 373 413 c 1
 413 390 446 340 446 269 c 0
 446 253 444 238 441 220 c 0
 413 74 311 0 194 -1 c 1
 193 -1 l 2
 108 -1 60 56 37 113 c 1
 110 156 l 1
 127 114 154 75 209 75 c 0
 291 75 346 127 364 219 c 0
 367 236 369 251 369 264 c 0
 369 307 352 330 326 344 c 0
 307 354 288 357 270 357 c 0
EndSplineSet
EndChar
StartChar: six
Encoding: 54 54 110
Width: 517
VWidth: 0
Flags: HW
HStem: -1 75<154 298> 289 76<195 335> 563 72<367 469>
VStem: 48 78<101 229> 361 80<136 262>
LayerCount: 2
Fore
SplineSet
473 563 m 1
 326 553 245 486 198 409 c 0
 180 379 168 348 158 319 c 1
 189 341 217 364 290 364 c 0
 384 364 441 311 441 224 c 0
 441 210 440 196 437 180 c 0
 413 56 316 -1 201 -1 c 0
 97 -1 48 68 48 166 c 0
 48 188 50 211 55 235 c 0
 66 293 90 367 132 439 c 0
 187 533 285 619 468 635 c 1
 473 563 l 1
127 197 m 1
 127 190 126 183 126 176 c 0
 126 109 156 73 215 73 c 0
 285 73 346 114 359 180 c 0
 361 189 361 198 361 206 c 0
 361 257 329 289 271 289 c 0
 206 289 143 239 127 197 c 1
EndSplineSet
EndChar
StartChar: seven
Encoding: 55 55 111
Width: 517
VWidth: 0
Flags: HW
HStem: 0 10G<116 218> 500 10G<141 166> 552 76<177 455>
VStem: 116 81<0 78>
LayerCount: 2
Fore
SplineSet
160 631 m 1
 201 631 253 628 291 628 c 0
 365 628 461 628 531 628 c 2
 551 628 l 1
 565 588 l 1
 373 326 240 222 197 0 c 1
 116 0 l 1
 155 199 282 348 455 553 c 1
 430 552 393 552 358 552 c 0
 335 552 313 552 295 552 c 0
 264 552 222 555 192 556 c 1
 179 538 171 521 161 500 c 1
 101 529 l 1
 116 558 140 594 160 631 c 1
EndSplineSet
EndChar
StartChar: eight
Encoding: 56 56 112
Width: 517
VWidth: 0
Flags: HW
HStem: -4 76<143 312> 555 77<246 380>
VStem: 35 79<101 225> 134 78<430 523> 375 79<136 260> 395 78<448 539>
LayerCount: 2
Fore
SplineSet
224 72 m 0xf8
 305 72 360 115 373 180 c 0
 374 188 375 196 375 203 c 0
 375 263 324 295 272 321 c 1
 202 292 131 254 116 180 c 0
 115 172 114 163 114 156 c 0
 114 104 153 72 224 72 c 0xf8
288 401 m 1
 343 414 388 451 394 483 c 0
 395 487 395 492 395 496 c 0xf4
 395 529 369 555 317 555 c 0
 258 555 220 522 213 483 c 0
 213 480 212 478 212 475 c 0
 212 445 242 413 288 401 c 1
332 631 m 0
 425 631 473 581 473 513 c 0xf4
 473 503 472 492 470 481 c 0
 460 431 409 379 362 360 c 1
 405 337 454 288 454 217 c 0xf8
 454 207 453 196 451 185 c 0
 430 77 334 -4 208 -4 c 0
 98 -4 35 57 35 145 c 0
 35 158 37 171 39 185 c 0
 56 274 136 334 196 360 c 1
 162 377 134 418 134 462 c 0
 134 468 135 475 136 481 c 0
 153 565 225 631 332 631 c 0
EndSplineSet
EndChar
StartChar: nine
Encoding: 57 57 113
Width: 517
VWidth: 0
Flags: HW
HStem: -1 76<121 287> 301 74<202 352> 562 73<233 374>
VStem: 97 79<400 509> 408 76<423 528>
LayerCount: 2
Fore
SplineSet
319 562 m 0
 256 562 192 534 178 465 c 0
 177 459 176 453 176 448 c 0
 176 397 226 375 279 375 c 0
 341 375 391 419 407 453 c 1
 407 456 408 458 408 461 c 0
 408 512 373 562 319 562 c 0
101 466 m 0
 122 571 213 636 321 636 c 0
 448 636 484 558 484 459 c 0
 484 414 477 363 467 314 c 0
 436 156 370 -1 201 -1 c 0
 81 -1 46 49 -1 112 c 1
 59 160 l 1
 113 96 127 75 216 75 c 0
 324 75 366 183 387 294 c 0
 390 312 393 330 396 347 c 1
 359 316 321 301 258 301 c 0
 166 301 97 344 97 430 c 0
 97 441 99 453 101 466 c 0
EndSplineSet
EndChar
StartChar: less
Encoding: 60 60 102
Width: 517
VWidth: 1
Flags: HW
HStem: -15 10G<335 348>
LayerCount: 2
Fore
SplineSet
394 42 m 1
 339 -15 l 1
 331 3 313 20 293 39 c 1
 254 78 81 212 70 221 c 1
 82 280 l 1
 171 343 339 462 411 500 c 0
 427 508 439 515 457 520 c 1
 486 451 l 1
 399 409 256 307 167 247 c 1
 227 198 362 106 394 42 c 1
EndSplineSet
EndChar
StartChar: equal
Encoding: 61 61 114
Width: 517
VWidth: 2
Flags: HW
HStem: 92 78<21 418> 318 79<62 459> 326 77<63 216 222 463>
LayerCount: 2
Fore
SplineSet
21 170 m 1x80
 90 174 144 174 200 174 c 0
 287 174 353 170 435 170 c 1
 418 92 l 1
 333 92 263 94 174 94 c 0
 150 94 125 95 100 95 c 0
 71 95 40 94 6 92 c 1
 21 170 l 1x80
65 403 m 1xa0
 134 399 188 397 234 397 c 0
 328 397 382 402 479 402 c 1
 463 324 l 1
 369 324 314 318 218 318 c 0xc0
 171 318 119 322 49 326 c 1
 54 352 59 378 65 403 c 1xa0
EndSplineSet
EndChar
StartChar: greater
Encoding: 62 62 103
Width: 517
VWidth: 2
Flags: HW
HStem: 509 10G<131 165>
LayerCount: 2
Fore
SplineSet
401 282 m 1
 396 221 l 1
 343 187 103 11 10 -21 c 1
 -22 41 l 1
 72 87 225 195 305 250 c 1
 252 294 151 385 106 437 c 0
 95 449 87 458 81 473 c 1
 145 519 l 1
 185 457 365 315 401 282 c 1
EndSplineSet
EndChar
StartChar: question
Encoding: 63 63 119
Width: 517
VWidth: 0
Flags: HW
HStem: 0 132<151 248> 498 10G<105 149> 577 76<186 365>
VStem: 184 85<210 272> 396 81<446 548>
LayerCount: 2
Fore
SplineSet
72 560 m 1
 137 639 234 652 304 652 c 0
 399 652 477 601 477 531 c 0
 477 419 400 367 345 327 c 0
 315 306 281 273 273 233 c 2
 269 210 l 1
 184 210 l 1
 188 232 l 2
 199 291 232 329 280 365 c 0
 343 413 396 444 396 509 c 0
 396 550 340 577 286 577 c 0
 241 577 187 577 111 498 c 1
 72 560 l 1
151 132 m 1
 273 132 l 1
 248 0 l 1
 126 0 l 1
 151 132 l 1
EndSplineSet
EndChar
StartChar: at
Encoding: 64 64 163
Width: 517
VWidth: 2
Flags: HW
HStem: -109 71<167 311> -22 10G<303 321> 90 74<237 326> 338 78<268 394> 556 74<262 408>
VStem: 22 71<49 299> 154 77<170 297> 387 74<110 242> 431 78<386 531>
LayerCount: 2
Back
SplineSet
225.5859375 139.16015625 m 4xdf80
 225.5859375 84.9609375 228.02734375 72.265625 239.2578125 72.265625 c 4
 277.34375 72.265625 318.359375 189.94140625 340.33203125 288.57421875 c 5
 358.88671875 379.39453125 l 5
 358.3984375 396.97265625 356.4453125 430.17578125 325.68359375 430.17578125 c 4
 302.24609375 430.17578125 225.5859375 265.13671875 225.5859375 139.16015625 c 4xdf80
401.3671875 83.49609375 m 7xbf80
 414.0625 83.49609375 417.48046875 106.4453125 425.29296875 146.484375 c 6
 425.29296875 146.484375 453.125 284.1796875 464.84375 344.23828125 c 4
 470.703125 374.51171875 474.609375 407.71484375 474.609375 439.453125 c 4
 474.609375 525.87890625 446.77734375 604.4921875 361.328125 604.4921875 c 4
 289.0625 604.4921875 179.19921875 501.46484375 133.7890625 268.5546875 c 4
 121.09375 203.125 114.2578125 144.04296875 114.2578125 92.7734375 c 4
 114.2578125 -28.80859375 157.2265625 -103.515625 245.1171875 -103.515625 c 4
 266.11328125 -103.515625 284.1796875 -97.16796875 301.7578125 -86.9140625 c 5
 324.21875 -152.83203125 l 5
 298.828125 -166.9921875 268.5546875 -176.7578125 230.95703125 -176.7578125 c 4
 93.75 -176.7578125 38.57421875 -83.49609375 38.57421875 70.3125 c 4
 38.57421875 128.41796875 46.38671875 194.82421875 60.546875 268.5546875 c 4
 112.3046875 534.66796875 249.0234375 676.7578125 375.48828125 676.7578125 c 4
 514.16015625 676.7578125 548.33984375 560.546875 548.33984375 455.56640625 c 4
 548.33984375 417.48046875 543.45703125 380.859375 538.0859375 352.05078125 c 4
 522.94921875 275.390625 510.25390625 208.49609375 495.1171875 131.8359375 c 4
 476.5625 37.109375 434.5703125 1.46484375 395.5078125 1.46484375 c 4xbf80
 351.07421875 1.46484375 334.9609375 41.015625 334.9609375 89.35546875 c 5
 334.9609375 89.35546875 300.29296875 -3.41796875 241.69921875 -3.41796875 c 4xdf80
 186.5234375 -3.41796875 158.203125 38.0859375 158.203125 140.625 c 4
 158.203125 272.94921875 257.8125 505.37109375 331.0546875 505.37109375 c 4
 363.28125 505.37109375 372.0703125 487.3046875 379.8828125 467.7734375 c 5
 382.32421875 479.00390625 384.765625 492.1875 385.7421875 501.953125 c 5
 445.80078125 489.74609375 l 5
 381.34765625 174.31640625 l 5
 380.37109375 166.9921875 379.8828125 159.1796875 379.8828125 151.3671875 c 4
 379.8828125 117.67578125 388.671875 83.49609375 401.3671875 83.49609375 c 7xbf80
EndSplineSet
Fore
SplineSet
233 245 m 0xfe
 231 235 230 225 230 217 c 0
 230 183 246 164 272 164 c 0
 320 164 379 232 397 261 c 1
 406 308 l 1
 386 328 350 338 319 338 c 0
 273 338 244 304 233 245 c 0xfe
388 151 m 1
 353 120 320 90 258 90 c 0
 200 90 154 142 154 210 c 0
 154 219 154 230 156 240 c 0
 177 345 251 417 330 417 c 0
 364 417 399 408 421 384 c 1
 426 410 431 439 431 465 c 0
 431 515 413 556 341 556 c 0
 233 556 141 451 101 245 c 0
 96 217 93 189 93 163 c 0
 93 49 144 -38 239 -38 c 0
 262 -38 287 -30 318 -12 c 1
 335 -78 l 1
 292 -99 253 -109 219 -109 c 0
 88 -109 22 14 22 154 c 0
 22 183 24 213 30 242 c 0
 78 489 206 630 354 630 c 0
 471 630 509 554 509 471 c 0xfe80
 509 450 507 429 503 409 c 2
 472 248 l 2
 471 243 470 239 469 234 c 0
 465 215 461 195 461 175 c 0
 461 155 465 136 474 116 c 1
 395 85 l 1
 390 99 387 114 387 133 c 0xff
 387 139 388 145 388 151 c 1
EndSplineSet
EndChar
StartChar: A
Encoding: 65 65 26
Width: 517
VWidth: 0
Flags: HW
HStem: 0 10G<-16 64 389 473> 162 78<175 361> 625 10G<294 384>
VStem: -16 79<0 56>
LayerCount: 2
Fore
SplineSet
361 242 m 1
 322 528 l 1
 173 232 l 1
 204 238 231 238 272 240 c 1
 361 242 l 1
391 0 m 2
 366 162 l 1
 297 161 189 159 132 146 c 1
 86 59 l 2
 78 45 65 14 63 0 c 1
 -16 0 l 1
 -13 14 5 57 15 78 c 1
 299 635 l 1
 382 635 l 1
 473 0 l 2
 391 0 l 2
EndSplineSet
EndChar
StartChar: C
Encoding: 67 67 28
Width: 517
VWidth: 0
Flags: HW
HStem: -1 75<167 328> 562 75<276 418>
VStem: 40 78<128 349>
LayerCount: 2
Fore
SplineSet
351 562 m 0
 217 562 140 374 127 305 c 0
 121 276 118 247 118 221 c 0
 118 176 129 137 153 109 c 0
 178 81 199 74 239 74 c 2
 246 74 l 1
 318 76 367 112 403 167 c 1
 464 130 l 1
 413 54 337 -1 244 -1 c 2
 242 -1 l 2
 188 -1 126 11 89 56 c 1
 57 97 40 148 40 211 c 0
 40 239 44 270 50 304 c 0
 74 428 128 505 161 542 c 0
 206 594 282 638 367 638 c 0
 435 638 497 600 525 522 c 1
 459 482 l 1
 440 541 393 562 351 562 c 0
EndSplineSet
EndChar
StartChar: D
Encoding: 68 68 29
Width: 517
VWidth: 0
Flags: HW
HStem: -5 74<89 292> 562 74<183 334>
VStem: 419 80<225 469>
LayerCount: 2
Fore
SplineSet
224 562 m 2
 209 562 l 2
 201 562 196 563 187 562 c 1
 185 550 182 535 179 520 c 0
 173 490 166 456 160 423 c 0
 132 277 99 117 89 70 c 1
 131 69 154 69 183 69 c 0
 239 69 329 82 378 169 c 0
 390 191 405 234 410 260 c 0
 416 293 419 327 419 358 c 0
 419 400 413 439 400 466 c 0
 369 528 332 562 224 562 c 2
9 61 m 1
 14 87 54 277 84 431 c 2
 91 467 l 2
 103 529 113 588 117 630 c 1
 158 634 180 637 228 637 c 0
 360 637 429 597 472 510 c 1
 491 471 500 423 500 371 c 0
 500 341 496 309 490 277 c 0
 460 122 399 18 236 -1 c 0
 209 -4 184 -5 157 -5 c 0
 116 -5 52 -1 -4 -1 c 1
 -1 15 -2 14 9 61 c 1
EndSplineSet
EndChar
StartChar: E
Encoding: 69 69 30
Width: 517
VWidth: 0
Flags: HW
HStem: -1 74<103 408> 325 73<168 382> 559 75<199 521>
LayerCount: 2
Fore
SplineSet
136 631 m 1
 164 633 198 633 236 633 c 0
 251 633 267 633 284 633 c 2
 337 633 l 2
 410 633 477 632 513 632 c 2
 521 632 l 1
 521 559 l 1
 199 559 l 1
 168 398 l 1
 382 398 l 1
 382 325 l 1
 153 325 l 1
 151 311 l 2
 132 212 110 110 103 72 c 1
 356 72 l 2
 383 72 408 82 408 82 c 1
 432 13 l 1
 410 4 389 -1 352 -1 c 2
 13 -1 l 1
 136 631 l 1
EndSplineSet
EndChar
StartChar: F
Encoding: 70 70 31
Width: 517
VWidth: 0
Flags: HW
HStem: -0 10G<21 103> 326 73<173 380> 559 75<205 518>
LayerCount: 2
Fore
SplineSet
99 -0 m 1
 21 1 l 1
 143 634 l 1
 478 634 l 1
 515 633 537 625 552 617 c 1
 519 545 l 1
 508 552 498 559 450 559 c 1
 416 559 l 2
 365 559 294 558 205 558 c 1
 173 398 l 1
 232 398 265 399 325 399 c 0
 368 399 396 393 396 393 c 2
 404 390 l 1
 380 319 l 1
 363 323 339 326 317 326 c 0
 265 326 212 326 159 325 c 1
 147 266 108 45 99 -0 c 1
EndSplineSet
EndChar
StartChar: G
Encoding: 71 71 32
Width: 517
VWidth: 0
Flags: HW
HStem: -4 76<157 331> 287 72<242 422> 562 74<243 418>
VStem: 23 79<127 354> 456 81<499 526>
LayerCount: 2
Fore
SplineSet
513 358 m 1
 505 295 l 2
 480 80 392 23 301 1 c 1
 278 -4 247 -4 226 -4 c 0
 82 -4 23 88 23 213 c 0
 23 243 27 274 33 307 c 0
 55 423 100 517 176 579 c 1
 233 622 291 636 347 636 c 2
 357 636 l 1
 461 634 516 581 537 501 c 1
 456 479 l 1
 441 535 413 562 337 562 c 0
 296 562 265 559 221 526 c 0
 158 480 127 385 111 301 c 0
 105 271 102 243 102 217 c 0
 102 132 138 72 246 72 c 0
 349 72 393 135 422 287 c 1
 420 287 418 287 416 287 c 0
 395 287 375 287 356 287 c 0
 319 287 284 285 240 270 c 1
 222 338 l 1
 272 356 324 359 373 359 c 0
 423 359 467 359 513 358 c 1
EndSplineSet
EndChar
StartChar: H
Encoding: 72 72 33
Width: 517
VWidth: 0
Flags: HW
HStem: 0 10G<-7 80 332 411> 305 74<144 391> 623 7G<116 192 446 531>
LayerCount: 2
Fore
SplineSet
194 633 m 1
 142 366 l 1
 189 376 235 379 294 379 c 2
 405 379 l 1
 431 513 439 551 454 630 c 1
 531 630 l 1
 409 0 l 1
 332 0 l 1
 391 305 l 1
 370 305 349 305 328 305 c 0
 257 305 187 304 127 292 c 1
 94 125 88 88 71 0 c 1
 -7 0 l 1
 116 632 l 1
 194 633 l 1
EndSplineSet
EndChar
StartChar: I
Encoding: 73 73 50
Width: 517
VWidth: 0
Flags: HW
HStem: 2 72<53 184 262 378> 559 75<161 279 357 487>
LayerCount: 2
Fore
SplineSet
161 634 m 1
 238 636 277 636 324 636 c 0
 375 636 421 635 501 634 c 1
 487 560 l 1
 427 560 404 562 357 562 c 1
 262 74 l 1
 284 74 297 75 322 75 c 0
 344 75 367 74 392 73 c 1
 378 -0 l 1
 337 2 307 2 276 2 c 0
 253 2 229 2 200 2 c 0
 164 2 115 -1 39 -1 c 1
 53 71 l 1
 95 73 119 74 147 74 c 2
 184 74 l 1
 279 562 l 1
 247 562 201 562 149 559 c 1
 161 634 l 1
EndSplineSet
EndChar
StartChar: J
Encoding: 74 74 51
Width: 517
VWidth: 0
Flags: HW
HStem: -4 73<122 240> 559 77<184 367>
VStem: 18 81<93 207>
LayerCount: 2
Fore
SplineSet
165 -4 m 0
 56 -4 18 66 18 149 c 0
 18 168 19 188 23 208 c 1
 102 208 l 1
 100 193 98 179 98 165 c 0
 98 111 118 69 178 69 c 0
 269 69 303 160 335 322 c 0
 344 368 360 492 367 559 c 1
 343 559 272 559 254 559 c 1
 224 559 204 554 183 550 c 1
 170 625 l 1
 185 628 210 635 268 636 c 1
 339 636 381 636 457 636 c 1
 448 559 l 1
 439 472 423 373 411 313 c 0
 377 140 326 -4 165 -4 c 0
EndSplineSet
EndChar
StartChar: K
Encoding: 75 75 34
Width: 517
VWidth: 0
Flags: HW
HStem: -2 4G<20 99 380 416> 629 10G<142 221 503 516>
VStem: 386 76<14 42>
LayerCount: 2
Fore
SplineSet
271 344 m 1
 318 287 450 82 462 16 c 1
 386 -8 l 1
 374 45 264 225 212 287 c 1
 212 287 162 239 141 204 c 1
 97 -2 l 1
 20 -2 l 1
 144 639 l 1
 221 639 l 1
 164 343 l 1
 214 397 256 436 314 486 c 1
 426 581 497 630 509 640 c 1
 553 576 l 1
 451 512 307 380 271 344 c 1
EndSplineSet
EndChar
StartChar: L
Encoding: 76 76 35
Width: 517
VWidth: 0
Flags: HW
HStem: -1 75<125 429> 624 10G<153 234>
LayerCount: 2
Fore
SplineSet
32 -1 m 1
 155 634 l 1
 234 634 l 1
 125 74 l 1
 379 74 l 1
 408 75 407 76 430 83 c 1
 456 14 l 1
 428 0 403 -1 366 -1 c 2
 32 -1 l 1
EndSplineSet
EndChar
StartChar: M
Encoding: 77 77 36
Width: 517
VWidth: 15
Flags: HW
HStem: -2 10G<-7 72 320 398> 621 9G<113 190 423 519>
VStem: 115 76<594 630>
LayerCount: 2
Fore
SplineSet
115 631 m 1
 190 630 l 1
 199 557 214 519 233 458 c 0
 244 420 257 390 263 371 c 1
 318 447 403 559 442 630 c 1
 519 630 l 1
 396 -2 l 1
 320 -2 l 1
 407 444 l 1
 358 375 286 281 277 263 c 1
 217 265 l 1
 215 273 193 330 166 413 c 1
 160 434 161 430 156 444 c 1
 70 -2 l 1
 -7 -2 l 1
 115 631 l 1
EndSplineSet
EndChar
StartChar: N
Encoding: 78 78 37
Width: 517
VWidth: 0
Flags: HW
HStem: -1 9G<-0 84 307 408> 624 9G<121 201 448 534>
VStem: 330 78<-2 77>
LayerCount: 2
Fore
SplineSet
330 -3 m 1
 284 171 237 317 172 489 c 1
 153 389 l 2
 125 246 92 73 77 -1 c 1
 -0 -1 l 1
 123 634 l 1
 201 632 l 1
 245 542 331 295 365 174 c 1
 376 237 388 305 401 370 c 0
 419 461 437 550 458 633 c 1
 534 633 l 1
 520 578 506 506 490 426 c 0
 469 316 446 191 424 79 c 0
 419 51 413 24 408 -2 c 1
 330 -3 l 1
EndSplineSet
EndChar
StartChar: O
Encoding: 79 79 38
Width: 517
VWidth: 0
Flags: HW
HStem: -6 75<142 285> 573 75<249 383>
VStem: 21 79<111 338> 424 77<271 523>
LayerCount: 2
Fore
SplineSet
335 647 m 1
 386 647 501 622 501 431 c 0
 501 396 498 356 489 310 c 1
 488 305 l 2
 472 225 437 149 405 104 c 0
 355 34 283 -6 202 -6 c 0
 142 -6 85 14 55 63 c 0
 33 99 21 144 21 196 c 0
 21 222 23 250 29 279 c 0
 62 447 114 521 157 567 c 0
 198 611 258 646 335 647 c 1
117 120 m 0
 135 88 164 68 217 68 c 0
 260 68 315 101 345 142 c 1
 370 173 401 254 412 306 c 1
 414 315 l 2
 420 347 424 385 424 421 c 0
 424 448 422 475 415 497 c 0
 397 553 367 573 324 573 c 0
 291 573 247 559 211 522 c 0
 169 479 132 409 107 281 c 0
 103 260 100 233 100 208 c 0
 100 173 105 141 117 120 c 0
EndSplineSet
EndChar
StartChar: P
Encoding: 80 80 39
Width: 517
VWidth: 0
Flags: HW
HStem: -5 10G<13 98> 225 74<150 337> 562 74<201 406>
VStem: 436 81<389 535>
LayerCount: 2
Fore
SplineSet
432 439 m 0
 434 452 436 464 436 475 c 0
 436 554 379 560 275 562 c 1
 245 562 223 560 201 560 c 1
 189 498 l 2
 171 409 150 299 150 299 c 1
 168 299 184 299 200 299 c 0
 320 299 411 328 432 439 c 0
90 -5 m 1
 13 -4 l 1
 137 632 l 1
 195 632 214 636 279 636 c 0
 389 636 456 629 499 562 c 0
 512 542 516 517 516 491 c 0
 516 475 514 459 511 442 c 0
 502 398 490 349 452 307 c 0
 391 239 327 225 210 225 c 0
 187 225 162 225 136 226 c 1
 111 98 105 71 90 -5 c 1
EndSplineSet
EndChar
StartChar: Q
Encoding: 81 81 40
Width: 517
VWidth: 0
Flags: HW
HStem: -64 74<343 436> -1 72<168 269> 137 73<182 267> 562 75<248 379>
VStem: 36 80<142 353> 422 78<282 516>
LayerCount: 2
Fore
SplineSet
385 -64 m 0xbc
 329 -64 269 -55 269 7 c 1
 248 2 228 -1 208 -1 c 0x7c
 151 -1 103 19 72 59 c 0
 48 91 36 138 36 196 c 0
 36 230 39 267 47 307 c 0
 67 408 100 502 158 562 c 0
 215 621 266 637 326 637 c 0
 408 637 458 606 483 537 c 0
 495 503 500 469 500 437 c 0
 500 282 440 112 341 47 c 1
 341 46 341 44 341 43 c 0
 341 12 356 10 394 10 c 1
 399 10 l 2
 417 10 429 12 441 15 c 1
 436 -62 l 1
 425 -64 407 -64 385 -64 c 0xbc
239 210 m 0
 297 210 332 186 339 140 c 1
 384 223 422 312 422 427 c 0
 422 451 418 476 409 500 c 0
 394 538 360 562 311 562 c 0
 223 562 151 438 131 337 c 0
 125 303 116 259 116 211 c 0
 116 188 118 164 123 141 c 1
 150 196 216 210 239 210 c 0
270 81 m 1
 270 85 271 89 271 92 c 0
 271 125 261 137 229 137 c 0
 201 137 172 116 167 89 c 0
 167 88 l 0
 177 75 197 70 216 70 c 0
 231 70 251 74 270 81 c 1
EndSplineSet
EndChar
StartChar: R
Encoding: 82 82 41
Width: 517
VWidth: 0
Flags: HW
HStem: 0 2G<7 86 421 441> 277 74<152 243> 562 75<192 379>
VStem: 428 78<386 519>
LayerCount: 2
Fore
SplineSet
333 264 m 1
 359 204 413 118 434 86 c 1
 441 78 452 62 472 57 c 1
 435 -8 l 1
 408 -4 385 14 372 35 c 1
 335 87 264 215 245 261 c 1
 206 265 174 271 138 277 c 1
 84 0 l 1
 7 0 l 1
 113 543 l 2
 119 576 123 599 127 629 c 1
 148 631 205 636 235 636 c 0
 357 636 438 629 483 556 c 0
 497 535 505 506 505 475 c 0
 505 465 504 454 502 444 c 0
 481 337 434 277 333 264 c 1
425 437 m 0
 426 445 428 453 428 461 c 0
 428 479 423 496 412 512 c 0
 387 550 332 562 223 562 c 0
 210 562 206 561 192 561 c 1
 152 351 l 1
 199 342 235 334 275 334 c 0
 358 334 409 354 425 437 c 0
EndSplineSet
EndChar
StartChar: S
Encoding: 83 83 42
Width: 517
VWidth: 0
Flags: HW
HStem: -4 74<136 313> 513 10G<458 478> 561 75<220 431>
VStem: 2 79<117 156> 89 83<422 520> 387 80<138 267>
LayerCount: 2
Fore
SplineSet
81 175 m 0
 81 116 133 69 225 69 c 0
 329 69 387 135 387 209 c 0
 387 248 366 274 337 288 c 0
 285 312 210 317 151 346 c 1
 117 364 89 398 89 451 c 0
 89 580 207 636 316 636 c 0
 418 636 487 614 521 588 c 1
 472 513 l 1
 444 538 394 561 304 561 c 0
 234 561 172 523 172 468 c 0
 172 439 186 425 207 414 c 0
 259 387 335 386 394 357 c 1
 434 336 467 293 467 229 c 0
 467 64 339 -4 217 -4 c 2
 208 -4 l 1
 66 -1 2 72 2 156 c 0
 81 175 l 0
EndSplineSet
EndChar
StartChar: U
Encoding: 85 85 44
Width: 517
VWidth: 0
Flags: HW
HStem: -5 74<144 295> 631 4G<112 198 462 542>
VStem: 34 79<100 321> 467 75<561 635>
LayerCount: 2
Fore
SplineSet
467 641 m 1
 542 635 l 1
 532 606 528 584 523 558 c 0
 509 487 499 425 488 371 c 2
 482 343 l 2
 460 230 438 121 371 58 c 0
 322 12 266 -3 203 -5 c 1
 78 -5 34 51 34 152 c 0
 34 173 36 194 39 218 c 0
 44 255 54 314 67 380 c 0
 83 464 103 559 121 636 c 1
 198 636 l 1
 180 555 158 445 140 355 c 0
 128 295 119 243 116 214 c 0
 115 201 113 188 113 177 c 0
 113 101 146 69 210 69 c 1
 262 71 290 83 322 110 c 1
 362 146 386 247 405 343 c 0
 417 403 429 474 445 557 c 0
 452 592 456 611 467 641 c 1
EndSplineSet
EndChar
StartChar: V
Encoding: 86 86 45
Width: 517
VWidth: 0
Flags: HW
HStem: -2 10G<165 243> 644 10G<139 181 459 512>
VStem: 89 79<538 630>
LayerCount: 2
Fore
SplineSet
165 -2 m 1
 165 3 165 8 165 15 c 0
 165 135 112 525 89 628 c 1
 168 654 l 1
 193 531 219 353 232 173 c 1
 298 326 422 534 495 655 c 1
 566 614 l 1
 496 501 271 96 243 -2 c 1
 165 -2 l 1
EndSplineSet
EndChar
StartChar: W
Encoding: 87 87 46
Width: 517
VWidth: 0
Flags: HW
HStem: 0 10G<61 128 305 388> 634 10G<118 165 448 558>
VStem: 88 78<403 628> 276 72<151 299>
LayerCount: 2
Back
SplineSet
254.39453125 299.31640625 m 5
 277.34375 189.453125 342.7734375 10.7421875 346.6796875 0 c 5
 410.64453125 0 l 5
 431.640625 83.0078125 483.3984375 505.37109375 505.859375 627.9296875 c 5
 430.6640625 643.5546875 l 5
 371.826171875 329.6875 388.671875 296.875 367.1875 145.5078125 c 5
 333.0078125 257.8125 299.31640625 432.6171875 296.38671875 467.28515625 c 1029
EndSplineSet
Fore
SplineSet
125 0 m 1
 62 0 l 1
 62 6 61 14 61 24 c 0
 61 144 87 515 88 628 c 1
 167 644 l 1
 165 330 141 297 133 146 c 1
 189 258 257 432 267 467 c 1
 289 467 331 467 349 473 c 1
 349 430 348 376 348 321 c 0
 348 258 349 194 355 146 c 1
 398 285 385 305 512 642 c 1
 586 626 l 1
 537 503 404 87 371 0 c 1
 305 0 l 1
 305 0 276 197 276 291 c 0
 276 294 276 296 276 299 c 1
 232 189 131 11 125 0 c 1
EndSplineSet
EndChar
StartChar: X
Encoding: 88 88 47
Width: 517
VWidth: 0
Flags: HW
HStem: -15 10G<355 399> 645 5G<142 186 470 492>
LayerCount: 2
Fore
SplineSet
478 654 m 1
 542 610 l 1
 304 309 l 1
 362 179 395 98 451 31 c 1
 385 -15 l 1
 325 57 301 125 250 243 c 1
 43 -21 l 1
 -18 26 l 1
 211 319 l 1
 172 419 138 533 84 609 c 1
 161 650 l 1
 211 579 237 474 271 390 c 1
 478 654 l 1
EndSplineSet
EndChar
StartChar: Y
Encoding: 89 89 48
Width: 517
VWidth: 0
Flags: HW
HStem: 632 10G<147 183 473 506>
LayerCount: 2
Fore
SplineSet
145 21 m 1
 276 256 l 1
 248 310 114 562 99 614 c 1
 174 642 l 1
 192 598 288 409 325 338 c 1
 348 393 465 603 481 654 c 1
 554 625 l 1
 444 398 329 188 217 -16 c 1
 145 21 l 1
EndSplineSet
EndChar
StartChar: Z
Encoding: 90 90 49
Width: 517
VWidth: 0
Flags: HW
HStem: -1 75<106 427> 562 74<116 441>
LayerCount: 2
Fore
SplineSet
23 -2 m 1
 -15 41 l 1
 441 562 l 1
 337 562 172 559 116 559 c 1
 115 634 l 1
 174 634 394 636 486 636 c 0
 523 636 544 629 553 628 c 1
 549 612 535 572 531 561 c 1
 106 74 l 1
 344 73 l 2
 386 73 407 75 428 86 c 1
 452 21 l 1
 430 5 395 -1 358 -1 c 2
 239 -1 l 2
 135 -1 49 -2 26 -2 c 2
 23 -2 l 1
EndSplineSet
EndChar
StartChar: bracketleft
Encoding: 91 91 96
Width: 517
VWidth: 32
Flags: HW
HStem: -126 79<204 372> 643 75<338 516>
LayerCount: 2
Fore
SplineSet
516 724 m 1
 517 649 l 1
 467 645 420 645 338 643 c 1
 204 -49 l 1
 251 -48 303 -47 312 -47 c 2
 318 -47 l 2
 349 -47 381 -51 387 -52 c 1
 372 -131 l 1
 360 -130 341 -126 306 -126 c 0
 277 -126 156 -129 111 -129 c 1
 128 -42 137 -2 154 86 c 0
 162 130 173 190 190 277 c 0
 207 362 223 448 235 512 c 2
 275 718 l 1
 320 718 440 721 465 721 c 1
 501 722 505 723 516 724 c 1
EndSplineSet
EndChar
StartChar: backslash
Encoding: 92 92 115
Width: 517
VWidth: 29
Flags: HW
VStem: 146 247
LayerCount: 2
Fore
SplineSet
393 -53 m 1
 313 -72 l 1
 281 66 180 517 146 689 c 1
 228 708 l 1
 260 534 361 87 393 -53 c 1
EndSplineSet
EndChar
StartChar: bracketright
Encoding: 93 93 97
Width: 517
VWidth: 32
Flags: HW
HStem: -126 79<29 213> 649 75<198 348>
LayerCount: 2
Fore
SplineSet
201 724 m 1
 212 723 216 722 251 721 c 1
 276 721 395 718 440 718 c 1
 400 512 l 2
 388 448 371 362 354 277 c 0
 336 190 323 130 315 86 c 0
 298 -2 292 -42 275 -129 c 1
 230 -129 110 -126 81 -126 c 0
 46 -126 27 -130 14 -131 c 1
 29 -52 l 1
 36 -51 69 -47 100 -47 c 2
 106 -47 l 2
 115 -47 167 -48 213 -49 c 1
 348 643 l 1
 267 645 219 645 171 649 c 1
 201 724 l 1
EndSplineSet
EndChar
StartChar: asciicircum
Encoding: 94 94 116
Width: 517
VWidth: -4
Flags: HW
HStem: 224 314
LayerCount: 2
Fore
SplineSet
319 538 m 1
 497 285 l 1
 438 229 l 1
 307 410 l 1
 91 224 l 1
 43 281 l 1
 319 538 l 1
EndSplineSet
EndChar
StartChar: underscore
Encoding: 95 95 117
Width: 517
VWidth: 20
Flags: HW
HStem: -163 76<-33 416>
LayerCount: 2
Fore
SplineSet
416 -163 m 1
 -48 -163 l 1
 -33 -87 l 1
 431 -87 l 1
 416 -163 l 1
EndSplineSet
EndChar
StartChar: grave
Encoding: 96 96 118
Width: 517
VWidth: -12
Flags: HW
HStem: 452 272
VStem: 196 289
LayerCount: 2
Fore
SplineSet
268 724 m 1
 293 668 442 544 484 526 c 1
 432 452 l 1
 348 512 261 568 196 658 c 1
 268 724 l 1
EndSplineSet
EndChar
StartChar: a
Encoding: 97 97 0
Width: 517
VWidth: 2
Flags: HW
HStem: -4 74<129 241> 435 70<205 364>
VStem: 32 74<91 279> 350 73<38 105>
LayerCount: 2
Fore
SplineSet
119 251 m 0
 111 220 106 193 106 169 c 0
 106 107 133 70 171 70 c 0
 281 70 346 216 374 297 c 1
 396 393 l 1
 372 410 336 435 285 435 c 0
 192 435 154 378 119 251 c 0
491 489 m 1
 433 174 l 2
 427 142 423 120 423 104 c 0
 423 79 432 69 449 53 c 1
 397 -5 l 1
 377 13 350 26 350 93 c 0
 350 97 350 101 350 105 c 1
 322 64 261 -4 157 -4 c 0
 81 -4 32 68 32 167 c 0
 32 192 36 219 42 246 c 0
 83 421 148 505 295 505 c 0
 357 505 388 485 411 469 c 1
 413 480 415 491 416 501 c 1
 491 489 l 1
EndSplineSet
EndChar
StartChar: b
Encoding: 98 98 1
Width: 517
VWidth: 0
Flags: HW
HStem: -3 75<159 304> 426 76<249 354> 680 10G<144 221>
VStem: 144 79<551 685> 383 75<182 396>
LayerCount: 2
Fore
SplineSet
375 233 m 0
 381 263 383 290 383 312 c 0
 383 393 348 426 300 426 c 0
 250 426 189 359 138 219 c 1
 124 150 l 1
 148 94 166 72 233 72 c 0
 316 72 355 133 375 233 c 0
449 224 m 0
 424 93 353 -3 219 -3 c 0
 164 -3 128 14 103 41 c 1
 99 20 93 10 88 -6 c 1
 9 3 l 1
 20 35 33 78 41 119 c 1
 127 565 l 0
 136 611 141 652 144 685 c 1
 222 689 l 1
 220 653 214 606 204 562 c 2
 167 407 l 1
 203 457 248 502 308 502 c 0
 403 502 458 427 458 310 c 0
 458 283 455 254 449 224 c 0
EndSplineSet
EndChar
StartChar: c
Encoding: 99 99 2
Width: 517
VWidth: 1
Flags: HW
HStem: -3 77<162 336> 422 75<219 386>
VStem: 38 81<115 309>
LayerCount: 2
Fore
SplineSet
118 190 m 0
 118 117 157 73 245 73 c 2
 251 73 l 2
 327 73 370 113 404 155 c 1
 460 101 l 1
 440 80 374 -3 238 -3 c 0
 120 -3 38 69 38 167 c 0
 38 203 43 238 48 267 c 0
 79 429 185 497 334 497 c 0
 420 497 466 450 481 385 c 1
 405 359 l 1
 399 391 383 422 315 422 c 0
 211 422 146 368 126 263 c 0
 122 242 118 215 118 190 c 0
EndSplineSet
EndChar
StartChar: d
Encoding: 100 100 3
Width: 517
VWidth: 0
Flags: HW
HStem: -4 74<111 223> 435 70<187 346> 680 10G<434 497>
VStem: 14 74<91 279> 331 74<39 112>
LayerCount: 2
Back
SplineSet
365.72265625 233.3984375 m 4xd8
 365.72265625 371.58203125 311.03515625 422.36328125 231.4453125 422.36328125 c 4
 187.01171875 422.36328125 156.73828125 388.18359375 131.34765625 363.28125 c 5
 131.34765625 149.90234375 l 5
 166.015625 94.23828125 188.96484375 71.77734375 255.859375 71.77734375 c 4
 338.8671875 71.77734375 365.72265625 133.7890625 365.72265625 233.3984375 c 4xd8
442.3828125 224.12109375 m 4
 442.3828125 93.26171875 390.13671875 -3.41796875 255.859375 -3.41796875 c 4
 201.171875 -3.41796875 162.109375 13.671875 131.34765625 41.015625 c 5xd8
 130.859375 20.5078125 128.41796875 9.765625 125.9765625 -5.859375 c 5
 45.41015625 3.41796875 l 5xe8
 50.29296875 35.64453125 54.6875 78.125 54.6875 118.65234375 c 4
 54.6875 122.55859375 54.6875 126.46484375 54.6875 130.37109375 c 4
 54.6875 251.953125 54.19921875 428.22265625 54.19921875 564.94140625 c 4
 54.19921875 610.83984375 50.29296875 651.85546875 46.875 685.05859375 c 5
 124.51171875 689.453125 l 5
 128.90625 653.80859375 131.34765625 606.93359375 131.34765625 562.5 c 6
 131.34765625 463.37890625 l 5
 154.78515625 480.95703125 175.78125 498.046875 224.609375 498.046875 c 4
 382.32421875 498.046875 442.3828125 388.18359375 442.3828125 224.12109375 c 4
EndSplineSet
Fore
SplineSet
101 251 m 0
 93 220 88 193 88 169 c 0
 88 107 115 70 153 70 c 0
 263 70 328 216 356 297 c 1
 378 393 l 1
 354 410 318 435 267 435 c 0
 174 435 136 378 101 251 c 0
510 678 m 1
 415 174 l 2
 409 142 405 120 405 104 c 0
 405 79 414 69 431 53 c 1
 379 -5 l 1
 359 13 331 34 331 84 c 0
 331 88 332 93 332 97 c 1
 304 56 243 -4 139 -4 c 0
 63 -4 14 68 14 167 c 0
 14 192 17 219 23 246 c 0
 64 421 130 505 277 505 c 0
 339 505 370 485 393 469 c 1
 395 480 433 679 434 689 c 1
 510 678 l 1
EndSplineSet
EndChar
StartChar: e
Encoding: 101 101 4
Width: 517
VWidth: 15
Flags: HW
HStem: -5 75<156 334> 424 74<219 372>
VStem: 42 78<104 168> 396 71<311 401>
LayerCount: 2
Fore
SplineSet
128 240 m 1
 184 244 286 251 342 284 c 0
 379 306 396 334 396 359 c 0
 396 395 361 424 295 424 c 0
 212 424 152 363 128 240 c 1
309 499 m 0
 414 499 467 432 467 361 c 0
 467 312 441 261 388 228 c 0
 313 183 190 172 120 167 c 1
 120 166 120 163 120 161 c 0
 120 126 139 70 234 70 c 0
 321 70 370 110 394 136 c 1
 443 83 l 1
 419 61 360 -5 217 -5 c 0
 98 -5 42 65 42 174 c 0
 42 198 45 224 50 252 c 0
 77 392 171 499 309 499 c 0
EndSplineSet
EndChar
StartChar: f
Encoding: 102 102 5
Width: 517
VWidth: 0
Flags: HW
HStem: 0 10G<89 166> 423 75<109 170 261 447> 618 74<300 516>
LayerCount: 2
Fore
SplineSet
542 583 m 1
 489 616 425 618 361 618 c 0
 289 618 275 571 265 518 c 2
 261 499 l 1
 294 499 355 498 391 498 c 1
 441 497 453 492 467 488 c 1
 448 417 l 1
 438 420 423 423 396 423 c 2
 247 423 l 1
 233 348 166 2 166 0 c 1
 89 0 l 1
 91 12 157 351 170 423 c 1
 106 423 l 1
 109 498 l 1
 185 498 l 1
 186 506 187 511 189 520 c 0
 203 590 237 692 372 692 c 0
 436 692 520 689 584 651 c 1
 542 583 l 1
EndSplineSet
EndChar
StartChar: g
Encoding: 103 103 6
Width: 517
VWidth: 6
Flags: HW
HStem: -196 76<82 239> -4 74<129 241> 435 70<205 364>
VStem: 32 74<91 279>
LayerCount: 2
Back
SplineSet
-191.736328125 500.859375 m 9
 -167.322265625 433.478515625 l 17
 -220.06640625 413.712890625 -249.841796875 383.185546875 -267.419921875 356.818359375 c 1
 -279.138671875 334.845703125 -270.349609375 314.337890625 -229.333984375 295.294921875 c 0
 -188.318359375 276.251953125 -127.959960938 239.098632812 -132.654296875 164.923828125 c 0
 -137.537109375 87.775390625 -210.205078125 20.9384765625 -367.919921875 15.5673828125 c 0
 -518.647460938 10.4345703125 -570.068359375 54.6298828125 -592.529296875 101.016601562 c 0
 -600.21484375 116.892578125 -617.6953125 168.763671875 -577.880859375 224.063476562 c 0
 -533.935546875 285.098632812 -454.919921875 293.830078125 -371.423828125 282.111328125 c 9
 -377.13671875 253.37890625 -386.072265625 208.438476562 -386.072265625 208.438476562 c 0
 -490.078125 233.340820312 -544.091796875 173.865234375 -513.427734375 127.872070312 c 0
 -478.271484375 75.1376953125 -326.416015625 90.2744140625 -307.373046875 94.6689453125 c 0
 -288.330078125 99.0634765625 -216.064453125 115.5859375 -216.064453125 169.864257812 c 0
 -216.064453125 208.438476562 -264.404296875 219.668945312 -308.349609375 246.036132812 c 0
 -352.294921875 272.403320312 -377.477539062 332.692382812 -336.267578125 393.008789062 c 0
 -311.201171875 429.697265625 -235.83203125 469.861328125 -191.736328125 500.859375 c 9
-177.8671875 563.41796875 m 0
 -169.135742188 608.33984375 -200.943359375 638.125 -274.673828125 638.125 c 0
 -356.705078125 638.125 -374.62109375 600.52734375 -383.921875 552.67578125 c 0
 -393.318359375 504.3359375 -350.830078125 468.204101562 -287.841796875 468.204101562 c 0
 -187.255859375 468.204101562 -180.145507812 551.69921875 -177.8671875 563.41796875 c 0
-462.3046875 546.328125 m 0
 -462.28515625 547.822265625 -461.064453125 560.4296875 -460.779296875 561.89453125 c 0
 -441.986328125 658.57421875 -384.270507812 712.34375 -260.247070312 712.34375 c 0
 -211.418945312 712.34375 -166.754882812 705.99609375 -134.10546875 683.046875 c 1
 -105.35546875 711.796875 -61.6884765625 714.78515625 -5.0478515625 714.78515625 c 1
 -20.5185546875 635.1953125 l 1
 -26.1884765625 636.171875 -31.46484375 636.66015625 -36.34765625 636.66015625 c 0
 -71.619140625 636.66015625 -94.646484375 629.82421875 -103.39453125 622.5 c 1
 -98.765625 612.24609375 -97.7890625 586.85546875 -101.220703125 565.859375 c 0
 -113.336914062 491.733398438 -121.134765625 409.552734375 -284.998046875 409.552734375 c 2
 -286.462890625 409.552734375 l 2
 -404.015625 409.552734375 -463.708984375 440.314453125 -462.3046875 546.328125 c 0
EndSplineSet
Fore
SplineSet
119 251 m 0
 111 220 106 193 106 169 c 0
 106 107 133 70 171 70 c 0
 281 70 346 216 374 297 c 1
 396 393 l 1
 372 410 336 435 285 435 c 0
 192 435 154 378 119 251 c 0
491 489 m 1
 433 174 l 2
 410 49 366 -196 173 -196 c 0
 117 -196 47 -175 -37 -125 c 1
 0 -52 l 1
 71 -101 127 -121 170 -121 c 0
 294 -121 327 41 346 101 c 1
 318 60 261 -4 157 -4 c 0
 81 -4 32 68 32 167 c 0
 32 192 36 219 42 246 c 0
 83 421 148 505 295 505 c 0
 357 505 388 485 411 469 c 1
 413 480 415 491 416 501 c 1
 491 489 l 1
EndSplineSet
EndChar
StartChar: h
Encoding: 104 104 8
Width: 517
VWidth: 0
Flags: HW
HStem: 0 10G<3 83> 423 75<262 370> 675 10G<141 218>
VStem: 3 76<4 88> 331 79<58 202> 381 79<246 413>
LayerCount: 2
Fore
SplineSet
369 281 m 2xf8
 375 311 381 345 381 365 c 0
 381 397 366 423 324 423 c 0
 286 423 195 384 128 236 c 1
 103 97 l 2
 96 58 87 22 80 0 c 1
 3 4 l 1
 14 39 20 62 27 100 c 0
 75 346 141 685 141 685 c 1
 218 685 l 1
 164 406 l 1
 204 466 261 498 311 498 c 0
 400 498 460 466 460 378 c 0xf4
 460 358 456 337 452 313 c 0
 437 238 426 185 416 134 c 0
 415 130 410 103 410 96 c 0
 410 62 428 60 449 49 c 1
 417 -17 l 1
 372 -6 331 28 331 76 c 0
 331 94 336 118 338 127 c 2
 369 281 l 2xf8
EndSplineSet
EndChar
StartChar: i
Encoding: 105 105 9
Width: 517
VWidth: 0
Flags: HW
HStem: -9 69<257 406> 488 10G<226 323> 577 110<250 343>
VStem: 171 78<69 225>
LayerCount: 2
Fore
SplineSet
250 687 m 1
 364 687 l 1
 343 577 l 1
 229 577 l 1
 250 687 l 1
EndSplineSet
Refer: 177 305 N 1 0 0 1 0 0 2
EndChar
StartChar: j
Encoding: 106 106 10
Width: 517
VWidth: 0
Flags: HW
HStem: -189 76<103 233> 436 73<246 344> 576 110<370 463>
VStem: 347 76<279 435>
LayerCount: 2
Fore
SplineSet
370 686 m 1
 484 684 l 1
 463 574 l 1
 349 576 l 1
 370 686 l 1
EndSplineSet
Refer: 330 567 N 1 0 0 1 0 0 2
EndChar
StartChar: k
Encoding: 107 107 11
Width: 517
VWidth: 0
Flags: HW
HStem: 0 10G<30 108 368 403> 426 70<295 390> 687 10G<149 229>
VStem: 152 79<573 689> 400 74<287 417>
LayerCount: 2
Fore
SplineSet
230 263 m 1
 230 263 288 246 307 246 c 0
 368 246 400 305 400 365 c 0
 400 400 385 426 354 426 c 0
 275 426 174 287 146 205 c 1
 141 181 109 16 106 0 c 1
 30 0 l 1
 146 600 l 2
 149 618 152 634 152 652 c 0
 152 664 151 676 149 688 c 1
 229 697 l 1
 230 692 230 679 230 663 c 0
 230 645 229 623 226 605 c 2
 180 372 l 1
 255 482 311 496 363 496 c 0
 437 496 475 434 475 360 c 0
 475 287 439 212 337 189 c 1
 398 142 421 83 450 17 c 1
 381 -14 l 1
 354 70 297 157 205 194 c 1
 230 263 l 1
EndSplineSet
Substitution2: "'ss01' Style Set 1 - No loop k-1" k.noloop
EndChar
StartChar: l
Encoding: 108 108 12
Width: 517
VWidth: 0
Flags: HW
HStem: -9 69<235 408>
VStem: 137 79<81 272>
LayerCount: 2
Back
SplineSet
269.69140625 706.25 m 4
 363.685546875 706.25 379.5859375 626.376953125 367.875976562 563.28125 c 6
 289.16796875 138.427734375 l 6
 279.795898438 87.8388671875 296.4375 60.546875 341.359375 60.546875 c 4
 386.76953125 60.546875 434.732421875 72.265625 473.358398438 97.65625 c 5
 510.317382812 40.52734375 l 5
 461.587890625 5.859375 388.916015625 -8.7890625 328.369140625 -8.7890625 c 4
 214.17578125 -8.7890625 201.30859375 75.787109375 212.616210938 136.474609375 c 6
 293.419921875 570.1171875 l 6
 297.208007812 590.297851562 298.5 632.6171875 268.71484375 633.59375 c 4
 244.7890625 633.59375 212.5625 634.08203125 152.9921875 579.39453125 c 5
 105.62890625 644.3359375 l 5
 171.546875 687.79296875 203.7734375 706.25 269.69140625 706.25 c 4
EndSplineSet
Fore
SplineSet
316 699 m 25
 220 184 l 2
 217 168 215 154 215 142 c 0
 215 77 253 61 305 61 c 0
 350 61 398 73 437 98 c 1
 474 41 l 1
 425 6 353 -9 292 -9 c 0
 188 -9 137 52 137 137 c 0
 137 151 138 166 141 182 c 2
 237 705 l 25
 316 699 l 25
EndSplineSet
EndChar
StartChar: m
Encoding: 109 109 13
Width: 517
VWidth: 1
Flags: HW
HStem: 0 0G<-7 63 172 243 419 439> 426 75<204 283 373 458> 501 10G<111 150>
VStem: 75 77<428 492> 427 68<328 425>
LayerCount: 2
Fore
SplineSet
434 501 m 3
 483 501 496 456 496 413 c 0
 496 394 493 375 490 361 c 2
 440 105 l 2
 440 103 440 100 440 98 c 0
 440 77 459 62 476 55 c 1
 433 -10 l 1
 404 -4 367 18 367 69 c 0
 367 76 369 84 370 93 c 2
 370 94 l 1
 424 371 l 2
 424 373 425 375 425 377 c 0
 426 383 427 391 427 398 c 0
 427 412 422 426 403 426 c 0
 380 426 350 404 307 338 c 1
 241 0 l 1
 172 0 l 1
 249 394 l 1
 250 398 250 403 250 408 c 0
 250 418 247 426 232 426 c 0
 209 426 170 403 127 337 c 1
 62 0 l 1
 -7 0 l 1
 68 398 l 2
 73 423 75 442 75 458 c 0
 75 471 73 481 72 492 c 1
 149 511 l 1
 150 505 152 495 152 483 c 0
 152 464 150 442 148 428 c 1
 178 467 227 501 263 501 c 1
 305 501 325 471 325 441 c 0
 325 437 325 432 324 428 c 1
 352 467 389 501 434 501 c 3
EndSplineSet
EndChar
StartChar: n
Encoding: 110 110 15
Width: 517
VWidth: 2
Flags: HW
HStem: -0 1G<28 103 380 406> 428 75<280 383>
VStem: 104 79<418 495> 328 79<41 197> 386 80<354 425>
LayerCount: 2
Fore
SplineSet
183 418 m 1xe8
 241 476 295 503 357 503 c 0
 410 503 466 469 466 409 c 0xe8
 466 403 465 396 464 389 c 2
 408 103 l 2
 407 99 407 96 407 93 c 0
 407 69 428 58 449 45 c 1
 397 -9 l 1
 363 10 328 31 328 78 c 0xf0
 328 85 330 92 331 100 c 2
 384 374 l 2
 385 380 386 387 386 392 c 0
 386 416 373 428 344 428 c 1
 287 428 198 361 151 237 c 1
 103 0 l 1
 26 -0 l 1
 93 344 l 2
 101 387 104 413 104 434 c 0
 104 455 101 472 100 495 c 1
 183 504 l 1
 184 495 184 481 184 463 c 0
 184 449 184 434 183 418 c 1xe8
EndSplineSet
EndChar
StartChar: o
Encoding: 111 111 14
Width: 517
VWidth: 2
Flags: HW
HStem: 0 76<138 288> 429 75<221 360>
VStem: 36 79<98 286> 384 79<207 406>
LayerCount: 2
Fore
SplineSet
303 105 m 1
 341 135 362 187 376 259 c 0
 376 262 378 265 378 268 c 0
 381 288 384 306 384 323 c 0
 384 385 372 429 291 429 c 0
 206 429 143 348 120 229 c 0
 117 211 115 195 115 180 c 0
 115 115 128 76 210 76 c 1
 247 76 275 84 303 105 c 1
199 0 m 1
 198 0 l 0
 98 0 36 63 36 161 c 0
 36 182 38 204 42 227 c 0
 70 370 146 504 289 504 c 0
 385 504 433 470 454 406 c 0
 460 387 463 363 463 339 c 0
 463 314 461 289 456 265 c 0
 429 126 366 0 200 0 c 2
 199 0 l 1
EndSplineSet
EndChar
StartChar: p
Encoding: 112 112 7
Width: 517
VWidth: 0
Flags: HW
HStem: -3 76<157 292> 419 76<281 382> 496 10G<111 193>
VStem: -12 79<-192 -51> 111 82<378 496> 395 77<209 407>
LayerCount: 2
Fore
SplineSet
386 257 m 0
 392 288 395 315 395 338 c 0
 395 389 379 419 340 419 c 0
 273 419 196 326 142 210 c 1
 126 128 l 1
 147 103 169 72 213 72 c 0
 293 72 359 119 386 257 c 0
96 370 m 2
 97 374 97 377 98 381 c 0
 106 422 110 464 111 496 c 1
 193 506 l 1
 193 490 176 398 173 377 c 1
 237 480 285 495 354 495 c 0
 431 495 472 432 472 340 c 0
 472 317 469 293 464 267 c 0
 432 103 350 -3 192 -3 c 0
 143 -3 125 19 104 34 c 1
 83 -74 l 2
 76 -120 70 -162 67 -195 c 1
 -12 -192 l 1
 -10 -156 -4 -115 5 -71 c 2
 96 370 l 2
EndSplineSet
EndChar
StartChar: q
Encoding: 113 113 16
Width: 517
VWidth: 0
Flags: HW
HStem: -4 74<140 232> 435 70<217 375>
VStem: 43 74<91 279> 304 81<-180 46> 422 81<469 490>
LayerCount: 2
Fore
SplineSet
130 251 m 0
 122 220 118 193 118 169 c 0
 118 107 144 70 182 70 c 0
 255 70 344 222 389 324 c 1
 407 393 l 1
 383 410 347 435 296 435 c 0
 203 435 165 378 130 251 c 0
502 489 m 1
 452 246 l 2
 443 199 400 50 389 -25 c 0
 386 -46 384 -65 384 -83 c 0
 384 -118 390 -150 402 -182 c 1
 326 -207 l 1
 311 -168 304 -123 304 -81 c 0
 304 -62 305 -44 308 -27 c 0
 322 51 345 97 350 128 c 1
 322 87 272 -4 168 -4 c 0
 92 -4 43 68 43 167 c 0
 43 192 47 219 53 246 c 0
 94 421 159 505 306 505 c 0
 368 505 399 485 422 469 c 1
 424 480 426 491 427 501 c 1
 502 489 l 1
EndSplineSet
EndChar
StartChar: r
Encoding: 114 114 17
Width: 517
VWidth: 1
Flags: HW
HStem: 0 10G<66 144> 422 78<336 417>
VStem: 140 74<313 435> 418 78<353 419>
LayerCount: 2
Fore
SplineSet
206 357 m 1
 278 466 335 500 411 500 c 0
 464 500 496 470 496 417 c 0
 496 399 493 378 489 356 c 0
 489 355 488 354 488 353 c 1
 412 353 l 1
 414 369 418 383 418 395 c 0
 418 412 410 422 384 422 c 0
 335 422 256 327 186 218 c 1
 142 0 l 1
 66 0 l 1
 139 373 l 2
 140 377 140 382 140 386 c 0
 140 409 127 432 97 455 c 1
 156 521 l 1
 178 500 214 464 214 410 c 0
 214 402 207 365 206 357 c 1
EndSplineSet
EndChar
StartChar: s
Encoding: 115 115 18
Width: 517
VWidth: 2
Flags: HW
HStem: -10 70<147 307> 431 72<232 436>
VStem: 35 78<92 160> 130 82<339 411> 349 84<101 182>
LayerCount: 2
Fore
SplineSet
179 280 m 0
 147 303 130 334 130 369 c 0
 130 377 131 386 133 395 c 0
 149 467 210 503 312 503 c 0
 378 503 432 495 480 475 c 1
 452 402 l 1
 418 420 367 431 306 431 c 0
 243 431 212 401 212 374 c 0
 212 363 217 354 226 346 c 0
 313 273 433 243 433 149 c 0
 433 141 432 133 431 125 c 0
 410 17 316 -10 207 -10 c 0
 112 -10 35 43 35 130 c 0
 35 140 36 150 38 161 c 1
 114 161 l 1
 113 155 113 149 113 144 c 0
 113 89 169 60 219 60 c 0
 279 60 339 84 349 138 c 0
 349 140 349 142 349 144 c 0
 349 191 248 230 179 280 c 0
EndSplineSet
EndChar
StartChar: t
Encoding: 116 116 19
Width: 517
VWidth: 0
Flags: HW
HStem: -3 76<205 359> 422 72<69 69 70 149 298 371>
VStem: 97 79<101 285>
LayerCount: 2
Fore
SplineSet
184 231 m 1
 181 212 l 2
 178 195 176 180 176 167 c 0
 176 99 216 73 277 73 c 0
 351 73 386 110 405 144 c 1
 464 98 l 1
 442 57 384 -3 264 -3 c 0
 170 -3 97 48 97 155 c 0
 97 172 99 190 103 210 c 2
 106 231 l 1
 118 282 128 328 149 422 c 1
 110 422 l 2
 96 422 82 420 69 417 c 1
 60 488 l 1
 73 492 109 494 125 494 c 2
 164 494 l 1
 171 528 179 574 186 608 c 1
 263 608 l 1
 257 576 248 530 241 497 c 1
 300 497 l 1
 371 497 446 498 446 498 c 1
 455 498 l 1
 441 426 l 1
 287 426 l 2
 265 426 250 424 228 424 c 1
 204 324 195 280 184 231 c 1
EndSplineSet
EndChar
StartChar: u
Encoding: 117 117 20
Width: 517
VWidth: 2
Flags: HW
HStem: 0 76<126 220> 489 10G<132 191 408 480>
VStem: 39 82<80 226> 111 80<372 486> 342 71<42 142>
LayerCount: 2
Fore
SplineSet
395 -5 m 1xe8
 376 11 342 27 342 89 c 0
 342 105 344 124 349 146 c 1
 302 60 233 0 159 0 c 1
 96 0 39 43 39 110 c 0xe8
 39 118 40 126 41 134 c 1
 63 257 111 424 111 477 c 0
 111 480 111 483 111 485 c 1
 191 499 l 1
 191 498 191 495 191 494 c 0xd8
 191 446 156 325 123 149 c 1
 122 140 120 132 120 124 c 0
 120 97 130 76 163 76 c 1
 244 76 330 223 376 337 c 1
 410 502 l 1
 487 491 l 1
 414 117 l 1
 414 113 413 109 413 106 c 0
 413 78 431 66 446 52 c 1
 395 -5 l 1xe8
EndSplineSet
EndChar
StartChar: v
Encoding: 118 118 21
Width: 517
VWidth: 2
Flags: HW
HStem: -1 10G<143 168> 502 10G<120 147>
VStem: 145 75<94 240> 426 77<384 494>
LayerCount: 2
Fore
SplineSet
134 512 m 1
 161 475 166 462 171 425 c 0
 181 366 219 166 219 103 c 0
 219 100 219 96 219 94 c 1
 317 186 417 335 426 494 c 1
 502 496 l 1
 502 323 376 141 270 35 c 0
 235 0 194 -1 142 -1 c 1
 143 7 145 18 145 32 c 0
 145 130 108 344 94 410 c 0
 92 420 75 453 65 465 c 1
 134 512 l 1
EndSplineSet
EndChar
StartChar: w
Encoding: 119 119 22
Width: 517
Flags: HW
HStem: -10 16G<98 145 321 360> 499 10G<94 141 462 503>
VStem: 77 76<140 495> 257 66<74 162 170 387> 444 75<249 473>
LayerCount: 2
Fore
SplineSet
60 491 m 1
 137 509 l 1
 146 484 153 447 153 388 c 0
 153 270 145 177 124 94 c 1
 173 139 215 191 254 266 c 1
 256 280 257 297 257 316 c 0
 257 340 255 366 253 388 c 1
 316 389 l 1
 321 328 324 265 324 205 c 0
 324 157 322 112 319 72 c 1
 365 128 444 216 444 379 c 0
 444 416 430 460 416 486 c 1
 491 512 l 1
 515 464 519 414 519 380 c 0
 519 192 396 63 323 -4 c 1
 318 -4 252 3 247 3 c 1
 255 52 261 82 261 162 c 1
 232 119 186 73 104 -10 c 1
 92 -6 56 8 42 9 c 1
 55 78 77 250 77 360 c 0
 77 402 70 463 60 491 c 1
EndSplineSet
EndChar
StartChar: x
Encoding: 120 120 23
Width: 517
VWidth: 1
Flags: HW
HStem: -9 10G<43 57> 1 75<386 428> 508 10G<147 189 418 500>
LayerCount: 2
Fore
SplineSet
465 421 m 0xa0
 432 379 358 290 309 238 c 1
 337 188 383 87 391 81 c 0
 392 80 400 76 417 76 c 0
 426 76 434 78 442 79 c 1
 428 4 l 1
 418 3 407 1 397 1 c 0x60
 377 1 359 7 342 21 c 1
 311 44 279 127 249 185 c 1
 157 90 62 0 53 -9 c 1
 -3 48 l 1
 2 53 118 162 212 254 c 1
 182 312 142 396 94 481 c 1
 167 518 l 1
 211 435 241 366 270 309 c 1
 313 351 348 394 394 454 c 0
 407 471 415 490 418 498 c 1
 503 498 l 1
 495 474 486 446 465 421 c 0xa0
EndSplineSet
EndChar
StartChar: y
Encoding: 121 121 24
Width: 517
VWidth: 6
Flags: HW
HStem: -184 75<34 134> 421 81<62 113> 499 10G<422 474>
LayerCount: 2
Fore
SplineSet
-1 -54 m 1xa0
 11 -69 50 -109 86 -109 c 0
 133 -109 176 -42 201 0 c 1
 187 147 146 413 87 421 c 1
 85 421 84 421 82 421 c 3
 72 421 62 417 62 417 c 1
 56 500 l 1
 72 502 84 502 94 502 c 0xc0
 107 502 116 501 128 498 c 0
 206 478 252 233 268 89 c 1
 325 198 404 398 439 509 c 1
 513 488 l 1
 471 364 390 143 292 -13 c 0
 216 -134 156 -184 78 -184 c 1
 17 -184 -32 -135 -52 -111 c 1
 -1 -54 l 1xa0
EndSplineSet
EndChar
StartChar: z
Encoding: 122 122 25
Width: 517
VWidth: 2
Flags: HW
HStem: -2 76<222 363> 30 75<153 246> 421 77<151 419>
VStem: 387 74<97 134>
LayerCount: 2
Fore
SplineSet
141 391 m 1x70
 95 452 l 1
 146 495 191 498 241 498 c 0
 270 498 353 498 387 498 c 0
 411 498 463 499 493 503 c 1
 525 433 l 1
 436 332 371 282 282 211 c 0
 244 181 203 147 153 105 c 1x70
 224 105 265 73 307 73 c 0
 356 73 382 106 387 146 c 1
 461 133 l 1
 453 71 409 -2 313 -2 c 1xb0
 243 -2 209 30 140 30 c 0
 89 30 67 10 29 -17 c 1
 -16 46 l 1
 109 166 190 229 264 289 c 0
 316 331 363 369 419 423 c 1
 406 422 393 422 379 422 c 0
 332 422 281 421 235 421 c 0
 205 421 171 419 141 391 c 1x70
EndSplineSet
EndChar
StartChar: braceleft
Encoding: 123 123 160
Width: 517
VWidth: 32
Flags: HW
HStem: -128 77<282 373> 647 77<409 526>
VStem: 186 84<-37 57> 256 78<107 221> 300 82<461 470 472 621> 311 77<398 556 558 561>
LayerCount: 2
Fore
SplineSet
152 259 m 1xd0
 167 337 l 1
 229 354 296 374 309 439 c 0
 310 446 311 452 311 460 c 0xc4
 311 469 310 479 309 490 c 1
 305 513 300 537 300 562 c 0
 300 572 300 581 302 591 c 0
 307 615 319 640 343 663 c 0
 399 716 473 722 538 725 c 1
 526 647 l 1
 455 644 395 644 384 587 c 0
 382 577 382 568 382 558 c 0xc8
 382 530 388 502 388 471 c 0xc4
 388 460 387 448 385 436 c 0
 371 363 311 309 262 298 c 1
 301 288 334 248 334 190 c 0xd0
 334 180 333 170 331 160 c 0
 320 104 281 58 271 9 c 0
 270 4 270 0 270 -4 c 0
 270 -48 326 -48 390 -51 c 1
 373 -128 l 1
 309 -125 236 -120 201 -67 c 0
 190 -51 186 -35 186 -18 c 0xe0
 186 -11 187 -3 188 4 c 0
 195 39 216 74 234 106 c 1
 245 126 251 142 254 157 c 0
 255 163 256 169 256 174 c 0
 256 226 202 244 152 259 c 1xd0
EndSplineSet
EndChar
StartChar: bar
Encoding: 124 124 161
Width: 517
VWidth: 32
Flags: HW
VStem: 133 236
LayerCount: 2
Fore
SplineSet
168 74 m 0
 203 252 255 542 282 683 c 2
 291 729 l 1
 369 729 l 1
 355 658 l 2
 329 523 287 272 255 109 c 2
 240 36 l 2
 229 -20 224 -48 212 -97 c 1
 133 -96 l 1
 141 -66 146 -45 151 -18 c 0
 155 5 160 32 168 74 c 0
EndSplineSet
EndChar
StartChar: braceright
Encoding: 125 125 162
Width: 517
VWidth: 32
Flags: HW
HStem: -128 77<25 141> 647 77<178 269>
VStem: 163 77<34 38 40 198> 169 82<-25 123 125 135> 217 78<375 489> 280 84<539 634>
LayerCount: 2
Fore
SplineSet
383 259 m 1xc8
 321 242 254 222 241 157 c 0
 240 150 239 143 239 135 c 0xe0
 239 126 241 117 242 106 c 1
 246 83 250 58 250 33 c 0
 250 23 250 14 248 4 c 0
 243 -20 231 -44 207 -67 c 0
 151 -120 77 -125 12 -128 c 1
 25 -51 l 1
 96 -48 155 -48 166 9 c 0
 168 19 169 29 169 39 c 0xd0
 169 67 163 94 163 124 c 0xe0
 163 135 164 148 166 160 c 0
 180 233 240 287 289 298 c 1
 250 308 217 348 217 406 c 0xc8
 217 416 218 426 220 436 c 0
 231 492 269 538 279 587 c 0
 280 592 280 596 280 600 c 0
 280 644 225 644 161 647 c 1
 178 725 l 1
 242 722 314 716 349 663 c 0
 360 647 364 630 364 613 c 0xc4
 364 606 363 598 362 591 c 0
 355 556 334 522 316 490 c 1
 305 470 299 454 296 439 c 0
 295 433 294 427 294 422 c 0
 294 370 348 352 398 337 c 1
 383 259 l 1xc8
EndSplineSet
EndChar
StartChar: tilde
Encoding: 126 126 120
Width: 517
VWidth: -5
Flags: HW
HStem: 204 75<320 404> 299 75<143 237>
LayerCount: 2
Fore
SplineSet
218 374 m 0
 306 374 304 278 356 278 c 0
 398 278 445 339 458 371 c 1
 522 341 l 1
 502 298 451 204 339 204 c 0
 260 204 253 299 198 299 c 0
 157 299 104 251 72 209 c 1
 18 253 l 1
 65 319 117 374 218 374 c 0
EndSplineSet
EndChar
StartChar: cent
Encoding: 162 162 155
Width: 517
VWidth: 2
Flags: HW
HStem: -4 10G<168 248> 352 153<268 331>
VStem: 74 83<156 295>
LayerCount: 2
Fore
SplineSet
237 139 m 0
 238 139 l 0
 283 139 323 155 339 173 c 1
 346 181 l 1
 405 140 l 1
 398 132 l 1
 365 94 314 72 260 66 c 1
 247 -4 l 1
 168 -4 l 1
 183 68 l 1
 162 72 138 80 119 95 c 0
 87 120 74 150 74 190 c 0
 74 205 76 221 79 239 c 2
 80 245 l 2
 92 305 119 345 143 368 c 0
 176 399 214 415 251 422 c 1
 268 504 l 1
 347 504 l 1
 331 423 l 1
 387 415 413 383 420 339 c 1
 338 312 l 1
 338 323 l 1
 338 349 321 352 282 352 c 0
 252 352 219 343 197 321 c 0
 186 310 169 291 161 251 c 0
 159 239 157 228 157 217 c 0
 157 171 179 138 229 138 c 0
 232 138 234 139 237 139 c 0
EndSplineSet
EndChar
StartChar: sterling
Encoding: 163 163 154
Width: 517
VWidth: 0
Flags: HW
HStem: -6 74<50 130 265 390> 335 74<127 190 268 449> 585 75<300 396>
VStem: 8 76<68 130> 190 77<164 333 410 549> 394 74<72 112> 406 76<546 577>
LayerCount: 2
Fore
SplineSet
131 91 m 1xf8
 118 106 113 124 103 131 c 1
 98 128 88 113 85 98 c 0
 85 97 85 96 85 95 c 0
 85 91 84 87 84 84 c 0
 84 72 89 68 95 68 c 0
 106 68 121 81 131 91 c 1xf8
449 337 m 1
 412 333 372 333 324 333 c 2
 267 333 l 1
 267 288 267 242 257 188 c 0
 252 163 243 135 233 112 c 1
 273 82 296 67 339 67 c 0
 384 67 388 75 394 104 c 0
 394 106 395 110 395 112 c 1
 471 113 l 1
 467 93 l 1xfc
 452 27 406 -8 337 -8 c 0
 279 -8 234 12 188 46 c 1
 158 14 112 -6 70 -6 c 0
 29 -6 8 25 8 67 c 0
 8 75 9 85 11 94 c 0
 21 143 43 180 82 201 c 0
 91 205 101 207 108 207 c 0
 109 207 111 207 112 207 c 0
 141 207 161 180 174 163 c 1
 177 173 179 183 181 194 c 0
 189 237 190 274 190 312 c 0
 190 320 190 326 190 334 c 1
 165 335 143 335 121 335 c 2
 113 335 l 1
 127 410 l 1
 190 410 l 1
 190 445 192 477 198 509 c 0
 218 609 282 660 374 660 c 0
 446 660 479 608 482 546 c 1
 406 525 l 1xfa
 404 555 399 584 359 585 c 0
 358 585 357 585 356 585 c 0
 299 585 281 545 275 513 c 0
 270 487 269 439 268 407 c 1
 340 409 l 1
 349 409 359 409 368 409 c 0
 404 409 436 409 464 412 c 1
 449 337 l 1
EndSplineSet
EndChar
StartChar: currency
Encoding: 164 164 153
Width: 517
VWidth: 2
Flags: HW
HStem: 48 77<197 298>
VStem: 106 82<140 283> 352 81<196 345>
LayerCount: 2
Fore
SplineSet
348 255 m 0
 350 268 352 279 352 290 c 0
 352 332 333 360 301 363 c 1
 293 362 l 1
 241 357 209 306 193 226 c 0
 190 210 188 196 188 184 c 0
 188 144 205 125 246 125 c 0
 299 125 333 180 348 255 c 0
112 225 m 2
 113 229 l 2
 121 272 138 310 156 340 c 1
 102 415 l 1
 170 466 l 1
 215 404 l 1
 243 428 271 439 306 440 c 1
 314 440 l 2
 355 440 377 430 398 407 c 1
 464 462 l 1
 510 414 l 1
 429 340 l 1
 432 327 433 315 433 302 c 0
 433 286 431 271 428 254 c 1
 417 204 403 172 380 139 c 1
 437 63 l 1
 369 11 l 1
 321 78 l 1
 293 59 261 48 229 48 c 0
 188 48 165 62 145 82 c 1
 72 21 l 1
 29 69 l 1
 109 146 l 1
 107 156 106 165 106 174 c 0
 106 191 109 207 112 225 c 2
EndSplineSet
EndChar
StartChar: yen
Encoding: 165 165 150
Width: 517
VWidth: 0
Flags: HW
HStem: -3 10G<158 238> 183 77<52 196 290 449> 333 78<78 176 312 321 394 482>
VStem: 101 75<596 630>
LayerCount: 2
Fore
SplineSet
196 183 m 1
 178 183 160 183 141 183 c 0
 108 183 75 182 37 180 c 1
 52 259 l 1
 60 259 l 1
 121 261 166 263 213 263 c 1
 220 299 l 1
 216 306 212 316 207 328 c 1
 169 328 123 332 67 335 c 1
 74 366 l 2
 77 382 79 397 83 412 c 1
 116 410 150 409 176 408 c 1
 145 491 111 592 101 626 c 1
 176 662 l 1
 186 628 235 487 266 407 c 1
 302 407 l 1
 369 488 475 630 498 668 c 1
 558 629 l 1
 526 582 476 510 409 427 c 0
 404 421 399 416 394 410 c 1
 422 411 452 411 489 411 c 2
 498 411 l 1
 482 333 l 1
 474 333 l 2
 416 333 374 331 327 330 c 1
 312 313 302 299 297 294 c 1
 295 283 292 273 290 262 c 1
 347 261 397 260 457 259 c 1
 465 259 l 1
 449 180 l 1
 440 180 l 1
 381 181 330 183 273 183 c 1
 262 129 252 79 249 62 c 2
 236 -3 l 1
 158 -3 l 1
 172 70 l 2
 177 94 186 138 196 183 c 1
EndSplineSet
EndChar
StartChar: brokenbar
Encoding: 166 166 164
Width: 517
VWidth: 32
Flags: HW
VStem: 135 79<-95 0>
LayerCount: 2
Fore
SplineSet
284 258 m 1
 274 204 258 119 250 76 c 0
 231 -22 229 -32 213 -95 c 1
 135 -95 l 1
 144 -59 147 -44 153 -14 c 2
 167 58 l 2
 176 106 193 197 204 258 c 1
 284 258 l 1
227 378 m 1
 250 508 267 605 282 683 c 2
 291 729 l 1
 369 729 l 1
 357 667 l 2
 343 594 328 500 306 378 c 1
 227 378 l 1
EndSplineSet
EndChar
StartChar: section
Encoding: 167 167 159
Width: 517
VWidth: 1
Flags: HW
HStem: -157 76<144 264> -24 10G<57 133> 592 76<257 374>
VStem: 54 78<-65 -15> 81 78<271 343> 139 77<440 554> 304 81<-43 68> 361 81<191 240> 388 75<528 579>
LayerCount: 2
Fore
SplineSet
325 156 m 1xe9
 350 166 356 174 359 191 c 2
 361 200 l 1
 361 201 361 201 361 202 c 0
 361 211 358 222 349 232 c 0
 308 277 249 313 200 353 c 1
 168 341 164 332 160 311 c 0
 160 310 159 308 159 307 c 0
 159 298 164 287 173 278 c 0
 214 233 276 195 325 156 c 1xe9
142 508 m 0
 163 614 259 668 334 668 c 0
 408 668 463 631 463 558 c 0
 463 549 462 539 460 528 c 1
 386 527 l 1
 387 534 388 540 388 545 c 0xe480
 388 561 383 568 373 578 c 1
 362 588 345 592 320 592 c 1
 277 591 228 562 219 515 c 0
 217 504 216 495 216 487 c 0
 216 451 238 439 282 404 c 0
 321 373 374 341 413 290 c 1
 430 270 442 244 442 216 c 0xe5
 442 210 441 204 440 198 c 0
 430 147 408 120 372 97 c 1
 380 80 385 60 385 37 c 0
 385 26 384 15 382 3 c 0
 382 2 381 0 381 -1 c 0
 360 -108 261 -157 185 -157 c 0
 109 -157 54 -120 54 -45 c 0
 54 -36 55 -26 57 -15 c 1
 133 -15 l 1
 133 -20 132 -24 132 -28 c 0xf2
 132 -48 136 -56 147 -66 c 0
 157 -75 175 -82 199 -82 c 1
 244 -81 292 -54 302 -4 c 0
 303 4 304 12 304 22 c 0
 304 23 304 26 304 27 c 0
 303 49 278 77 238 107 c 1
 197 137 145 170 105 220 c 1
 90 241 81 265 81 291 c 0xea
 81 298 82 305 83 313 c 0
 93 364 118 388 153 411 c 1
 144 429 139 453 139 478 c 0xe4
 139 488 140 498 142 508 c 0
EndSplineSet
EndChar
StartChar: dieresis
Encoding: 168 168 173
Width: 517
VWidth: -13
Flags: HW
HStem: 532 110<156 249 354 447>
LayerCount: 2
Fore
SplineSet
156 642 m 1
 271 641 l 1
 249 531 l 1
 135 532 l 1
 156 642 l 1
354 641 m 1
 468 639 l 1
 447 529 l 1
 333 531 l 1
 354 641 l 1
EndSplineSet
EndChar
StartChar: copyright
Encoding: 169 169 165
Width: 517
VWidth: 2
Flags: HW
HStem: 19 68<161 343> 146 67<231 328> 364 67<256 367> 492 68<236 410>
VStem: 22 70<159 342> 155 71<215 334> 474 70<225 428>
LayerCount: 2
Fore
SplineSet
92 248 m 0
 92 156 146 87 246 87 c 0
 358 87 474 170 474 333 c 0
 474 435 423 492 324 492 c 0
 212 492 92 386 92 248 c 0
335 560 m 0
 465 560 544 476 544 344 c 0
 544 123 381 19 230 19 c 0
 106 19 22 111 22 234 c 0
 22 437 184 560 335 560 c 0
303 364 m 0
 262 364 227 321 227 267 c 0
 227 231 229 212 273 212 c 1
 300 212 319 218 338 246 c 1
 392 213 l 1
 347 153 290 146 259 146 c 0
 197 146 155 188 155 247 c 0
 155 367 233 431 317 431 c 0
 352 431 403 412 415 367 c 1
 353 333 l 1
 344 356 333 364 303 364 c 0
EndSplineSet
EndChar
StartChar: ordfeminine
Encoding: 170 170 193
Width: 517
VWidth: 2
Flags: HW
HStem: 261 69<97 453> 367 66<206 310> 681 69<259 389>
VStem: 128 69<440 589>
LayerCount: 2
Back
SplineSet
177.734375 707.51953125 m 5
 231.4453125 737.79296875 289.0625 750.48828125 345.21484375 750.48828125 c 5
 452.1484375 750.48828125 492.1875 680.6640625 472.16796875 576.66015625 c 4
 462.890625 526.3671875 l 4
 459.47265625 509.27734375 451.66015625 466.30859375 456.54296875 458.0078125 c 4
 461.42578125 449.21875 474.609375 433.10546875 487.79296875 424.31640625 c 5
 436.03515625 366.2109375 l 5
 415.52734375 380.859375 401.3671875 399.90234375 391.6015625 435.546875 c 5
 350.5859375 395.99609375 295.41015625 368.1640625 222.16796875 368.1640625 c 4
 152.83203125 368.1640625 112.79296875 411.1328125 125.48828125 476.5625 c 4
 143.5546875 568.359375 228.515625 607.421875 302.24609375 607.421875 c 4
 348.14453125 607.421875 388.671875 595.703125 403.80859375 582.51953125 c 5
 414.55078125 638.671875 403.80859375 681.15234375 332.51953125 681.15234375 c 4
 274.4140625 681.15234375 241.2109375 674.31640625 201.171875 648.92578125 c 5
 177.734375 707.51953125 l 5
EndSplineSet
Fore
SplineSet
245 433 m 0
 315 433 392 516 407 591 c 1
 414 629 l 1
 402 650 374 681 330 681 c 0
 262 681 235 658 206 546 c 0
 202 528 198 508 198 490 c 0
 198 458 209 433 245 433 c 0
505 739 m 1
 464 531 l 2
 460 509 459 492 459 476 c 0
 459 451 468 440 485 424 c 1
 433 366 l 1
 413 384 401 403 393 437 c 1
 393 437 324 367 240 367 c 0
 153 367 128 414 128 477 c 0
 128 503 132 533 140 562 c 0
 174 687 220 750 333 750 c 0
 374 750 410 733 427 714 c 1
 429 725 432 738 433 748 c 1
 505 739 l 1
97 330 m 1
 466 330 l 1
 453 261 l 1
 83 261 l 1
 97 330 l 1
EndSplineSet
EndChar
StartChar: guillemotleft
Encoding: 171 171 157
Width: 517
VWidth: 2
Flags: HW
VStem: 158 77<48 101> 315 78<52 118>
LayerCount: 2
Fore
SplineSet
224 281 m 1
 304 330 379 413 411 478 c 1
 476 441 l 1
 439 372 381 301 306 244 c 1
 355 192 386 137 393 62 c 1
 395 53 l 1
 315 31 l 1
 307 111 277 168 211 220 c 1
 224 281 l 1
53 280 m 1
 136 343 228 409 252 477 c 1
 320 450 l 1
 282 358 204 298 133 245 c 1
 184 187 229 134 235 50 c 1
 158 27 l 1
 154 100 106 155 42 224 c 1
 53 280 l 1
EndSplineSet
EndChar
StartChar: logicalnot
Encoding: 172 172 194
Width: 517
VWidth: 2
Flags: HW
HStem: 219 74<91 374>
LayerCount: 2
Fore
SplineSet
91 289 m 1
 158 292 213 293 263 293 c 0
 283 293 302 293 321 293 c 0
 361 293 402 292 454 292 c 1
 463 292 l 1
 450 223 436 154 423 85 c 1
 348 85 l 1
 374 217 l 1
 309 218 308 219 247 219 c 0
 214 219 155 218 80 214 c 1
 88 255 l 1
 91 289 l 1
EndSplineSet
EndChar
StartChar: registered
Encoding: 174 174 166
Width: 517
VWidth: 2
Flags: HW
HStem: 19 68<161 343> 377 61<250 351> 492 68<236 410>
VStem: 22 70<159 342> 352 60<309 375> 474 70<225 428>
LayerCount: 2
Fore
SplineSet
319 253 m 1
 327 227 366 175 384 171 c 1
 348 130 l 1
 306 146 268 222 262 247 c 1
 247 249 229 256 229 256 c 1
 206 138 l 1
 150 138 l 1
 193 359 l 2
 198 385 201 404 204 428 c 1
 245 434 281 438 311 438 c 0
 374 438 412 412 412 357 c 0
 412 299 372 262 319 253 c 1
352 346 m 0
 352 373 338 377 300 377 c 0
 287 377 271 377 251 374 c 1
 240 315 l 1
 261 305 279 300 294 300 c 0
 334 300 352 322 352 346 c 0
92 248 m 0
 92 156 146 87 246 87 c 0
 358 87 474 170 474 333 c 0
 474 435 423 492 324 492 c 0
 212 492 92 386 92 248 c 0
335 560 m 0
 465 560 544 476 544 344 c 0
 544 123 381 19 230 19 c 0
 106 19 22 111 22 234 c 0
 22 437 184 560 335 560 c 0
EndSplineSet
EndChar
StartChar: macron
Encoding: 175 175 176
Width: 517
VWidth: -16
Flags: HW
HStem: 577 75<201 409>
VStem: 187 236
LayerCount: 2
Fore
SplineSet
202 654 m 1
 219 652 240 652 262 652 c 0
 284 652 310 652 335 652 c 0
 364 652 394 652 423 652 c 1
 409 578 l 1
 400 578 l 1
 372 577 338 577 302 577 c 0
 289 577 275 577 262 577 c 0
 236 577 210 578 187 579 c 1
 202 654 l 1
EndSplineSet
EndChar
StartChar: degree
Encoding: 176 176 175
Width: 517
VWidth: -12
Flags: HW
HStem: 409 73<242 325> 588 73<254 337>
VStem: 161 75<487 570> 343 75<501 583>
LayerCount: 2
Fore
SplineSet
164 535 m 0
 178 604 245 661 314 661 c 0
 375 661 418 617 418 559 c 0
 418 551 417 543 416 535 c 0
 402 466 334 409 265 409 c 0
 204 409 161 453 161 511 c 0
 161 519 163 527 164 535 c 0
237 535 m 0
 237 532 236 528 236 525 c 0
 236 501 253 482 279 482 c 0
 308 482 336 506 342 535 c 0
 342 538 343 542 343 545 c 0
 343 569 326 588 300 588 c 0
 271 588 243 564 237 535 c 0
EndSplineSet
EndChar
StartChar: plusminus
Encoding: 177 177 145
Width: 517
VWidth: -2
Flags: HW
HStem: 91 73<39 207 281 444> 327 73<82 234 326 488>
LayerCount: 2
Fore
SplineSet
82 401 m 1
 165 396 200 396 249 396 c 1
 284 572 l 1
 362 572 l 1
 326 396 l 1
 402 397 402 400 494 400 c 2
 502 400 l 1
 488 327 l 1
 480 327 l 2
 389 327 390 323 312 321 c 1
 311 316 l 2
 301 264 289 211 281 167 c 1
 361 166 367 165 448 164 c 1
 457 163 l 1
 442 90 l 1
 434 90 l 1
 332 91 297 94 189 94 c 0
 125 94 112 93 33 91 c 1
 24 91 l 1
 39 164 l 1
 47 164 l 1
 126 166 144 168 203 168 c 1
 212 213 223 265 233 317 c 2
 234 322 l 1
 182 322 153 323 67 328 c 1
 82 401 l 1
EndSplineSet
EndChar
StartChar: uni00B2
Encoding: 178 178 196
Width: 517
VWidth: 31
Flags: HW
HStem: 375 69<249 439> 676 69<292 411>
VStem: 415 71<598 670>
LayerCount: 2
Fore
SplineSet
204 642 m 1
 230 715 289 746 370 746 c 0
 434 746 486 713 486 643 c 0
 486 585 458 557 333 497 c 0
 294 478 261 463 249 445 c 1
 454 447 l 1
 439 375 l 1
 147 375 l 1
 149 391 153 406 156 422 c 0
 160 444 165 459 183 480 c 0
 205 507 266 533 311 554 c 0
 402 595 415 608 415 639 c 0
 415 662 396 676 358 676 c 0
 315 676 285 660 272 625 c 1
 204 642 l 1
EndSplineSet
EndChar
StartChar: uni00B3
Encoding: 179 179 197
Width: 517
VWidth: 31
Flags: HW
HStem: 369 68<229 371> 540 55<311 378> 657 10G<267 282> 681 66<277 399>
VStem: 387 73<455 528> 401 66<609 676>
LayerCount: 2
Fore
SplineSet
208 482 m 1xf8
 230 451 253 437 298 437 c 0
 363 437 387 467 387 495 c 0xf8
 387 525 356 540 298 540 c 1
 312 596 l 1
 319 596 327 595 332 595 c 0
 372 595 401 615 401 650 c 0
 401 668 383 681 348 681 c 0
 316 681 291 672 273 657 c 1
 237 713 l 1
 267 734 302 747 356 747 c 2
 362 747 l 2
 428 747 467 707 467 658 c 0xf4
 467 614 450 596 421 575 c 1
 448 559 460 541 460 495 c 0
 460 427 394 369 285 369 c 0
 228 369 179 387 146 433 c 1
 208 482 l 1xf8
EndSplineSet
EndChar
StartChar: acute
Encoding: 180 180 174
Width: 517
VWidth: -20
Flags: HW
HStem: 587 73<229 252>
VStem: 201 299
LayerCount: 2
Fore
SplineSet
201 661 m 1
 272 682 385 761 443 812 c 1
 500 739 l 1
 444 686 302 608 231 587 c 1
 201 661 l 1
EndSplineSet
EndChar
StartChar: uni00B5
Encoding: 181 181 169
Width: 517
VWidth: 2
Flags: HW
HStem: 0 76<125 220> 489 10G<132 191 408 480>
VStem: 111 80<372 486> 342 71<42 142>
LayerCount: 2
Fore
SplineSet
395 -5 m 1
 376 11 342 27 342 89 c 0
 342 105 344 124 349 146 c 1
 302 60 233 0 159 0 c 0
 136 0 114 6 95 16 c 1
 51 -195 l 1
 -25 -195 l 1
 36 104 l 1
 40 127 41 134 41 134 c 2
 63 257 111 424 111 477 c 0
 111 480 111 483 111 485 c 1
 191 499 l 1
 191 498 191 495 191 494 c 0
 191 446 156 325 123 149 c 0
 122 140 120 132 120 124 c 0
 120 97 130 76 163 76 c 0
 244 76 330 223 376 337 c 1
 410 502 l 1
 487 491 l 1
 414 117 l 2
 414 113 413 109 413 106 c 0
 413 78 431 66 446 52 c 1
 395 -5 l 1
EndSplineSet
EndChar
StartChar: paragraph
Encoding: 182 182 170
Width: 517
VWidth: 0
Flags: HW
HStem: -15 10G<218 245 348 406> 571 78<377 443>
LayerCount: 2
Fore
SplineSet
431 508 m 2
 443 571 l 1
 423 571 404 573 378 573 c 1
 347 412 316 250 286 90 c 1
 273 22 245 -15 245 -15 c 1
 174 11 l 1
 174 11 200 42 214 112 c 1
 236 231 l 1
 155 237 103 257 75 313 c 0
 65 334 61 358 61 381 c 0
 61 404 65 428 69 451 c 0
 78 496 95 541 128 573 c 0
 197 642 282 648 392 648 c 0
 457 648 475 645 533 645 c 1
 406 -4 l 1
 332 -5 l 1
 364 159 389 291 431 508 c 2
EndSplineSet
EndChar
StartChar: cedilla
Encoding: 184 184 198
Width: 517
VWidth: 5
Flags: HW
HStem: -175 61<152 258> -58 83<203 262>
VStem: 261 67<-108 -61>
LayerCount: 2
Fore
SplineSet
274 27 m 1
 273 23 267 -8 267 -9 c 1
 307 -11 329 -33 329 -71 c 0
 329 -78 327 -85 326 -93 c 0
 316 -142 261 -175 220 -175 c 0
 188 -175 155 -163 131 -145 c 1
 160 -93 l 1
 175 -102 192 -114 217 -114 c 0
 235 -114 256 -104 261 -85 c 1
 261 -84 l 2
 261 -83 262 -82 262 -81 c 0
 262 -68 246 -58 225 -58 c 0
 202 -58 200 -61 185 -66 c 1
 203 25 l 1
 274 27 l 1
EndSplineSet
EndChar
StartChar: uni00B9
Encoding: 185 185 199
Width: 517
VWidth: 31
Flags: HW
HStem: 553 64<192 239>
VStem: 178 278
LayerCount: 2
Fore
SplineSet
375 746 m 1
 457 738 l 1
 386 375 l 1
 315 375 l 1
 369 647 l 1
 327 608 258 574 193 553 c 1
 178 618 l 1
 251 637 326 681 375 746 c 1
EndSplineSet
EndChar
StartChar: ordmasculine
Encoding: 186 186 200
Width: 517
VWidth: 2
Flags: HW
HStem: 261 69<97 453> 370 69<233 370> 676 69<275 417>
VStem: 145 71<455 612> 432 72<514 660>
LayerCount: 2
Fore
SplineSet
428 570 m 0
 430 584 432 596 432 607 c 0
 432 655 405 676 348 676 c 0
 288 676 237 643 221 563 c 0
 218 547 216 533 216 519 c 0
 216 463 237 439 294 439 c 1
 366 439 410 476 428 570 c 0
280 370 m 1
 197 370 145 418 145 500 c 0
 145 519 147 539 151 561 c 0
 177 693 254 745 345 745 c 0
 448 745 503 701 503 623 c 0
 503 609 502 593 499 577 c 0
 471 433 412 370 280 370 c 1
97 330 m 1
 466 330 l 1
 453 261 l 1
 83 261 l 1
 97 330 l 1
EndSplineSet
EndChar
StartChar: onequarter
Encoding: 188 188 201
Width: 517
VWidth: 0
Flags: HW
HStem: -78 66<192 283 366 415> 261 69<79 502> 553 64<192 239>
VStem: 111 318 178 278
LayerCount: 2
Fore
SplineSet
79 330 m 1xe0
 515 330 l 1
 502 261 l 1
 66 261 l 1
 79 330 l 1xe0
EndSplineSet
Refer: 971 8324 N 1 0 0 1 0 0 2
Refer: 199 185 N 1 0 0 1 0 0 2
EndChar
StartChar: onehalf
Encoding: 189 189 202
Width: 517
VWidth: 0
Flags: HW
HStem: -152 69<195 386> 149 69<238 357> 261 69<79 502> 553 64<192 239>
VStem: 178 278 361 71<70 143>
LayerCount: 2
Fore
SplineSet
79 330 m 1xf0
 515 330 l 1
 502 261 l 1
 66 261 l 1
 79 330 l 1xf0
EndSplineSet
Refer: 969 8322 N 1 0 0 1 0 0 2
Refer: 199 185 N 1 0 0 1 0 0 2
EndChar
StartChar: threequarters
Encoding: 190 190 203
Width: 517
VWidth: 0
Flags: HW
HStem: -78 66<192 283 366 415> 261 69<79 502> 369 68<229 371> 540 55<311 378> 657 10G<267 282> 681 66<277 399>
VStem: 111 318 387 73<455 528> 401 66<609 676>
LayerCount: 2
Fore
SplineSet
79 330 m 1xfc
 515 330 l 1
 502 261 l 1
 66 261 l 1
 79 330 l 1xfc
EndSplineSet
Refer: 971 8324 N 1 0 0 1 0 0 2
Refer: 197 179 N 1 0 0 1 0 0 2
EndChar
StartChar: Aring
Encoding: 197 197 76
Width: 517
VWidth: -3
Flags: HW
HStem: 0 10G<-16 64 389 473> 162 78<175 361> 743 61<325 403>
VStem: -16 79<0 56> 254 64<677 735> 404 65<682 740>
LayerCount: 2
Fore
SplineSet
361 242 m 1
 322 528 l 1
 173 232 l 1
 204 238 231 238 272 240 c 1
 361 242 l 1
319 709 m 0
 319 708 319 705 319 704 c 0
 319 688 333 674 355 674 c 0
 380 674 400 692 403 709 c 0
 403 711 404 712 404 714 c 0
 404 729 391 743 368 743 c 0
 343 743 322 726 319 709 c 0
256 708 m 0
 267 762 324 803 380 803 c 0
 430 803 469 770 469 725 c 0
 469 720 468 714 467 708 c 0
 459 667 426 634 385 620 c 1
 473 0 l 1
 391 0 l 1
 366 162 l 1
 297 161 189 159 132 146 c 1
 86 59 l 2
 78 45 65 14 63 0 c 1
 -16 0 l 1
 -13 14 5 57 15 78 c 2
 293 625 l 1
 269 639 254 662 254 691 c 0
 254 696 255 702 256 708 c 0
EndSplineSet
EndChar
StartChar: AE
Encoding: 198 198 82
Width: 517
VWidth: 0
Flags: HW
HStem: 0 72<291 470> 169 70<146 233> 325 73<325 457> 559 74<343 541>
LayerCount: 2
Fore
SplineSet
233 169 m 1
 154 167 115 157 115 157 c 1
 71 59 l 2
 65 44 49 14 47 0 c 1
 -32 0 l 1
 -29 14 -11 57 -1 78 c 2
 259 631 l 1
 289 632 344 632 391 632 c 0
 468 632 508 632 555 632 c 1
 541 559 l 1
 343 559 l 1
 325 398 l 1
 471 398 l 1
 457 325 l 1
 319 325 l 1
 291 72 l 1
 410 73 l 2
 437 73 470 85 470 85 c 1
 477 13 l 1
 453 7 434 -1 399 -1 c 0
 398 -1 397 -1 396 -1 c 2
 212 0 l 1
 233 169 l 1
242 239 m 1
 274 534 l 1
 146 232 l 1
 146 232 181 238 242 239 c 1
EndSplineSet
EndChar
StartChar: Ccedilla
Encoding: 199 199 83
Width: 517
VWidth: 2
Flags: HW
HStem: -189 61<119 225> -1 75<236 328> 562 75<276 418>
VStem: 40 78<128 349> 229 67<-122 -75>
LayerCount: 2
Fore
SplineSet
351 562 m 0
 217 562 140 374 127 305 c 0
 121 276 118 247 118 221 c 0
 118 176 129 137 153 109 c 0
 178 81 199 74 239 74 c 2
 246 74 l 1
 318 76 367 112 403 167 c 1
 464 130 l 1
 413 54 337 -1 244 -1 c 2
 242 -1 l 2
 241 -1 239 -1 238 -1 c 1
 236 -11 234 -22 234 -23 c 1
 274 -25 296 -47 296 -85 c 0
 296 -92 294 -99 293 -107 c 0
 283 -156 229 -189 188 -189 c 0
 156 -189 123 -177 99 -159 c 1
 127 -107 l 1
 142 -116 159 -128 184 -128 c 0
 202 -128 224 -119 229 -100 c 1
 229 -99 l 2
 229 -98 229 -96 229 -95 c 0
 229 -82 213 -72 192 -72 c 0
 169 -72 167 -76 152 -81 c 1
 169 7 l 1
 138 15 110 31 89 56 c 1
 57 97 40 148 40 211 c 0
 40 239 44 270 50 304 c 0
 74 428 128 505 161 542 c 0
 206 594 282 638 367 638 c 0
 435 638 497 600 525 522 c 1
 459 482 l 1
 440 541 393 562 351 562 c 0
EndSplineSet
EndChar
StartChar: multiply
Encoding: 215 215 128
Width: 517
VWidth: 2
Flags: HW
LayerCount: 2
Fore
SplineSet
204 258 m 1
 157 317 123 368 80 417 c 1
 135 474 l 1
 178 425 222 368 266 311 c 1
 369 394 451 461 461 470 c 1
 501 406 l 1
 490 397 410 330 311 248 c 1
 380 155 396 128 436 79 c 1
 373 34 l 1
 344 85 314 116 250 198 c 1
 162 125 90 60 63 36 c 1
 14 88 l 1
 50 123 121 189 204 258 c 1
EndSplineSet
EndChar
StartChar: Oslash
Encoding: 216 216 127
Width: 517
VWidth: 0
Flags: HW
HStem: -6 75<163 285> 573 75<249 369>
VStem: 21 79<140 338> 424 77<271 489>
LayerCount: 2
Fore
SplineSet
3 -28 m 1
 7 -22 26 6 39 27 c 0
 44 35 52 46 59 58 c 1
 58 60 56 61 55 63 c 0
 33 99 21 144 21 196 c 0
 21 222 23 250 29 279 c 0
 62 447 114 521 157 567 c 0
 198 611 258 646 335 647 c 0
 354 647 383 643 410 629 c 1
 430 663 447 692 459 713 c 1
 527 674 l 1
 511 647 491 613 468 575 c 1
 488 543 501 496 501 431 c 0
 501 396 498 356 489 310 c 2
 488 305 l 1
 472 225 437 149 405 104 c 0
 355 34 283 -6 202 -6 c 0
 173 -6 145 -2 120 9 c 1
 100 -22 84 -49 71 -69 c 1
 3 -28 l 1
109 139 m 1
 182 257 288 430 369 562 c 1
 356 569 341 573 324 573 c 0
 291 573 247 559 211 522 c 0
 169 479 132 409 107 281 c 0
 103 260 100 233 100 208 c 0
 100 183 103 159 109 139 c 1
417 490 m 1
 336 358 238 199 163 78 c 1
 178 72 195 68 217 68 c 0
 260 68 315 101 345 142 c 1
 370 173 401 254 412 306 c 2
 414 315 l 1
 420 347 424 385 424 421 c 0
 424 445 422 469 417 490 c 1
EndSplineSet
EndChar
StartChar: Thorn
Encoding: 222 222 204
Width: 517
VWidth: 0
Flags: HW
HStem: -5 10G<13 98> 225 74<150 370> 492 74<202 390> 624 10G<203 213>
VStem: 425 78<348 461>
LayerCount: 2
Fore
SplineSet
422 391 m 0
 423 399 425 406 425 413 c 0
 425 465 380 492 262 492 c 1
 232 492 210 490 188 490 c 1
 176 429 l 2
 158 340 150 299 150 299 c 1
 168 299 184 299 200 299 c 0
 340 299 406 309 422 391 c 0
90 -5 m 1
 13 -4 l 1
 137 632 l 1
 170 632 191 632 215 633 c 1
 202 565 l 1
 219 566 239 566 265 566 c 0
 375 566 442 559 485 492 c 0
 498 472 503 447 503 420 c 0
 503 405 501 389 498 373 c 0
 472 236 320 225 210 225 c 0
 187 225 162 225 136 226 c 1
 111 98 105 71 90 -5 c 1
EndSplineSet
EndChar
StartChar: germandbls
Encoding: 223 223 167
Width: 517
VWidth: 0
Flags: HW
HStem: -1 75<215 341> 327 75<185 312> 574 74<215 337>
VStem: 130 78<82 157> 354 78<441 556> 391 76<132 288>
LayerCount: 2
Fore
SplineSet
103 490 m 0xf8
 118 566 173 648 280 648 c 0
 357 648 432 613 432 530 c 0xf8
 432 423 401 410 364 380 c 1
 430 360 466 300 466 241 c 0
 466 85 388 -1 268 -1 c 0
 188 -1 130 35 130 111 c 0
 130 122 131 133 133 145 c 0
 134 149 135 153 136 157 c 1
 212 157 l 1
 210 143 208 131 208 121 c 0
 208 86 226 74 282 74 c 0
 354 74 391 149 391 229 c 0xf4
 391 322 296 327 170 327 c 1
 185 401 l 1
 268 401 354 405 354 511 c 0
 354 553 324 574 266 574 c 1
 219 574 185 529 177 485 c 0
 153 361 120 178 85 54 c 0
 74 14 51 -7 21 -21 c 1
 -21 38 l 1
 -10 43 4 55 8 68 c 0
 46 198 77 355 103 490 c 0xf8
EndSplineSet
EndChar
StartChar: ae
Encoding: 230 230 65
Width: 517
VWidth: 2
Flags: HW
HStem: -4 74<95 173 307 397> 265 70<143 210> 434 71<151 246 385 462>
VStem: 16 74<72 197> 470 71<319 427>
LayerCount: 2
Fore
SplineSet
71 437 m 1
 129 482 180 505 220 505 c 0
 284 505 301 471 313 424 c 1
 351 471 397 504 441 504 c 0
 529 504 542 433 542 379 c 0
 542 324 508 279 477 246 c 0
 433 201 362 173 292 168 c 1
 292 167 292 165 292 163 c 0
 292 128 301 71 339 71 c 0
 382 71 402 96 426 122 c 1
 476 69 l 1
 452 47 406 -4 323 -4 c 0
 276 -4 250 20 237 59 c 1
 214 27 181 -4 105 -4 c 0
 53 -4 16 35 16 118 c 0
 16 212 81 335 194 335 c 0
 219 335 245 310 247 302 c 1
 247 302 258 339 258 360 c 0
 258 406 246 434 207 434 c 0
 181 434 147 413 110 383 c 1
 71 437 l 1
90 119 m 0
 90 83 106 70 119 70 c 0
 203 70 220 185 227 210 c 1
 223 227 202 265 184 265 c 0
 133 265 90 168 90 119 c 0
299 242 m 1
 355 246 397 265 430 298 c 0
 451 320 470 345 470 378 c 0
 470 398 466 433 427 433 c 0
 387 433 323 365 299 242 c 1
EndSplineSet
EndChar
StartChar: ccedilla
Encoding: 231 231 81
Width: 517
VWidth: 5
Flags: HW
HStem: -199 61<115 221> -3 77<232 341> 422 75<214 383>
VStem: 38 81<111 304> 225 67<-132 -85>
LayerCount: 2
Fore
SplineSet
125 257 m 0
 120 231 118 209 118 190 c 0
 118 76 199 73 245 73 c 2
 251 73 l 2
 327 73 370 105 404 147 c 1
 457 103 l 1
 437 82 374 -3 238 -3 c 0
 236 -3 l 1
 234 -13 230 -32 230 -33 c 1
 270 -35 292 -57 292 -95 c 0
 292 -102 291 -109 290 -117 c 0
 280 -166 225 -199 184 -199 c 0
 152 -199 119 -187 95 -169 c 1
 124 -117 l 1
 139 -126 155 -138 180 -138 c 0
 198 -138 220 -128 225 -109 c 1
 225 -108 l 2
 225 -107 225 -106 225 -105 c 0
 225 -92 209 -82 188 -82 c 0
 165 -82 163 -85 148 -90 c 1
 166 1 l 1
 166 1 128 5 88 36 c 0
 50 66 38 112 38 167 c 0
 38 194 42 224 48 257 c 0
 83 436 181 497 335 497 c 0
 381 497 415 485 440 463 c 0
 465 440 475 410 481 385 c 1
 400 356 l 1
 399 376 393 422 315 422 c 0
 207 422 147 374 125 257 c 0
EndSplineSet
EndChar
StartChar: eth
Encoding: 240 240 205
Width: 517
VWidth: 2
Flags: HW
HStem: 0 76<153 289> 646 10G<409 451> 688 10G<291 315>
VStem: 39 80<113 301> 382 78<183 386>
LayerCount: 2
Fore
SplineSet
339 422 m 1
 172 422 118 307 118 193 c 0
 118 125 149 76 214 76 c 1
 325 77 382 182 382 302 c 0
 382 346 366 385 339 422 c 1
369 570 m 1
 421 467 460 386 460 319 c 0
 460 134 376 0 200 0 c 2
 199 0 l 1
 90 0 39 94 39 174 c 0
 39 298 102 484 303 497 c 1
 300 504 288 525 276 549 c 1
 171 525 l 1
 169 592 l 1
 247 609 l 1
 236 631 227 650 226 655 c 1
 311 697 l 1
 321 673 329 651 339 630 c 1
 451 656 l 1
 454 590 l 1
 369 570 l 1
EndSplineSet
EndChar
StartChar: divide
Encoding: 247 247 146
Width: 517
VWidth: 2
Flags: HW
HStem: -6 132<161 258> 213 77<66 438> 370 131<233 330>
LayerCount: 2
Fore
SplineSet
54 213 m 1
 66 290 l 1
 144 292 206 293 244 293 c 0
 311 293 343 291 445 290 c 1
 453 290 l 1
 438 213 l 1
 429 213 l 1
 325 214 295 217 228 217 c 0
 191 217 129 215 54 213 c 1
161 126 m 1
 283 126 l 1
 258 -6 l 1
 136 -6 l 1
 161 126 l 1
233 501 m 1
 355 501 l 1
 330 370 l 1
 208 370 l 1
 233 501 l 1
EndSplineSet
EndChar
StartChar: oslash
Encoding: 248 248 140
Width: 517
VWidth: 2
Flags: HW
HStem: 0 76<147 291> 429 75<215 355>
VStem: 36 79<174 286> 384 79<208 326>
LayerCount: 2
Fore
SplineSet
115 174 m 1
 361 401 l 1
 346 419 324 429 291 429 c 0
 189 429 143 348 120 229 c 0
 117 211 115 194 115 179 c 0
 115 177 115 175 115 174 c 1
457 393 m 1
 461 376 463 357 463 337 c 0
 463 313 460 288 456 265 c 0
 429 126 357 0 200 0 c 2
 199 0 l 1
 143 0 103 16 76 44 c 1
 21 -4 l 1
 -23 46 l 1
 42 106 l 1
 38 123 36 140 36 160 c 0
 36 181 38 204 42 227 c 0
 70 370 146 504 289 504 c 0
 353 504 397 489 424 459 c 1
 491 521 l 1
 539 467 l 1
 457 393 l 1
303 105 m 1
 341 135 362 187 376 259 c 0
 376 262 378 265 378 268 c 0
 381 287 384 304 384 321 c 0
 384 322 384 325 384 326 c 1
 140 104 l 1
 157 86 181 76 214 76 c 0
 251 76 275 84 303 105 c 1
EndSplineSet
EndChar
StartChar: thorn
Encoding: 254 254 206
Width: 517
VWidth: 0
Flags: HW
HStem: -3 76<149 289> 419 76<227 367> 633 10G<135 217>
VStem: -11 79<-194 -58> 136 82<505 634> 390 79<196 396>
LayerCount: 2
Fore
SplineSet
390 326 m 0
 390 385 366 419 304 419 c 0
 255 419 209 397 164 341 c 1
 123 128 l 1
 144 103 150 72 209 72 c 0
 302 72 390 150 390 326 c 0
92 361 m 2
 93 365 126 541 127 545 c 0
 132 573 136 600 136 620 c 0
 136 624 135 629 135 633 c 1
 217 643 l 1
 217 639 217 615 214 598 c 0
 185 450 l 1
 221 477 258 495 318 495 c 0
 409 495 468 432 468 341 c 0
 468 107 371 -3 188 -3 c 0
 139 -3 124 12 103 27 c 1
 83 -74 l 2
 74 -120 71 -161 68 -194 c 1
 -11 -198 l 1
 -9 -162 -2 -115 7 -71 c 2
 92 361 l 2
EndSplineSet
EndChar
StartChar: Aogonek
Encoding: 260 260 209
Width: 517
VWidth: 15
Flags: HW
HStem: -226 70<299 406> 0 10G<-16 64> 162 78<175 361> 625 10G<294 384>
VStem: -16 79<0 56> 217 78<-150 -89>
LayerCount: 2
Fore
SplineSet
361 242 m 1
 322 528 l 1
 173 232 l 1
 204 238 231 238 272 240 c 1
 361 242 l 1
473 0 m 1
 413 -42 302 -78 295 -114 c 0
 295 -116 295 -120 295 -122 c 0
 295 -144 319 -155 347 -155 c 0
 375 -155 398 -139 415 -128 c 1
 443 -180 l 1
 417 -203 370 -226 331 -226 c 0
 252 -226 217 -192 217 -140 c 0
 217 -132 218 -123 220 -114 c 0
 237 -29 354 -8 388 20 c 1
 366 162 l 1
 297 161 189 159 132 146 c 1
 86 59 l 2
 78 45 65 14 63 0 c 1
 -16 0 l 1
 -13 14 5 57 15 78 c 2
 299 635 l 1
 382 635 l 1
 473 0 l 1
EndSplineSet
EndChar
StartChar: aogonek
Encoding: 261 261 210
Width: 517
VWidth: 2
Flags: HW
HStem: -217 70<249 356> -4 74<129 241> 435 70<205 364>
VStem: 32 74<91 279> 167 78<-142 -83> 349 74<65 112>
LayerCount: 2
Fore
SplineSet
491 489 m 1
 433 174 l 2
 427 142 423 120 423 104 c 0
 423 78 423 68 431 68 c 0
 433 68 436 69 439 70 c 1
 470 21 l 1
 410 -21 252 -70 245 -106 c 0
 245 -108 245 -111 245 -113 c 0
 245 -135 268 -147 296 -147 c 0
 324 -147 347 -131 364 -120 c 1
 393 -172 l 1
 367 -195 320 -217 281 -217 c 0
 202 -217 167 -184 167 -132 c 0
 167 -124 167 -115 169 -106 c 0
 182 -42 294 -5 373 31 c 1
 358 42 349 60 349 84 c 0
 349 88 350 93 350 97 c 1
 322 56 261 -4 157 -4 c 0
 81 -4 32 68 32 167 c 0
 32 192 36 219 42 246 c 0
 83 421 148 505 295 505 c 0
 357 505 388 485 411 469 c 1
 413 480 415 491 416 501 c 1
 491 489 l 1
119 251 m 0
 111 220 106 193 106 169 c 0
 106 107 133 70 171 70 c 0
 281 70 346 216 374 297 c 1
 396 393 l 1
 372 410 336 435 285 435 c 0
 192 435 154 378 119 251 c 0
EndSplineSet
EndChar
StartChar: dcaron
Encoding: 271 271 211
Width: 517
VWidth: 15
Flags: HW
HStem: -4 74<111 218> 435 70<185 327> 680 10G<404 466>
VStem: 14 74<91 279> 306 69<56 86> 536 70<592 679>
LayerCount: 2
Fore
SplineSet
101 251 m 0
 93 220 88 193 88 169 c 0
 88 107 115 70 153 70 c 0
 263 70 298 216 326 297 c 1
 347 393 l 1
 328 418 301 435 250 435 c 0
 178 435 136 378 101 251 c 0
479 678 m 1
 384 174 l 2
 378 142 375 120 375 104 c 0
 375 79 383 69 400 53 c 1
 348 -5 l 1
 328 13 306 24 306 74 c 0
 306 78 306 82 306 86 c 1
 278 45 243 -4 139 -4 c 0
 63 -4 14 68 14 167 c 0
 14 192 17 219 23 246 c 0
 64 421 132 505 260 505 c 0
 322 505 344 490 362 469 c 1
 364 480 404 682 404 689 c 1
 479 678 l 1
536 682 m 1
 605 679 l 1
 595 573 544 513 501 474 c 1
 461 500 l 1
 483 521 530 601 536 682 c 1
EndSplineSet
EndChar
StartChar: Dcroat
Encoding: 272 272 212
Width: 517
VWidth: 0
Flags: HW
HStem: -5 74<89 292> 381 72<32 75 166 325> 562 74<183 334>
VStem: 419 80<225 469>
LayerCount: 2
Fore
SplineSet
224 562 m 2
 209 562 l 2
 201 562 196 563 187 562 c 1
 185 550 182 535 179 520 c 0
 175 499 171 476 166 453 c 1
 325 453 l 1
 325 381 l 1
 151 381 l 1
 125 247 98 112 89 70 c 1
 131 69 154 69 183 69 c 0
 239 69 329 82 378 169 c 0
 390 191 405 234 410 260 c 0
 416 293 419 327 419 358 c 0
 419 400 413 439 400 466 c 0
 369 528 332 562 224 562 c 2
88 453 m 1
 91 467 l 2
 103 529 113 588 117 630 c 1
 158 634 180 637 228 637 c 0
 360 637 429 597 472 510 c 0
 491 471 500 423 500 371 c 0
 500 341 496 309 490 277 c 0
 460 122 399 18 236 -1 c 0
 209 -4 184 -5 157 -5 c 0
 116 -5 52 -1 -4 -1 c 1
 -1 15 -2 14 9 61 c 1
 13 84 47 239 75 381 c 1
 32 381 l 1
 32 453 l 1
 88 453 l 1
EndSplineSet
EndChar
StartChar: dcroat
Encoding: 273 273 213
Width: 517
VWidth: 0
Flags: HW
HStem: -4 74<111 223> 435 70<187 346> 546 73<268 408 499 550> 680 10G<434 497>
VStem: 14 74<91 279> 331 74<39 112> 434 76<642 679>
LayerCount: 2
Fore
SplineSet
101 251 m 0
 93 220 88 193 88 169 c 0
 88 107 115 70 153 70 c 0
 263 70 328 216 356 297 c 1
 378 393 l 1
 354 410 318 435 267 435 c 0
 174 435 136 378 101 251 c 0
485 546 m 1
 415 174 l 2
 409 142 405 120 405 104 c 0
 405 79 414 69 431 53 c 1
 379 -5 l 1
 359 13 331 34 331 84 c 0
 331 88 332 93 332 97 c 1
 304 56 243 -4 139 -4 c 0
 63 -4 14 68 14 167 c 0
 14 192 17 219 23 246 c 0
 64 421 130 505 277 505 c 0
 339 505 370 485 393 469 c 1
 394 473 401 506 408 546 c 1
 268 546 l 1
 268 620 l 1
 421 620 l 1
 428 657 434 686 434 689 c 1
 510 678 l 1
 499 620 l 1
 550 620 l 1
 550 546 l 1
 485 546 l 1
EndSplineSet
EndChar
StartChar: Eogonek
Encoding: 280 280 218
Width: 517
VWidth: 15
Flags: HW
HStem: -223 70<252 357> -1 74<103 284> 325 73<168 380> 559 75<199 519>
VStem: 171 78<-147 -85>
LayerCount: 2
Fore
SplineSet
136 631 m 1
 164 633 198 633 236 633 c 0
 251 633 267 633 284 633 c 2
 337 633 l 2
 410 633 477 632 513 632 c 2
 521 632 l 1
 519 557 l 1
 199 559 l 1
 168 398 l 1
 382 398 l 1
 380 323 l 1
 153 325 l 1
 151 311 l 1
 132 212 110 110 103 72 c 1
 356 72 l 2
 383 72 394 82 394 82 c 1
 432 13 l 1
 370 -30 249 -75 249 -117 c 0
 249 -139 270 -153 298 -153 c 0
 326 -153 349 -137 366 -126 c 1
 394 -178 l 1
 368 -201 321 -223 282 -223 c 0
 203 -223 171 -173 171 -136 c 0
 171 -70 227 -32 284 -1 c 1
 13 -1 l 1
 136 631 l 1
EndSplineSet
EndChar
StartChar: eogonek
Encoding: 281 281 219
Width: 517
VWidth: 15
Flags: HW
HStem: -216 70<191 298> 424 74<219 372>
VStem: 42 78<104 168> 109 78<-141 -72> 396 71<311 401>
LayerCount: 2
Back
SplineSet
114.2578125 151.85546875 m 4
 114.2578125 100.5859375 141.6015625 71.2890625 187.01171875 71.2890625 c 4
 274.90234375 71.2890625 327.1484375 148.4375 339.84375 168.45703125 c 5
 339.84375 214.84375 l 5
 312.01171875 231.93359375 272.94921875 246.09375 238.76953125 246.09375 c 4
 172.36328125 246.09375 114.2578125 209.47265625 114.2578125 151.85546875 c 4
371.34375 38.794921875 m 5
 365.138671875 48.4287109375 360.232421875 60.4033203125 357.421875 76.171875 c 5
 319.3359375 39.55078125 275.87890625 -2.9296875 187.01171875 -2.9296875 c 4
 103.515625 -2.9296875 38.0859375 65.91796875 38.0859375 146.97265625 c 4
 38.0859375 184.08203125 52.734375 227.5390625 81.54296875 257.32421875 c 4
 127.9296875 304.6875 177.24609375 316.40625 234.86328125 316.40625 c 4
 276.3671875 316.40625 312.98828125 307.6171875 339.35546875 291.50390625 c 5
 339.35546875 386.71875 306.640625 428.22265625 232.421875 428.22265625 c 4
 165.0390625 428.22265625 138.18359375 404.296875 99.12109375 334.47265625 c 5
 35.64453125 374.51171875 l 5
 82.51953125 463.37890625 144.53125 500.48828125 231.4453125 501.953125 c 5
 341.30859375 501.953125 414.55078125 428.7109375 414.55078125 320.80078125 c 5
 416.50390625 155.2734375 l 6
 416.50390625 138.18359375 416.50390625 92.7734375 422.8515625 84.47265625 c 4
 429.19921875 75.68359375 447.265625 64.453125 461.42578125 53.22265625 c 5
 461.42578125 53.22265625 429.6875 20.5087890625 404.296875 0 c 4
 353.193359375 -41.2763671875 280.2734375 -69.5009765625 280.2734375 -105.633789062 c 4
 280.2734375 -132.977539062 307.6171875 -146.405273438 338.8671875 -146.405273438 c 4
 367.1875 -146.405273438 387.451171875 -130.291992188 402.099609375 -119.549804688 c 5
 440.185546875 -171.551757812 l 5
 418.701171875 -194.98828125 375.48828125 -216.961914062 336.9140625 -216.961914062 c 4
 245.1171875 -216.961914062 204.58984375 -171.551757812 204.58984375 -105.633789062 c 4
 204.58984375 -17.7431640625 347.595703125 9.216796875 371.34375 38.794921875 c 5
EndSplineSet
Fore
SplineSet
128 240 m 1xc8
 184 244 286 251 342 284 c 0
 379 306 396 334 396 359 c 0
 396 395 361 424 295 424 c 0
 212 424 152 363 128 240 c 1xc8
309 499 m 0
 414 499 467 432 467 361 c 0
 467 312 441 261 388 228 c 0
 313 183 190 172 120 167 c 1
 120 166 120 163 120 161 c 0xe8
 120 126 139 70 234 70 c 0
 321 70 380 103 404 129 c 1
 454 76 l 1
 390 8 200 -38 187 -105 c 0
 187 -107 187 -110 187 -112 c 0
 187 -134 210 -146 238 -146 c 0
 266 -146 289 -130 306 -119 c 1
 334 -171 l 1
 308 -194 262 -216 223 -216 c 0
 144 -216 109 -183 109 -131 c 0xd8
 109 -123 109 -114 111 -105 c 0
 120 -63 154 -31 195 -4 c 1
 91 4 42 72 42 174 c 0xe8
 42 198 45 224 50 252 c 0
 77 392 171 499 309 499 c 0
EndSplineSet
EndChar
StartChar: Hbar
Encoding: 294 294 582
Width: 517
VWidth: 0
Flags: HW
HStem: 0 10G<-7 80 332 411> 305 74<144 391> 519 76<60 94 187 432 524 557> 623 7G<116 192 452 531>
LayerCount: 2
Fore
SplineSet
108 594 m 1
 116 632 l 1
 194 633 l 1
 187 594 l 1
 447 594 l 1
 449 605 452 617 454 630 c 1
 531 630 l 1
 524 594 l 1
 564 594 l 1
 557 519 l 1
 510 519 l 1
 409 0 l 1
 332 0 l 1
 391 305 l 1
 370 305 349 305 328 305 c 0
 257 305 187 304 127 292 c 1
 94 125 88 88 71 0 c 1
 -7 0 l 1
 94 519 l 1
 53 519 l 1
 60 594 l 1
 108 594 l 1
432 519 m 1
 171 519 l 1
 142 366 l 1
 189 376 235 379 294 379 c 2
 405 379 l 1
 417 442 425 484 432 519 c 1
EndSplineSet
EndChar
StartChar: hbar
Encoding: 295 295 581
Width: 517
VWidth: 0
Flags: HW
HStem: 0 10G<3 83> 423 75<262 370> 519 76<60 108 201 342> 675 10G<141 218>
VStem: 3 76<4 88> 331 79<58 202> 381 79<246 413>
LayerCount: 2
Fore
SplineSet
369 281 m 2xfc
 375 311 381 345 381 365 c 0
 381 397 366 423 324 423 c 0
 286 423 195 384 128 236 c 1
 103 97 l 2
 96 58 87 22 80 0 c 1
 3 4 l 1
 14 39 20 62 27 100 c 0
 53 236 85 399 108 519 c 1
 53 519 l 1
 60 594 l 1
 123 594 l 1
 134 649 141 685 141 685 c 2
 218 685 l 1
 201 594 l 1
 349 594 l 1
 342 519 l 1
 186 519 l 1
 164 406 l 1
 204 466 261 498 311 498 c 0
 400 498 460 466 460 378 c 0xfa
 460 358 456 337 452 313 c 0
 437 238 426 185 416 134 c 0
 415 130 410 103 410 96 c 0
 410 62 428 60 449 49 c 1
 417 -17 l 1
 372 -6 331 28 331 76 c 0
 331 94 336 118 338 127 c 2
 369 281 l 2xfc
EndSplineSet
EndChar
StartChar: Iogonek
Encoding: 302 302 238
Width: 517
VWidth: 15
Flags: HW
HStem: -234 70<201 309> 2 72<53 184 262 282 343 378> 559 75<161 279 357 487>
VStem: 120 78<-159 -97>
LayerCount: 2
Fore
SplineSet
161 634 m 1
 238 636 277 636 324 636 c 0
 375 636 421 635 501 634 c 1
 487 560 l 1
 427 560 404 562 357 562 c 1
 262 74 l 1
 284 74 297 75 322 75 c 0
 344 75 367 74 392 73 c 1
 378 -0 l 1
 377 0 375 0 374 -0 c 1
 313 -41 204 -88 198 -123 c 0
 198 -125 197 -128 197 -130 c 0
 197 -152 221 -164 249 -164 c 0
 277 -164 300 -148 317 -137 c 1
 345 -189 l 1
 319 -212 272 -234 233 -234 c 0
 154 -234 120 -201 120 -149 c 0
 120 -141 120 -132 122 -123 c 0
 136 -48 235 -22 282 2 c 1
 256 2 231 2 200 2 c 0
 164 2 115 -1 39 -1 c 1
 53 71 l 1
 95 73 119 74 147 74 c 2
 184 74 l 1
 279 562 l 1
 247 562 201 562 149 559 c 1
 161 634 l 1
EndSplineSet
EndChar
StartChar: iogonek
Encoding: 303 303 239
Width: 517
VWidth: 15
Flags: HW
HStem: -231 70<219 326> 495 10G<246 307> 577 110<250 343>
VStem: 137 78<-156 -97> 172 78<68 234>
LayerCount: 2
Fore
SplineSet
250 687 m 1xe0
 364 687 l 1
 343 577 l 1
 229 577 l 1
 250 687 l 1xe0
319 493 m 1
 252 139 l 2
 250 130 250 121 250 113 c 0xe8
 250 78 268 61 305 61 c 0
 350 61 398 73 437 98 c 1
 474 41 l 1
 470 38 465 35 461 33 c 0
 391 -10 221 -86 215 -120 c 0
 215 -122 215 -125 215 -127 c 0
 215 -149 239 -161 267 -161 c 0
 295 -161 317 -145 334 -134 c 1
 363 -186 l 1
 337 -209 290 -231 251 -231 c 0
 172 -231 137 -198 137 -146 c 0xf0
 137 -138 138 -129 140 -120 c 0
 147 -82 198 -41 256 -5 c 1
 192 8 172 56 172 102 c 0xe8
 172 114 174 126 176 137 c 2
 223 386 l 1
 206 373 155 354 119 342 c 1
 90 413 l 1
 224 458 246 505 246 505 c 1
 319 493 l 1
EndSplineSet
EndChar
StartChar: dotlessi
Encoding: 305 305 177
Width: 517
VWidth: 0
Flags: HW
HStem: -9 69<257 406> 488 10G<226 323>
VStem: 171 78<69 225>
LayerCount: 2
Back
SplineSet
231.170898438 497.94921875 m 4
 325.165039062 497.94921875 341.06640625 418.078125 329.356445312 354.98046875 c 6
 289.16796875 138.427734375 l 6
 279.780273438 87.8408203125 296.4375 60.546875 341.359375 60.546875 c 4
 386.76953125 60.546875 434.732421875 72.265625 473.358398438 97.65625 c 5
 510.317382812 40.52734375 l 5
 461.587890625 5.859375 388.916015625 -8.7890625 328.369140625 -8.7890625 c 4
 214.17578125 -8.7890625 201.875 75.68359375 212.616210938 136.474609375 c 6
 254.900390625 361.81640625 l 6
 258.6875 381.998046875 259.979492188 424.31640625 230.194335938 425.29296875 c 4
 206.268554688 425.29296875 174.041992188 425.78125 114.471679688 371.09375 c 5
 67.1083984375 436.03515625 l 5
 133.026367188 479.4921875 165.252929688 497.94921875 231.170898438 497.94921875 c 4
EndSplineSet
Fore
SplineSet
323 498 m 1
 251 139 l 2
 249 130 249 121 249 113 c 0
 249 78 266 61 303 61 c 0
 348 61 396 73 435 98 c 1
 472 41 l 1
 423 6 352 -9 291 -9 c 0
 198 -9 171 48 171 102 c 0
 171 114 172 126 174 137 c 2
 227 397 l 1
 210 384 156 354 120 342 c 1
 92 413 l 1
 205 461 221 484 230 498 c 1
 323 498 l 1
EndSplineSet
EndChar
StartChar: IJ
Encoding: 306 306 241
Width: 517
VWidth: 0
Flags: HW
HStem: 0 74<2 38 116 140 279 350> 562 73<111 132 210 259 337 442>
VStem: 195 80<70 206>
LayerCount: 2
Fore
SplineSet
259 562 m 1
 240 562 227 562 210 562 c 1
 116 74 l 1
 154 73 l 1
 140 0 l 1
 125 0 108 0 89 0 c 0
 52 0 12 0 -12 0 c 1
 2 71 l 1
 13 73 22 74 29 74 c 2
 38 74 l 1
 132 562 l 1
 100 562 111 562 97 559 c 1
 111 634 l 1
 131 636 131 636 178 636 c 0
 200 636 220 636 241 636 c 0
 252 636 263 636 274 636 c 1
 259 562 l 1
337 633 m 1
 361 633 382 632 401 632 c 0
 458 632 458 633 538 633 c 1
 522 557 502 423 485 313 c 0
 447 67 417 -4 287 -4 c 0
 218 -4 195 52 195 124 c 0
 195 150 198 179 203 208 c 1
 281 208 l 1
 277 182 275 156 275 135 c 0
 275 96 282 69 300 69 c 0
 356 69 373 128 394 235 c 0
 399 261 404 290 410 322 c 0
 419 368 435 492 442 559 c 1
 382 559 379 559 322 560 c 1
 337 633 l 1
EndSplineSet
EndChar
StartChar: ij
Encoding: 307 307 242
Width: 517
VWidth: 0
Flags: HW
HStem: -189 76<140 323> -3 67<184 272> 425 73<315 435> 576 110<187 280 460 553>
VStem: 102 81<66 152> 436 78<291 423>
LayerCount: 2
Fore
SplineSet
349 -56 m 1
 433 382 l 1
 434 388 436 393 436 398 c 0
 436 421 418 425 410 425 c 1
 374 425 359 418 313 408 c 1
 291 473 l 1
 348 491 384 498 411 498 c 1
 415 498 421 498 427 498 c 0
 460 498 513 492 513 418 c 0
 513 406 512 393 509 377 c 1
 424 -58 l 0
 410 -129 369 -189 253 -189 c 3
 193 -189 134 -185 40 -131 c 1
 83 -59 l 1
 148 -110 226 -113 257 -113 c 0
 260 -113 264 -113 266 -113 c 3
 321 -113 345 -73 349 -56 c 1
200 498 m 2
 259 498 l 1
 233 365 183 106 183 106 c 1
 182 102 182 97 182 94 c 0
 182 72 198 64 219 64 c 0
 244 64 263 75 279 94 c 1
 310 44 l 1
 280 9 231 -3 198 -3 c 0
 126 -3 102 32 102 76 c 0
 102 85 102 94 104 104 c 2
 164 408 l 1
 141 394 134 392 82 364 c 1
 62 423 l 1
 110 445 153 478 177 498 c 1
 184 498 190 498 200 498 c 2
460 686 m 1
 574 684 l 1
 553 574 l 1
 438 576 l 1
 460 686 l 1
187 688 m 1
 301 687 l 1
 280 577 l 1
 166 579 l 1
 187 688 l 1
EndSplineSet
EndChar
StartChar: Lcaron
Encoding: 317 317 252
Width: 517
VWidth: 15
Flags: HW
HStem: -1 75<125 429> 620 10G<300 345> 624 10G<153 234>
VStem: 272 74<439 499>
LayerCount: 2
Fore
SplineSet
400 606 m 1xd0
 381 551 369 498 347 424 c 1
 272 441 l 1
 281 510 295 579 305 629 c 1
 400 606 l 1xd0
EndSplineSet
Refer: 35 76 N 1 0 0 1 0 0 2
EndChar
StartChar: lcaron
Encoding: 318 318 253
Width: 517
VWidth: 15
Flags: HW
HStem: -9 69<235 408> 498 10G<367 422>
VStem: 137 79<81 272> 337 74<513 573>
LayerCount: 2
Fore
SplineSet
465 680 m 1
 446 625 433 572 411 498 c 1
 337 515 l 1
 346 584 360 653 370 703 c 1
 465 680 l 1
EndSplineSet
Refer: 12 108 N 1 0 0 1 0 0 2
EndChar
StartChar: Lslash
Encoding: 321 321 256
Width: 517
VWidth: 0
Flags: HW
HStem: -1 75<184 429> 624 10G<212 293>
LayerCount: 2
Back
SplineSet
142.578125 250.48828125 m 5
 118.814453125 239.095703125 95.052734375 227.701171875 71.2890625 216.30859375 c 5
 60.708984375 247.884765625 50.130859375 279.458984375 39.55078125 311.03515625 c 5
 81.705078125 331.380859375 123.861328125 351.724609375 166.015625 372.0703125 c 5
 183.919921875 463.705078125 201.822265625 555.336914062 219.7265625 646.97265625 c 5
 261.068359375 646.97265625 302.408203125 646.97265625 343.75 646.97265625 c 5
 330.078125 577.1484375 316.40625 507.32421875 302.734375 437.5 c 5
 344.400390625 457.51953125 386.068359375 477.5390625 427.734375 497.55859375 c 5
 438.314453125 465.8203125 448.892578125 434.08203125 459.47265625 402.34375 c 5
 399.4140625 373.53515625 339.35546875 344.7265625 279.296875 315.91796875 c 5
 265.298828125 244.302734375 251.302734375 172.689453125 237.3046875 101.07421875 c 5
 289.0625 101.07421875 340.8203125 101.07421875 392.578125 101.07421875 c 5
 421.875 102.5390625 427.24609375 104.00390625 450.1953125 111.328125 c 5
 455.728515625 79.263671875 461.263671875 47.2001953125 466.796875 15.13671875 c 5
 442.3828125 7.32421875 410.15625 -1.46484375 373.53515625 -1.46484375 c 5
 280.111328125 -1.46484375 186.685546875 -1.46484375 93.26171875 -1.46484375 c 5
 109.701171875 82.51953125 126.139648438 166.50390625 142.578125 250.48828125 c 5
EndSplineSet
Fore
SplineSet
141 258 m 1
 83 229 l 1
 51 295 l 1
 159 349 l 1
 214 634 l 1
 293 634 l 1
 246 392 l 1
 428 482 l 1
 460 416 l 1
 229 301 l 1
 184 74 l 1
 379 74 l 2
 408 75 407 76 430 83 c 1
 456 14 l 1
 428 0 403 -1 366 -1 c 2
 91 -1 l 1
 141 258 l 1
EndSplineSet
EndChar
StartChar: lslash
Encoding: 322 322 257
Width: 517
VWidth: 0
Flags: HW
HStem: -9 69<235 408> 597 72<359 478> 641 72<191 245> 686 10G<460 474>
VStem: 91 72<535 611> 137 79<82 211>
LayerCount: 2
Fore
SplineSet
91 535 m 1xa8
 91 648 141 713 241 713 c 0xa8
 288 713 327 705 375 685 c 0
 404 674 420 669 433 669 c 0
 451 669 457 678 463 695 c 1
 517 646 l 1
 502 618 475 597 435 597 c 0
 412 597 383 606 354 618 c 0
 344 622 333 626 324 629 c 1
 220 184 l 2
 217 168 215 154 215 142 c 0
 215 77 253 61 305 61 c 0
 350 61 398 73 437 98 c 1
 474 41 l 1
 425 6 353 -9 292 -9 c 0
 188 -9 137 52 137 137 c 0xd4
 137 151 138 166 141 182 c 2
 246 641 l 1
 186 639 163 597 163 532 c 1
 91 535 l 1xa8
EndSplineSet
EndChar
StartChar: Eng
Encoding: 330 330 264
Width: 517
VWidth: 0
Flags: HW
HStem: -175 76<135 255> -1 10G<-0 79> 558 75<256 390> 633 10G<153 184>
VStem: 105 83<560 619> 418 79<352 531>
LayerCount: 2
Fore
SplineSet
350 633 m 0xec
 460 633 497 576 497 495 c 0
 497 472 493 446 488 420 c 0
 466 307 446 196 424 81 c 2
 421 64 l 2
 397 -61 350 -175 137 -175 c 2
 121 -175 l 1
 135 -100 l 1
 304 -97 327 -28 343 52 c 2
 414 416 l 2
 417 431 418 445 418 458 c 0
 418 521 384 558 336 558 c 0xec
 241 558 189 480 165 447 c 1
 77 -1 l 1
 -0 -1 l 1
 101 517 l 2
 104 536 105 552 105 567 c 0
 105 596 101 615 101 615 c 1
 182 643 l 1xdc
 186 629 189 617 189 596 c 0
 189 589 189 580 188 570 c 1
 227 620 284 633 350 633 c 0xec
EndSplineSet
EndChar
StartChar: eng
Encoding: 331 331 265
Width: 517
VWidth: 2
Flags: HW
HStem: -180 76<153 245> -0 10G<20 96> 426 73<242 369> 498 10G<136 181>
VStem: 100 84<395 491> 377 82<354 415>
LayerCount: 2
Fore
SplineSet
184 453 m 1xdc
 252 485 283 499 337 499 c 0
 391 499 459 467 459 406 c 0
 459 401 458 395 457 389 c 2
 401 103 l 2
 373 -43 345 -180 141 -180 c 2
 139 -180 l 1
 153 -104 l 2
 154 -104 l 0
 267 -104 293 -55 318 73 c 0
 338 173 356 274 376 374 c 0
 376 377 377 380 377 382 c 0
 377 412 342 426 312 426 c 0xec
 281 426 246 405 168 371 c 1
 96 0 l 1
 19 -0 l 1
 85 344 l 2
 96 402 100 428 100 451 c 0
 100 463 99 474 98 490 c 1
 180 508 l 1
 182 498 184 483 184 465 c 0
 184 461 184 457 184 453 c 1xdc
EndSplineSet
EndChar
StartChar: OE
Encoding: 338 338 149
Width: 517
VWidth: 0
Flags: HW
HStem: -4 74<111 203 279 461> 333 75<345 465> 571 78<220 301 377 544>
VStem: 12 71<98 313>
LayerCount: 2
Fore
SplineSet
203 71 m 1
 301 571 l 1
 174 571 134 464 98 282 c 0
 90 241 83 202 83 169 c 0
 83 112 104 71 181 70 c 0
 189 70 197 71 203 71 c 1
396 75 m 1
 425 76 439 79 462 87 c 1
 467 16 l 1
 412 2 343 0 289 -0 c 0
 266 0 242 0 215 0 c 1
 206 -3 159 -4 152 -4 c 0
 46 0 12 73 12 169 c 0
 12 207 17 250 25 292 c 0
 67 505 143 649 307 649 c 0
 320 649 333 648 345 646 c 1
 374 647 405 647 436 647 c 0
 478 647 519 647 559 647 c 1
 544 571 l 1
 499 571 472 572 437 572 c 0
 420 572 400 571 377 571 c 1
 345 408 l 1
 479 408 l 1
 465 333 l 1
 331 333 l 1
 312 234 286 114 279 75 c 1
 396 75 l 1
EndSplineSet
EndChar
StartChar: oe
Encoding: 339 339 95
Width: 517
VWidth: 2
Flags: HW
HStem: 0 75<98 178 278 370> 421 75<166 243 336 421>
VStem: 10 77<89 281> 428 73<303 415>
LayerCount: 2
Fore
SplineSet
455 91 m 1
 455 91 422 0 309 0 c 0
 264 0 236 17 215 44 c 1
 200 28 175 0 127 0 c 0
 100 0 67 2 36 44 c 0
 15 72 10 110 10 144 c 0
 10 176 16 205 19 224 c 0
 23 246 31 286 41 310 c 1
 63 370 107 497 218 497 c 0
 220 497 l 0
 259 497 274 484 291 466 c 0
 295 462 298 458 300 455 c 1
 315 473 341 496 397 497 c 0
 399 497 l 0
 461 497 500 448 500 378 c 0
 500 262 396 178 279 149 c 1
 270 105 l 1
 285 86 307 75 326 75 c 0
 359 75 383 108 394 125 c 1
 455 91 l 1
312 318 m 2
 296 234 l 1
 373 246 428 312 428 363 c 0
 428 403 413 421 383 421 c 0
 363 421 343 415 332 393 c 1
 323 376 317 343 312 318 c 2
139 75 m 0
 164 75 197 111 202 140 c 2
 248 368 l 2
 248 370 249 373 249 377 c 0
 249 393 243 421 206 421 c 0
 160 421 115 335 94 231 c 0
 94 228 93 226 93 223 c 0
 90 206 86 183 86 161 c 0
 86 137 90 113 99 93 c 0
 105 80 123 75 139 75 c 0
EndSplineSet
EndChar
StartChar: Scedilla
Encoding: 350 350 282
Width: 517
VWidth: 15
Flags: HW
HStem: -198 61<104 210> 0 69<135 154 221 313> 513 10G<458 478> 561 75<220 431>
VStem: 2 79<116 156> 89 83<422 520> 213 67<-132 -84> 387 80<135 267>
LayerCount: 2
Fore
SplineSet
81 175 m 1
 81 116 133 69 225 69 c 0
 329 69 387 135 387 209 c 0
 387 248 366 274 337 288 c 0
 285 312 210 317 151 346 c 1
 117 364 89 398 89 451 c 0
 89 580 207 636 316 636 c 0
 418 636 487 614 521 588 c 1
 472 513 l 1
 444 538 394 561 304 561 c 0
 234 561 172 523 172 468 c 0
 172 439 186 425 207 414 c 0
 259 387 335 386 394 357 c 1
 434 336 467 293 467 229 c 0
 467 67 345 -1 225 -4 c 1
 223 -15 219 -32 219 -33 c 1
 259 -35 281 -56 281 -94 c 0
 281 -101 279 -108 278 -116 c 0
 268 -165 213 -198 172 -198 c 0
 140 -198 107 -186 83 -168 c 1
 112 -117 l 1
 127 -126 144 -137 169 -137 c 0
 187 -137 208 -128 213 -109 c 1
 213 -108 l 2
 213 -107 214 -105 214 -104 c 0
 214 -91 198 -82 177 -82 c 0
 154 -82 152 -85 137 -90 c 1
 154 0 l 1
 49 19 2 83 2 156 c 1
 81 175 l 1
EndSplineSet
EndChar
StartChar: scedilla
Encoding: 351 351 283
Width: 517
VWidth: 15
Flags: HW
HStem: -201 61<90 195> -10 70<207 304> 431 72<232 436>
VStem: 35 78<92 160> 130 82<339 411> 199 67<-134 -87> 349 84<98 182>
LayerCount: 2
Fore
SplineSet
179 280 m 0xf6
 147 303 130 334 130 369 c 0
 130 377 131 386 133 395 c 0
 149 467 210 503 312 503 c 0
 378 503 432 495 480 475 c 1
 452 402 l 1
 418 420 367 431 306 431 c 0
 243 431 212 401 212 374 c 0xfa
 212 363 217 354 226 346 c 0
 313 273 433 243 433 149 c 0
 433 141 432 133 431 125 c 0
 410 18 316 -10 209 -10 c 1
 207 -20 204 -34 204 -35 c 1
 244 -37 266 -59 266 -97 c 0
 266 -104 265 -111 264 -119 c 0
 254 -168 199 -201 158 -201 c 0
 126 -201 93 -189 69 -171 c 1
 98 -119 l 1
 113 -128 129 -140 154 -140 c 0
 172 -140 194 -130 199 -111 c 1
 199 -110 l 2
 199 -109 199 -108 199 -107 c 0
 199 -94 183 -84 162 -84 c 0
 139 -84 138 -87 123 -92 c 1
 140 -0 l 1
 141 -0 l 1
 79 19 35 64 35 130 c 0
 35 140 36 150 38 161 c 1
 114 161 l 1
 113 155 113 149 113 144 c 0
 113 89 169 60 219 60 c 0
 279 60 339 84 349 138 c 0
 349 140 349 142 349 144 c 0
 349 191 248 230 179 280 c 0xf6
EndSplineSet
EndChar
StartChar: Tcommaaccent
Encoding: 354 354 286
Width: 517
VWidth: 15
Flags: HW
HStem: -188 61<113 219> 559 76<105 269 347 515>
VStem: 223 67<-122 -74>
LayerCount: 2
Fore
SplineSet
159 -4 m 1
 269 559 l 1
 172 559 128 558 91 558 c 1
 105 634 l 1
 165 634 387 634 479 634 c 0
 515 634 538 628 546 627 c 1
 515 553 l 1
 515 553 485 559 461 559 c 2
 347 559 l 1
 237 -4 l 1
 232 -4 l 1
 230 -13 228 -21 228 -22 c 1
 268 -24 290 -46 290 -84 c 0
 290 -91 289 -98 288 -106 c 0
 278 -155 223 -188 182 -188 c 0
 150 -188 117 -176 93 -158 c 1
 122 -106 l 1
 137 -115 153 -127 178 -127 c 0
 196 -127 218 -118 223 -99 c 1
 223 -98 l 2
 223 -97 223 -95 223 -94 c 0
 223 -81 207 -71 186 -71 c 0
 163 -71 161 -75 146 -80 c 1
 161 -4 l 1
 159 -4 l 1
EndSplineSet
EndChar
StartChar: tcommaaccent
Encoding: 355 355 287
Width: 517
VWidth: 15
Flags: HW
HStem: -187 61<147 252> -3 76<264 359> 422 72<69 69 70 149 298 371>
VStem: 97 79<101 285> 256 67<-120 -72>
LayerCount: 2
Fore
SplineSet
184 231 m 1
 181 212 l 1
 178 195 176 180 176 167 c 0
 176 99 216 73 277 73 c 0
 351 73 386 110 405 144 c 1
 464 98 l 1
 442 57 384 -3 265 -3 c 1
 263 -12 261 -20 261 -21 c 1
 301 -23 323 -45 323 -83 c 0
 323 -90 322 -96 321 -104 c 0
 311 -153 256 -187 215 -187 c 0
 183 -187 150 -175 126 -157 c 1
 155 -105 l 1
 170 -114 186 -125 211 -125 c 0
 229 -125 251 -116 256 -97 c 1
 256 -96 l 2
 256 -95 256 -94 256 -93 c 0
 256 -80 240 -70 219 -70 c 0
 196 -70 195 -73 180 -78 c 1
 196 7 l 1
 137 27 97 75 97 155 c 0
 97 172 99 190 103 210 c 2
 106 231 l 1
 118 282 128 328 149 422 c 1
 110 422 l 2
 96 422 82 420 69 417 c 1
 60 488 l 1
 73 492 109 494 125 494 c 2
 164 494 l 1
 171 528 179 574 186 608 c 1
 263 608 l 1
 257 576 248 530 241 497 c 1
 300 497 l 1
 371 497 446 498 446 498 c 1
 455 498 l 1
 441 426 l 1
 287 426 l 2
 265 426 250 424 228 424 c 1
 204 324 195 280 184 231 c 1
EndSplineSet
EndChar
StartChar: tcaron
Encoding: 357 357 289
Width: 517
VWidth: 15
Flags: HW
HStem: -3 76<205 359> 422 72<69 69 70 149 298 371>
VStem: 97 79<101 285> 327 74<551 610>
LayerCount: 2
Fore
SplineSet
455 717 m 1
 436 662 423 610 401 536 c 1
 327 552 l 1
 336 621 350 691 360 741 c 1
 455 717 l 1
EndSplineSet
Refer: 19 116 N 1 0 0 1 0 0 2
EndChar
StartChar: tbar
Encoding: 359 359 291
Width: 517
VWidth: 0
Flags: HW
HStem: -3 76<205 359> 246 78<46 110 205 323> 422 72<69 69 70 149 298 371>
VStem: 97 79<101 246>
LayerCount: 2
Fore
SplineSet
184 231 m 2
 181 212 l 1
 178 195 176 180 176 167 c 0
 176 99 216 73 277 73 c 0
 351 73 386 110 405 144 c 1
 464 98 l 1
 442 57 384 -3 264 -3 c 0
 170 -3 97 48 97 155 c 0
 97 172 99 190 103 210 c 2
 106 231 l 2
 107 236 109 241 110 246 c 1
 32 246 l 1
 46 324 l 1
 127 324 l 1
 133 351 140 382 149 422 c 1
 110 422 l 2
 96 422 82 420 69 417 c 1
 60 488 l 1
 73 492 109 494 125 494 c 2
 164 494 l 1
 171 528 179 574 186 608 c 1
 263 608 l 1
 257 576 248 530 241 497 c 1
 300 497 l 1
 371 497 446 498 446 498 c 1
 455 498 l 1
 441 426 l 1
 287 426 l 2
 265 426 250 424 228 424 c 1
 218 382 211 351 205 324 c 1
 337 324 l 1
 323 246 l 1
 188 246 l 1
 187 241 185 236 184 231 c 2
EndSplineSet
EndChar
StartChar: Uogonek
Encoding: 370 370 302
Width: 517
VWidth: 15
Flags: HW
HStem: -228 70<160 268> 631 4G<112 198 462 542>
VStem: 34 79<100 321> 79 78<-152 -88> 467 75<561 635>
LayerCount: 2
Fore
SplineSet
467 641 m 1xe8
 542 635 l 1
 532 606 528 584 523 558 c 0
 509 487 499 425 488 371 c 2
 482 343 l 1
 460 230 438 121 371 58 c 1
 324 10 164 -80 157 -116 c 0
 157 -118 156 -122 156 -124 c 0
 156 -146 180 -157 208 -157 c 0
 236 -157 259 -141 276 -130 c 1
 304 -182 l 1
 278 -205 231 -228 192 -228 c 0
 113 -228 79 -194 79 -142 c 0xd8
 79 -134 79 -125 81 -116 c 0
 89 -75 131 -39 178 -4 c 1
 72 3 34 58 34 152 c 0
 34 173 36 194 39 218 c 0
 44 255 54 314 67 380 c 0
 83 464 103 559 121 636 c 1
 198 636 l 1
 180 555 158 445 140 355 c 0
 128 295 119 243 116 214 c 0
 115 201 113 188 113 177 c 0
 113 101 146 69 210 69 c 1
 262 71 290 83 322 110 c 1
 362 146 386 247 405 343 c 0
 417 403 429 474 445 557 c 0
 452 592 456 611 467 641 c 1xe8
EndSplineSet
EndChar
StartChar: uogonek
Encoding: 371 371 303
Width: 517
VWidth: 15
Flags: HW
HStem: -216 70<241 348> 0 76<126 220> 17 61<415 435> 489 10G<132 191 408 480>
VStem: 39 82<80 226> 111 80<372 486> 159 78<-140 -80> 342 71<78 142>
LayerCount: 2
Fore
SplineSet
435 78 m 1xb9
 454 17 l 1xb9
 368 -21 244 -68 237 -104 c 0
 237 -106 237 -110 237 -112 c 0
 237 -134 261 -146 289 -146 c 0
 317 -146 339 -130 356 -119 c 1
 385 -170 l 1
 359 -193 312 -216 273 -216 c 0
 194 -216 159 -182 159 -130 c 0
 159 -122 161 -113 162 -104 c 0
 174 -38 280 9 358 41 c 1
 348 51 342 66 342 89 c 0
 342 105 344 124 349 146 c 1
 302 60 233 0 159 0 c 0
 96 0 39 43 39 110 c 0xdb
 39 118 40 126 41 134 c 0
 63 257 111 424 111 477 c 0
 111 480 111 483 111 485 c 1
 191 499 l 1
 191 498 191 495 191 494 c 0xd5
 191 446 156 325 123 149 c 0
 122 140 120 132 120 124 c 0
 120 97 130 76 163 76 c 0xd9
 244 76 330 223 376 337 c 1
 410 502 l 1
 487 491 l 1
 414 117 l 2
 414 113 413 109 413 106 c 0
 413 92 423 78 435 78 c 1xb9
EndSplineSet
EndChar
StartChar: longs
Encoding: 383 383 315
Width: 517
VWidth: 0
Flags: HW
HStem: 0 10G<147 223> 419 75<132 227> 618 74<357 507>
LayerCount: 2
Fore
SplineSet
506 613 m 1
 486 617 453 618 418 618 c 0
 346 618 333 571 323 518 c 2
 318 495 l 1
 303 420 223 2 223 0 c 1
 147 0 l 1
 149 12 214 347 227 419 c 1
 117 419 l 1
 132 494 l 1
 242 494 l 1
 243 502 244 511 246 520 c 0
 260 590 293 692 429 692 c 0
 466 692 506 691 534 686 c 1
 506 613 l 1
EndSplineSet
EndChar
StartChar: uni0180
Encoding: 384 384 979
Width: 517
VWidth: 0
Flags: HW
HStem: -3 75<181 327> 426 76<272 377> 551 76<85 148 239 379> 680 10G<167 244>
VStem: 160 79<627 685> 406 75<182 396>
LayerCount: 2
Fore
SplineSet
397 233 m 0
 403 263 406 290 406 312 c 0
 406 393 371 426 323 426 c 0
 273 426 212 359 161 219 c 1
 147 150 l 1
 171 94 189 72 256 72 c 0
 339 72 377 133 397 233 c 0
472 224 m 0
 447 93 376 -3 242 -3 c 0
 187 -3 150 14 125 41 c 1
 121 20 116 10 111 -6 c 1
 32 3 l 1
 43 35 56 78 64 119 c 2
 148 551 l 1
 70 551 l 1
 85 627 l 1
 160 627 l 1
 163 648 166 667 167 685 c 1
 245 689 l 1
 244 670 242 649 239 627 c 1
 394 627 l 1
 379 551 l 1
 225 551 l 1
 190 407 l 1
 226 457 271 502 331 502 c 0
 426 502 481 427 481 310 c 0
 481 283 478 254 472 224 c 0
EndSplineSet
EndChar
StartChar: uni0190
Encoding: 400 400 426
Width: 517
VWidth: 0
Flags: HW
HStem: 0 75<137 331> 320 74<212 321> 515 10G<465 487> 559 75<236 440>
VStem: 20 78<111 240> 107 76<421 515>
LayerCount: 2
Fore
SplineSet
438 79 m 1
 399 53 330 0 208 0 c 0
 123 0 81 17 50 52 c 0
 28 77 20 107 20 137 c 0
 20 155 23 172 26 190 c 0
 43 277 86 338 161 356 c 1
 122 370 107 406 107 446 c 0
 107 457 108 469 110 481 c 0
 129 576 212 633 348 633 c 2
 354 633 l 2
 464 633 500 603 531 583 c 1
 480 515 l 1
 450 536 402 559 334 559 c 0
 256 559 193 528 184 481 c 0
 183 476 183 470 183 465 c 0
 183 399 276 394 325 394 c 2
 327 394 l 1
 335 394 l 1
 321 320 l 1
 309 320 296 320 284 320 c 0
 254 320 226 319 188 305 c 0
 132 285 106 222 100 189 c 0
 99 181 98 174 98 167 c 0
 98 109 147 75 223 75 c 0
 313 75 372 117 401 139 c 1
 438 79 l 1
EndSplineSet
EndChar
StartChar: uni0191
Encoding: 401 401 337
Width: 517
VWidth: 0
Flags: HW
HStem: -120 81<-36 25> 326 73<214 372> 559 75<245 510>
LayerCount: 2
Fore
SplineSet
-36 -39 m 1
 12 -39 61 0 70 48 c 1
 184 634 l 1
 478 634 l 1
 515 633 537 625 552 617 c 1
 511 545 l 1
 500 552 490 559 442 559 c 1
 408 559 l 2
 357 559 334 559 245 559 c 1
 214 398 l 1
 273 398 265 399 325 399 c 0
 368 399 396 393 396 393 c 2
 404 390 l 1
 373 319 l 1
 356 323 331 326 309 326 c 0
 288 326 276 326 264 326 c 0
 246 326 232 326 200 325 c 1
 188 266 157 89 148 44 c 0
 130 -50 59 -118 -48 -120 c 1
 -36 -39 l 1
EndSplineSet
EndChar
StartChar: florin
Encoding: 402 402 338
Width: 517
VWidth: 0
Flags: HW
HStem: -153 75<-11 71> 423 75<144 206 296 431> 618 74<335 503>
LayerCount: 2
Fore
SplineSet
216 74 m 1
 192 -51 162 -153 -24 -153 c 0
 -11 -78 l 0
 73 -78 115 -46 139 74 c 1
 141 86 193 351 206 423 c 1
 141 423 l 1
 144 498 l 1
 220 498 l 1
 221 506 222 511 224 520 c 0
 238 590 272 692 407 692 c 0
 449 692 504 689 568 651 c 1
 526 583 l 1
 473 616 446 618 396 618 c 0
 324 618 310 571 300 518 c 2
 296 499 l 1
 329 499 339 498 375 498 c 1
 425 497 437 492 451 488 c 1
 431 417 l 1
 421 420 406 423 379 423 c 2
 282 423 l 1
 268 348 216 76 216 74 c 1
EndSplineSet
EndChar
StartChar: uni01A4
Encoding: 420 420 977
Width: 517
VWidth: 0
Flags: HW
HStem: -5 10G<110 195> 225 74<240 371> 562 74<178 220 298 424>
VStem: 63 78<453 518> 449 81<379 539>
LayerCount: 2
Fore
SplineSet
449 473 m 0
 449 540 408 562 362 562 c 1
 332 562 320 560 298 560 c 1
 286 498 l 2
 268 409 247 299 247 299 c 1
 247 299 271 299 287 299 c 0
 371 299 449 352 449 473 c 0
188 -5 m 1
 110 -4 l 1
 220 558 l 1
 189 556 160 546 142 453 c 1
 63 453 l 1
 88 585 132 626 232 632 c 0
 258 634 301 636 366 636 c 0
 481 636 530 581 530 492 c 0
 530 310 422 225 297 225 c 0
 274 225 253 225 233 226 c 1
 208 98 203 71 188 -5 c 1
EndSplineSet
EndChar
StartChar: uni01EA
Encoding: 490 490 514
Width: 517
VWidth: 0
Flags: HW
HStem: -232 70<179 287> 571 75<254 394>
VStem: 29 79<110 336> 98 78<-157 -79> 438 72<276 521>
LayerCount: 2
Fore
SplineSet
344 646 m 1xe8
 386 646 510 613 510 420 c 0
 510 387 506 351 498 309 c 1
 497 303 l 2
 481 223 444 139 412 94 c 1
 338 -16 195 -29 176 -121 c 0
 176 -123 175 -126 175 -128 c 0
 175 -150 199 -162 227 -162 c 0
 255 -162 278 -146 295 -135 c 1
 324 -187 l 1
 298 -210 250 -232 211 -232 c 0
 132 -232 98 -198 98 -147 c 0xd8
 98 -139 98 -130 100 -121 c 0
 109 -73 136 -43 182 -6 c 1
 133 0 88 21 63 62 c 0
 41 98 29 143 29 195 c 0
 29 221 32 249 38 278 c 0
 71 446 128 531 171 577 c 0
 212 621 267 645 344 646 c 1xe8
125 118 m 0
 143 86 173 67 226 67 c 0
 283 67 324 99 354 140 c 1
 379 171 413 253 423 305 c 0
 430 342 438 386 438 427 c 0
 438 450 435 473 429 493 c 0
 411 549 375 571 332 571 c 0
 286 571 256 558 220 521 c 0
 178 478 140 408 115 280 c 0
 111 259 108 232 108 207 c 0xe8
 108 172 113 139 125 118 c 0
EndSplineSet
EndChar
StartChar: uni01EB
Encoding: 491 491 515
Width: 517
VWidth: 0
Flags: HW
HStem: -231 70<156 264> 429 75<215 354>
VStem: 38 77<107 292> 75 78<-155 -87> 384 78<203 399>
LayerCount: 2
Fore
SplineSet
303 105 m 1xe8
 341 135 362 187 376 259 c 0
 376 262 378 265 378 268 c 0
 381 288 384 306 384 323 c 0
 384 385 358 429 291 429 c 0
 189 429 143 348 120 229 c 0
 117 211 115 195 115 180 c 0
 115 115 148 76 214 76 c 1
 251 76 275 84 303 105 c 1xe8
369 73 m 1
 295 -12 163 -66 153 -120 c 0
 153 -122 152 -125 152 -127 c 0
 152 -149 176 -161 204 -161 c 0
 232 -161 255 -145 272 -134 c 1
 300 -186 l 1
 274 -209 227 -231 188 -231 c 0
 109 -231 75 -198 75 -146 c 0xd8
 75 -138 75 -129 77 -120 c 0
 87 -70 135 -35 186 1 c 1
 86 6 38 73 38 170 c 0
 38 192 40 215 45 239 c 0
 73 382 146 504 289 504 c 0
 408 504 462 434 462 327 c 0
 462 303 459 276 454 248 c 0
 440 174 414 122 369 73 c 1
EndSplineSet
EndChar
StartChar: uni0228
Encoding: 552 552 482
Width: 517
VWidth: 0
Flags: HW
HStem: -197 61<93 199> -1 74<103 143 209 408> 325 73<168 382> 559 75<199 521>
VStem: 143 65<-31 -1> 202 67<-130 -83>
LayerCount: 2
Fore
SplineSet
136 631 m 1xf8
 164 633 198 633 236 633 c 0
 251 633 267 633 284 633 c 2
 337 633 l 2
 410 633 477 632 513 632 c 2
 521 632 l 1
 521 559 l 1
 199 559 l 1
 168 398 l 1
 382 398 l 1
 382 325 l 1
 153 325 l 1
 151 311 l 1
 132 212 110 110 103 72 c 1
 356 72 l 2
 383 72 408 82 408 82 c 1
 432 13 l 1
 410 4 389 -1 352 -1 c 2
 214 -1 l 1
 212 -11 208 -30 208 -31 c 1xf8
 248 -33 270 -55 270 -93 c 0
 270 -100 268 -107 267 -115 c 0
 257 -164 202 -197 161 -197 c 0
 129 -197 96 -185 72 -167 c 1
 101 -115 l 1
 116 -124 133 -136 158 -136 c 0
 176 -136 197 -126 202 -107 c 1
 202 -106 l 2xf4
 202 -105 203 -104 203 -103 c 0
 203 -90 187 -80 166 -80 c 0
 143 -80 141 -83 126 -88 c 1
 143 -1 l 1
 13 -1 l 1
 136 631 l 1xf8
EndSplineSet
EndChar
StartChar: uni0229
Encoding: 553 553 483
Width: 517
VWidth: 0
Flags: HW
HStem: -193 61<118 224> -4 74<233 333> 424 74<219 372>
VStem: 42 78<103 168> 227 67<-126 -79> 396 71<311 401>
LayerCount: 2
Fore
SplineSet
128 240 m 1
 184 244 286 251 342 284 c 0
 379 306 396 334 396 359 c 0
 396 395 361 424 295 424 c 0
 212 424 152 363 128 240 c 1
309 499 m 0
 414 499 467 432 467 361 c 0
 467 312 441 261 388 228 c 0
 313 183 190 172 120 167 c 1
 120 166 120 163 120 161 c 0
 120 126 139 70 234 70 c 0
 321 70 370 110 394 136 c 1
 443 83 l 1
 420 62 366 2 237 -4 c 1
 235 -14 232 -26 232 -27 c 1
 272 -29 294 -51 294 -89 c 0
 294 -96 293 -103 292 -111 c 0
 282 -160 227 -193 186 -193 c 0
 154 -193 121 -181 97 -163 c 1
 126 -111 l 1
 141 -120 158 -132 183 -132 c 0
 201 -132 222 -123 227 -104 c 1
 227 -103 l 2
 227 -102 228 -100 228 -99 c 0
 228 -86 211 -76 190 -76 c 0
 167 -76 166 -79 151 -84 c 1
 167 0 l 1
 82 18 42 81 42 174 c 0
 42 198 45 224 50 252 c 0
 77 392 171 499 309 499 c 0
EndSplineSet
EndChar
StartChar: uni0237
Encoding: 567 567 330
Width: 517
VWidth: 0
Flags: HW
HStem: -189 76<103 233> 436 73<246 344>
VStem: 347 76<279 435>
LayerCount: 2
Fore
SplineSet
419 365 m 2
 334 -58 l 0
 320 -129 279 -189 163 -189 c 3
 103 -189 35 -178 -7 -78 c 1
 63 -30 l 1
 96 -109 136 -113 167 -113 c 0
 170 -113 174 -113 176 -113 c 3
 231 -113 255 -73 259 -56 c 1
 345 372 l 2
 346 378 347 386 347 394 c 0
 347 414 341 436 320 436 c 0
 319 436 l 0
 295 436 264 435 205 381 c 1
 157 446 l 1
 223 489 255 508 321 508 c 0
 407 508 423 461 423 408 c 0
 423 396 421 377 419 365 c 2
EndSplineSet
EndChar
StartChar: ring
Encoding: 730 730 737
Width: 517
VWidth: -12
Flags: HW
HStem: 450 61<251 327> 580 61<256 333>
VStem: 185 64<514 572> 334 65<519 577>
LayerCount: 2
Fore
SplineSet
250 546 m 0
 250 545 249 543 249 542 c 0
 249 526 263 511 285 511 c 0
 310 511 330 529 333 546 c 0
 333 548 334 550 334 552 c 0
 334 567 321 580 298 580 c 0
 273 580 253 563 250 546 c 0
186 545 m 0
 197 599 255 641 311 641 c 0
 361 641 399 607 399 562 c 0
 399 557 398 551 397 545 c 0
 386 491 329 450 273 450 c 0
 223 450 185 483 185 529 c 0
 185 534 185 539 186 545 c 0
EndSplineSet
EndChar
StartChar: gravecomb
Encoding: 768 768 320
Width: 517
VWidth: -20
Flags: HW
HStem: 625 259
VStem: 244 241
LayerCount: 2
Fore
SplineSet
485 685 m 1
 433 625 l 1
 372 667 280 765 244 833 c 1
 322 884 l 1
 361 818 424 727 485 685 c 1
EndSplineSet
EndChar
StartChar: acutecomb
Encoding: 769 769 321
Width: 517
VWidth: -20
Flags: HW
HStem: 625 73<236 260>
VStem: 208 299
LayerCount: 2
Fore
SplineSet
208 698 m 1
 279 719 392 799 450 850 c 1
 507 777 l 1
 451 724 310 646 239 625 c 1
 208 698 l 1
EndSplineSet
EndChar
StartChar: uni0302
Encoding: 770 770 322
Width: 517
VWidth: -4
Flags: HW
HStem: 620 209
LayerCount: 2
Fore
SplineSet
387 830 m 1
 530 670 l 1
 473 620 l 1
 374 733 l 1
 208 618 l 1
 166 677 l 1
 387 830 l 1
EndSplineSet
EndChar
StartChar: tildecomb
Encoding: 771 771 323
Width: 517
VWidth: -5
Flags: HW
HStem: 689 75<378 482> 752 75<232 333>
LayerCount: 2
Fore
SplineSet
292 827 m 0x40
 358 827 379 764 423 764 c 0
 465 764 492 783 507 826 c 1
 582 798 l 1
 555 739 500 689 426 689 c 0x80
 347 689 333 752 292 752 c 0
 254 752 226 739 198 687 c 1
 125 723 l 1
 177 803 227 827 292 827 c 0x40
EndSplineSet
EndChar
StartChar: uni0304
Encoding: 772 772 324
Width: 517
VWidth: -16
Flags: HW
HStem: 719 74<242 450>
VStem: 229 236
LayerCount: 2
Fore
SplineSet
464 793 m 1
 450 719 l 1
 441 719 l 0
 413 718 379 718 343 718 c 0
 307 718 270 718 237 719 c 0
 229 720 l 1
 243 795 l 1
 252 794 l 0
 284 793 331 793 376 793 c 0
 406 793 434 793 456 793 c 0
 464 793 l 1
EndSplineSet
EndChar
StartChar: uni0305
Encoding: 773 773 325
Width: 517
VWidth: -16
Flags: HW
HStem: 719 76<160 523>
LayerCount: 2
Fore
SplineSet
538 793 m 1
 523 719 l 1
 146 719 l 1
 160 795 l 1
 538 793 l 1
EndSplineSet
EndChar
StartChar: uni0306
Encoding: 774 774 326
Width: 517
VWidth: -5
Flags: HW
HStem: 663 75<292 425>
VStem: 192 80<758 804>
LayerCount: 2
Fore
SplineSet
356 737 m 0
 409 737 459 774 469 812 c 1
 547 797 l 1
 519 711 440 663 341 663 c 1
 279 663 194 694 192 804 c 1
 272 811 l 1
 274 754 311 737 356 737 c 0
EndSplineSet
EndChar
StartChar: uni0307
Encoding: 775 775 328
Width: 517
VWidth: -13
Flags: HW
HStem: 696 110<283 377>
VStem: 262 136
LayerCount: 2
Fore
SplineSet
283 806 m 1
 398 805 l 1
 377 695 l 1
 262 696 l 1
 283 806 l 1
EndSplineSet
EndChar
StartChar: uni0308
Encoding: 776 776 327
Width: 517
VWidth: -13
Flags: HW
HStem: 690 110<206 299 403 497>
LayerCount: 2
Fore
SplineSet
403 800 m 1
 518 798 l 1
 497 688 l 1
 382 690 l 1
 403 800 l 1
206 801 m 1
 320 800 l 1
 299 690 l 1
 184 691 l 1
 206 801 l 1
EndSplineSet
EndChar
StartChar: hookabovecomb
Encoding: 777 777 334
Width: 517
VWidth: 5
Flags: HW
HStem: 465 85<307 363> 606 61<299 390>
VStem: 289 71<467 503> 390 69<557 603>
LayerCount: 2
Fore
SplineSet
359 465 m 1
 289 467 l 1
 307 559 l 1
 320 554 320 551 343 551 c 0
 366 551 387 563 390 577 c 2
 390 578 l 1
 390 579 390 580 390 581 c 0
 390 598 373 606 356 606 c 0
 331 606 310 595 292 586 c 1
 284 638 l 1
 315 656 352 667 384 667 c 0
 421 667 459 642 459 600 c 0
 459 596 459 590 458 585 c 0
 448 534 414 504 366 502 c 1
 366 501 359 469 359 465 c 1
EndSplineSet
EndChar
StartChar: uni030A
Encoding: 778 778 329
Width: 517
VWidth: -3
Flags: HW
HStem: 628 57<314 395> 753 61<319 400>
VStem: 244 68<687 746> 402 69<693 750>
LayerCount: 2
Fore
SplineSet
364 753 m 0
 337 753 316 736 313 719 c 0
 313 718 312 715 312 714 c 0
 312 699 327 685 351 685 c 0
 377 685 398 702 401 719 c 0
 401 720 402 723 402 724 c 0
 402 739 388 753 364 753 c 0
246 719 m 0
 257 773 316 814 376 814 c 0
 430 814 471 781 471 735 c 0
 471 730 470 724 469 719 c 0
 459 665 405 628 340 628 c 0
 284 628 244 659 244 704 c 0
 244 709 245 714 246 719 c 0
EndSplineSet
EndChar
StartChar: uni030B
Encoding: 779 779 331
Width: 517
VWidth: -20
Flags: HW
HStem: 565 271
LayerCount: 2
Fore
SplineSet
301 622 m 1
 358 668 439 767 473 836 c 1
 548 788 l 1
 516 718 415 611 358 565 c 1
 301 622 l 1
138 625 m 1
 195 671 275 771 309 840 c 1
 384 792 l 1
 352 722 251 615 193 569 c 1
 138 625 l 1
EndSplineSet
EndChar
StartChar: uni030C
Encoding: 780 780 332
Width: 517
VWidth: -4
Flags: HW
HStem: 596 215
LayerCount: 2
Fore
SplineSet
334 596 m 1
 189 753 l 1
 245 804 l 1
 346 693 l 1
 510 811 l 1
 553 751 l 1
 334 596 l 1
EndSplineSet
EndChar
StartChar: uni030D
Encoding: 781 781 335
Width: 517
VWidth: -16
Flags: HW
HStem: 625 170<324 369>
VStem: 292 111
LayerCount: 2
Fore
SplineSet
324 795 m 1
 402 795 l 1
 369 625 l 1
 292 625 l 1
 324 795 l 1
EndSplineSet
EndChar
StartChar: uni030F
Encoding: 783 783 333
Width: 517
VWidth: -20
Flags: HW
HStem: 570 258
VStem: 188 86<742 803> 345 86<745 806>
LayerCount: 2
Fore
SplineSet
519 608 m 1
 449 570 l 1
 407 630 356 728 345 804 c 1
 431 828 l 1
 444 752 477 669 519 608 c 1
360 605 m 1
 291 567 l 1
 249 628 198 725 188 801 c 1
 273 825 l 1
 286 749 319 666 360 605 c 1
EndSplineSet
EndChar
StartChar: uni0311
Encoding: 785 785 492
Width: 517
VWidth: -5
Flags: HW
HStem: 737 75<284 426>
VStem: 438 83<683 723>
LayerCount: 2
Fore
SplineSet
356 737 m 0
 311 737 268 721 244 664 c 1
 162 681 l 1
 207 791 302 812 381 812 c 1
 459 812 515 764 522 691 c 0
 522 689 522 685 522 683 c 1
 438 668 l 1
 438 670 438 673 438 675 c 0
 438 710 427 737 356 737 c 0
EndSplineSet
EndChar
StartChar: uni0312
Encoding: 786 786 494
Width: 517
VWidth: -20
Flags: HW
HStem: 603 205
VStem: 220 160
LayerCount: 2
Fore
SplineSet
220 626 m 1
 249 681 273 734 309 808 c 1
 380 792 l 1
 358 723 331 653 311 603 c 1
 220 626 l 1
EndSplineSet
EndChar
StartChar: uni0313
Encoding: 787 787 495
Width: 517
VWidth: 12
Flags: HW
HStem: 537 243
VStem: 274 157
LayerCount: 2
Fore
SplineSet
324 780 m 1
 431 780 l 1
 411 675 l 1
 397 601 357 564 289 537 c 1
 274 599 l 1
 306 613 322 624 331 672 c 1
 303 672 l 1
 324 780 l 1
EndSplineSet
EndChar
StartChar: uni0314
Encoding: 788 788 496
Width: 517
VWidth: 12
Flags: HW
HStem: 537 243<330 369>
VStem: 292 79<589 672>
LayerCount: 2
Fore
SplineSet
423 780 m 1
 402 672 l 1
 374 672 l 1
 372 660 371 651 371 643 c 0
 371 618 381 609 402 599 c 1
 364 537 l 1
 317 559 292 588 292 638 c 0
 292 649 293 662 295 675 c 1
 315 780 l 1
 423 780 l 1
EndSplineSet
EndChar
StartChar: uni0326
Encoding: 806 806 518
Width: 517
VWidth: 12
Flags: HW
HStem: -241 243
VStem: 134 157
LayerCount: 2
Fore
SplineSet
184 2 m 1
 291 2 l 1
 271 -103 l 2
 257 -177 216 -214 148 -241 c 1
 134 -179 l 1
 166 -165 181 -154 190 -106 c 1
 163 -106 l 1
 184 2 l 1
EndSplineSet
EndChar
StartChar: uni0328
Encoding: 808 808 510
Width: 517
VWidth: 5
Flags: HW
HStem: -217 70<173 281>
VStem: 92 78<-141 -79>
LayerCount: 2
Fore
SplineSet
350 20 m 0
 290 -22 177 -69 170 -105 c 0
 170 -107 169 -111 169 -113 c 0
 169 -135 193 -146 221 -146 c 0
 249 -146 272 -131 289 -120 c 1
 317 -171 l 1
 291 -194 245 -217 206 -217 c 0
 127 -217 92 -183 92 -131 c 0
 92 -123 92 -114 94 -105 c 0
 111 -17 244 3 274 33 c 1
 350 20 l 0
EndSplineSet
EndChar
StartChar: tonos
Encoding: 900 900 390
Width: 517
VWidth: -20
Flags: HW
HStem: 597 240
VStem: 268 204
LayerCount: 2
Fore
SplineSet
268 643 m 1
 326 700 357 761 391 836 c 1
 472 806 l 1
 442 731 380 654 323 597 c 1
 268 643 l 1
EndSplineSet
EndChar
StartChar: Alpha
Encoding: 913 913 366
Width: 517
VWidth: 0
Flags: HW
HStem: -9 10G<-13 56 367 424> 159 80<177 340> 624 10G<306 368>
LayerCount: 2
Fore
SplineSet
312 634 m 1
 366 634 l 1
 451 5 l 1
 368 -9 l 1
 353 159 l 1
 284 158 189 158 132 145 c 1
 51 -12 l 1
 -25 0 l 1
 312 634 l 1
340 239 m 1
 309 479 l 1
 176 229 l 1
 207 235 231 237 272 239 c 1
 340 239 l 1
EndSplineSet
EndChar
StartChar: Beta
Encoding: 914 914 367
Width: 517
VWidth: 0
Flags: HW
HStem: 1 73<101 316> 316 76<165 303> 562 73<194 328>
VStem: 348 79<480 541> 388 77<151 280>
LayerCount: 2
Fore
SplineSet
364 282 m 0xe8
 334 312 305 317 259 317 c 0
 235 317 207 316 171 316 c 2
 149 316 l 1
 126 200 109 112 101 75 c 1
 154 75 171 71 208 71 c 0
 228 71 245 73 263 75 c 0
 316 81 371 130 385 200 c 0
 387 210 388 219 388 227 c 0
 388 250 380 266 364 282 c 0xe8
346 484 m 2
 347 490 348 495 348 500 c 0xf0
 348 543 307 562 247 562 c 2
 239 562 l 2
 220 562 212 560 197 559 c 1
 195 541 191 520 187 497 c 0
 181 464 172 428 165 392 c 1
 237 393 261 390 310 417 c 0
 325 425 340 451 345 480 c 2
 346 484 l 2
89 402 m 0
 106 486 119 565 127 627 c 1
 167 630 192 634 247 634 c 0
 250 634 252 634 255 634 c 0
 346 634 427 602 427 519 c 0xf0
 427 510 426 499 424 489 c 0
 415 442 394 402 359 375 c 1
 420 353 464 302 464 230 c 0xe8
 464 218 462 205 460 192 c 0
 439 82 353 11 270 1 c 0
 250 -1 229 -2 210 -2 c 0
 168 -2 126 1 73 1 c 2
 7 1 l 1
 26 96 49 199 89 402 c 0
EndSplineSet
EndChar
StartChar: Gamma
Encoding: 915 915 368
Width: 517
VWidth: 0
Flags: HW
HStem: 0 10G<18 98> 560 75<205 516>
LayerCount: 2
Fore
SplineSet
141 635 m 1
 475 635 l 2
 512 635 529 629 550 621 c 1
 517 549 l 1
 497 556 487 559 459 560 c 1
 205 560 l 1
 96 0 l 1
 18 0 l 1
 141 635 l 1
EndSplineSet
EndChar
StartChar: Delta
Encoding: 916 916 382
Width: 517
VWidth: 0
Flags: HW
HStem: 0 74<93 364> 624 10G<306 368>
LayerCount: 2
Fore
SplineSet
371 0 m 1
 54 -2 l 1
 -23 9 l 1
 312 634 l 1
 366 634 l 1
 454 15 l 1
 371 0 l 1
309 479 m 1
 236 340 164 214 93 74 c 1
 364 74 l 1
 352 217 327 341 309 479 c 1
EndSplineSet
EndChar
StartChar: Zeta
Encoding: 918 918 370
Width: 517
VWidth: 0
Flags: HW
HStem: -1 75<106 431> 562 74<129 441>
LayerCount: 2
Fore
SplineSet
23 -2 m 1
 -15 41 l 1
 441 562 l 1
 337 562 172 559 116 559 c 1
 129 634 l 1
 188 634 394 636 486 636 c 0
 523 636 544 629 553 628 c 1
 549 612 535 572 531 561 c 1
 106 74 l 1
 344 73 l 2
 386 73 399 75 433 85 c 1
 438 13 l 1
 415 5 395 -1 358 -1 c 2
 239 -1 l 2
 135 -1 49 -2 26 -2 c 2
 23 -2 l 1
EndSplineSet
EndChar
StartChar: Theta
Encoding: 920 920 372
Width: 517
VWidth: 0
Flags: HW
HStem: -8 75<151 300> 279 75<177 364> 571 75<254 391>
VStem: 29 79<110 336> 432 78<268 521>
LayerCount: 2
Fore
SplineSet
125 118 m 0
 143 86 173 67 226 67 c 0
 283 67 324 99 354 140 c 1
 379 171 409 253 420 305 c 1
 422 314 l 2
 428 345 432 382 432 417 c 0
 432 445 429 473 422 495 c 0
 404 551 375 571 332 571 c 0
 286 571 256 558 220 521 c 0
 178 478 140 408 115 280 c 0
 111 259 108 232 108 207 c 0
 108 172 113 139 125 118 c 0
344 646 m 1
 395 646 510 620 510 429 c 0
 510 394 507 355 498 309 c 1
 497 303 l 2
 481 223 445 148 413 103 c 0
 363 33 292 -8 211 -8 c 0
 151 -8 93 13 63 62 c 0
 41 98 29 143 29 195 c 0
 29 221 32 249 38 278 c 0
 71 446 122 519 165 565 c 0
 206 609 267 645 344 646 c 1
177 354 m 1
 379 354 l 1
 364 279 l 1
 162 279 l 1
 177 354 l 1
EndSplineSet
EndChar
StartChar: Iota
Encoding: 921 921 373
Width: 517
VWidth: 0
Flags: HW
HStem: 2 72<42 184 262 378> 559 75<151 279 357 489>
LayerCount: 2
Fore
SplineSet
151 634 m 1
 228 636 277 636 324 636 c 0
 375 636 423 635 503 634 c 1
 489 560 l 1
 429 560 404 562 357 562 c 1
 262 74 l 1
 284 74 297 75 322 75 c 0
 344 75 367 74 392 73 c 1
 378 -0 l 1
 337 2 307 2 276 2 c 0
 253 2 229 2 200 2 c 0
 164 2 104 -1 28 -1 c 1
 42 71 l 1
 84 73 119 74 147 74 c 2
 184 74 l 1
 279 562 l 1
 247 562 191 562 139 559 c 1
 151 634 l 1
EndSplineSet
EndChar
StartChar: Lambda
Encoding: 923 923 383
Width: 517
VWidth: 0
Flags: HW
HStem: -9 10G<-13 97 357 424> 624 10G<306 368>
LayerCount: 2
Fore
SplineSet
368 -9 m 1
 347 156 330 317 309 479 c 1
 222 317 143 149 51 -12 c 1
 -25 0 l 1
 312 634 l 1
 366 634 l 1
 451 5 l 1
 368 -9 l 1
EndSplineSet
EndChar
StartChar: Mu
Encoding: 924 924 375
Width: 517
VWidth: 15
Flags: HW
HStem: -2 10G<-7 72 320 398> 631 10G<116 178 438 521>
VStem: 464 57<614 641>
LayerCount: 2
Fore
SplineSet
116 637 m 1
 166 641 l 1
 189 594 211 518 233 458 c 0
 249 414 257 390 263 371 c 1
 318 447 412 578 464 641 c 1
 521 641 l 1
 396 -2 l 1
 320 -2 l 1
 407 449 l 1
 358 380 281 281 272 263 c 1
 212 265 l 1
 210 273 193 326 166 409 c 1
 160 430 161 425 156 439 c 1
 70 -2 l 1
 -7 -2 l 1
 116 637 l 1
EndSplineSet
EndChar
StartChar: Xi
Encoding: 926 926 384
Width: 517
VWidth: 0
Flags: HW
HStem: -1 73<26 419> 325 73<168 367> 559 75<136 506>
LayerCount: 2
Fore
SplineSet
168 398 m 1
 382 398 l 1
 367 325 l 1
 153 325 l 1
 168 398 l 1
136 631 m 1
 164 633 198 633 236 633 c 0
 251 633 267 633 284 633 c 2
 337 633 l 2
 410 633 477 632 513 632 c 2
 521 632 l 1
 506 559 l 1
 123 559 l 1
 136 631 l 1
26 72 m 1
 359 73 l 2
 386 73 419 85 419 85 c 1
 426 13 l 1
 401 7 383 -1 346 -1 c 2
 13 -1 l 1
 26 72 l 1
EndSplineSet
EndChar
StartChar: Pi
Encoding: 928 928 385
Width: 517
VWidth: 0
Flags: HW
HStem: 0 10G<31 112 346 421> 559 74<218 439 517 560>
VStem: 345 77<4 179>
LayerCount: 2
Fore
SplineSet
110 0 m 1
 31 0 l 1
 139 552 l 1
 124 550 110 548 95 545 c 1
 100 619 l 1
 147 629 193 633 252 633 c 2
 575 633 l 1
 560 559 l 1
 517 559 l 1
 444 185 l 2
 432 123 425 61 421 4 c 1
 345 -2 l 1
 347 57 356 125 368 188 c 2
 439 559 l 1
 277 559 l 2
 256 559 237 558 218 558 c 1
 110 0 l 1
EndSplineSet
EndChar
StartChar: Rho
Encoding: 929 929 378
Width: 517
VWidth: 0
Flags: HW
HStem: -5 10G<13 98> 225 74<150 352> 562 74<201 406>
VStem: 450 81<389 526>
LayerCount: 2
Fore
SplineSet
90 -5 m 1
 13 -4 l 1
 137 632 l 1
 195 632 214 636 279 636 c 0
 389 636 471 629 514 562 c 0
 526 542 531 518 531 492 c 0
 531 476 529 459 526 442 c 0
 517 398 505 349 467 307 c 0
 406 239 327 225 210 225 c 0
 187 225 162 225 136 226 c 1
 111 98 105 71 90 -5 c 1
447 439 m 0
 449 450 450 461 450 470 c 0
 450 545 381 560 275 562 c 1
 245 562 223 560 201 560 c 1
 189 498 l 2
 171 409 150 299 150 299 c 1
 168 299 184 299 200 299 c 0
 340 299 426 328 447 439 c 0
EndSplineSet
EndChar
StartChar: Sigma
Encoding: 931 931 386
Width: 517
VWidth: 0
Flags: HW
HStem: -1 73<107 419> 559 75<229 506>
LayerCount: 2
Fore
SplineSet
229 559 m 1
 398 367 l 1
 383 303 l 1
 107 72 l 1
 359 73 l 2
 386 73 419 85 419 85 c 1
 426 13 l 1
 401 7 383 -1 346 -1 c 2
 13 -1 l 1
 17 84 l 1
 319 335 l 1
 109 571 l 1
 136 631 l 1
 164 633 198 633 236 633 c 0
 251 633 267 633 284 633 c 2
 337 633 l 2
 410 633 477 632 513 632 c 2
 521 632 l 1
 506 559 l 1
 229 559 l 1
EndSplineSet
EndChar
StartChar: Tau
Encoding: 932 932 379
Width: 517
VWidth: 0
Flags: HW
HStem: -4 10G<159 239> 559 76<105 269 347 515>
LayerCount: 2
Fore
SplineSet
159 -4 m 1
 269 559 l 1
 172 559 128 558 91 558 c 1
 105 634 l 1
 165 634 387 634 479 634 c 0
 515 634 538 628 546 627 c 1
 515 553 l 1
 515 553 485 559 461 559 c 2
 347 559 l 1
 237 -4 l 1
 159 -4 l 1
EndSplineSet
EndChar
StartChar: Upsilon
Encoding: 933 933 380
Width: 517
VWidth: 0
Flags: HW
HStem: -3 10G<158 238> 639 10G<153 180 482 510>
LayerCount: 2
Fore
SplineSet
158 -3 m 1
 171 66 l 2
 179 110 208 235 219 293 c 1
 191 347 114 562 99 614 c 1
 174 648 l 1
 186 610 247 438 276 371 c 1
 337 439 468 613 495 655 c 1
 555 616 l 1
 523 570 474 501 407 419 c 1
 352 355 308 301 296 288 c 1
 292 265 286 241 281 215 c 1
 267 151 252 82 248 61 c 2
 236 -3 l 1
 158 -3 l 1
EndSplineSet
EndChar
StartChar: Phi
Encoding: 934 934 387
Width: 517
VWidth: 0
Flags: HW
HStem: 0 10G<166 247> 83 81<148 183> 480 75<353 389> 628 10G<289 369>
VStem: 35 81<194 355> 427 79<312 441>
LayerCount: 2
Fore
SplineSet
183 83 m 1
 140 89 100 105 76 131 c 0
 49 160 35 199 35 243 c 0
 35 258 37 273 40 289 c 0
 64 412 111 465 152 499 c 0
 181 523 223 543 274 552 c 1
 276 565 280 579 282 593 c 2
 291 638 l 1
 369 638 l 1
 355 567 l 1
 353 556 l 1
 413 549 505 514 505 379 c 0
 505 358 504 336 499 311 c 1
 498 307 l 2
 487 248 454 194 424 161 c 0
 384 117 328 89 262 82 c 1
 260 69 258 60 256 50 c 0
 254 36 250 22 245 0 c 1
 166 0 l 1
 170 15 171 24 172 31 c 0
 173 38 176 45 178 59 c 0
 179 66 182 74 183 83 c 1
277 162 m 1
 316 168 345 185 366 206 c 1
 389 226 414 279 421 312 c 1
 422 317 l 2
 424 331 427 348 427 364 c 0
 427 389 423 414 411 434 c 0
 393 463 369 476 338 480 c 1
 321 389 306 312 282 187 c 2
 277 162 l 1
198 164 m 1
 222 286 240 381 259 476 c 1
 240 471 224 463 206 450 c 0
 167 422 135 377 119 295 c 0
 118 286 116 277 116 267 c 0
 116 239 123 209 140 192 c 0
 154 178 172 169 198 164 c 1
EndSplineSet
EndChar
StartChar: Chi
Encoding: 935 935 381
Width: 517
VWidth: 0
Flags: HW
HStem: 645 5G<147 187 470 492>
LayerCount: 2
Fore
SplineSet
478 654 m 1
 536 613 l 1
 303 321 l 1
 361 191 392 105 448 38 c 1
 387 -18 l 1
 327 54 296 130 245 248 c 1
 39 -15 l 1
 -18 26 l 1
 211 319 l 1
 172 419 146 528 92 604 c 1
 162 650 l 1
 212 579 237 474 271 390 c 1
 478 654 l 1
EndSplineSet
EndChar
StartChar: Psi
Encoding: 936 936 388
Width: 517
VWidth: 2
Flags: HW
HStem: 0 10G<185 270> 197 78<172 225 321 398> 636 4G<132 191 302 391 504 581>
VStem: 69 79<297 470> 112 80<488 636> 504 78<495 634>
LayerCount: 2
Fore
SplineSet
73 376 m 0xf4
 79 405 83 433 88 458 c 0
 102 529 112 581 112 615 c 0
 112 622 112 627 111 632 c 1
 191 646 l 1
 191 643 192 639 192 636 c 0xec
 192 601 182 548 167 470 c 0
 163 447 157 422 152 394 c 0
 149 380 148 367 148 356 c 0
 148 292 191 274 241 274 c 1
 246 299 251 325 256 350 c 0
 276 450 294 548 312 640 c 1
 391 640 l 1
 373 547 357 459 338 363 c 0
 333 334 327 305 321 274 c 1
 428 274 453 332 486 502 c 1
 494 547 501 596 504 634 c 1
 582 642 l 1
 579 602 571 553 565 521 c 0
 564 515 563 509 562 504 c 0
 525 315 484 214 305 197 c 1
 291 129 277 62 263 0 c 1
 185 0 l 1
 193 30 208 107 213 134 c 0
 217 154 221 176 225 197 c 1
 119 207 69 267 69 341 c 0
 69 353 71 364 73 376 c 0xf4
EndSplineSet
EndChar
StartChar: Omega
Encoding: 937 937 389
Width: 517
VWidth: 0
Flags: HW
HStem: 0 73<-6 76 366 464> 571 75<244 410>
VStem: 26 79<153 373> 458 75<311 522>
LayerCount: 2
Fore
SplineSet
156 0 m 1
 -19 0 l 1
 -6 74 l 1
 76 74 l 1
 49 119 26 182 26 249 c 0
 26 267 28 285 31 303 c 0
 64 471 108 519 151 565 c 0
 192 609 260 646 344 646 c 0
 439 646 533 616 533 454 c 0
 533 420 529 379 520 333 c 2
 519 328 l 2
 496 206 419 122 366 74 c 1
 405 74 l 2
 432 74 464 87 464 87 c 1
 472 15 l 1
 448 9 429 0 394 0 c 0
 393 0 392 0 391 0 c 2
 260 0 l 1
 260 72 l 1
 302 102 413 187 441 330 c 2
 443 339 l 2
 444 345 446 350 447 356 c 0
 453 386 458 415 458 443 c 0
 458 462 456 480 450 498 c 0
 432 554 375 571 332 571 c 0
 286 571 242 557 206 520 c 0
 164 477 134 433 109 305 c 0
 106 290 105 276 105 261 c 0
 105 172 153 88 184 74 c 1
 156 0 l 1
EndSplineSet
EndChar
StartChar: alpha
Encoding: 945 945 339
Width: 517
VWidth: 1
Flags: HW
HStem: -3 77<147 238> 422 75<202 300> 495 10G<458 490>
VStem: 39 79<102 306>
LayerCount: 2
Fore
SplineSet
125 257 m 0xd0
 120 228 118 205 118 184 c 0
 118 76 184 73 191 73 c 2
 197 73 l 2
 239 73 290 154 340 250 c 1
 328 373 309 422 252 422 c 0
 214 422 147 374 125 257 c 0xd0
406 227 m 1
 410 189 415 146 421 99 c 0
 425 71 443 60 469 53 c 1
 422 -16 l 1
 362 0 353 59 350 88 c 0
 349 99 347 110 346 121 c 1
 300 49 249 -3 185 -3 c 0
 77 -3 39 74 39 169 c 0
 39 197 42 227 48 257 c 0
 83 436 187 497 272 497 c 0xd0
 353 497 379 459 396 363 c 1
 420 411 446 460 472 505 c 1xb0
 536 471 l 1
 493 409 448 309 406 227 c 1
EndSplineSet
EndChar
StartChar: beta
Encoding: 946 946 340
Width: 517
VWidth: 0
Flags: HW
HStem: 0 75<173 332> 327 75<185 312> 574 74<212 337>
VStem: -26 72<-139 -58> 354 78<443 556> 391 76<143 288>
LayerCount: 2
Fore
SplineSet
271 75 m 0xf8
 331 75 374 128 387 193 c 0
 389 206 391 218 391 229 c 0xf4
 391 322 296 327 170 327 c 1
 185 401 l 1
 266 401 334 402 352 491 c 0
 353 498 354 505 354 511 c 0
 354 553 324 574 266 574 c 1
 219 574 179 529 171 485 c 0
 162 436 136 297 114 179 c 1
 145 94 188 75 271 75 c 0xf8
90 55 m 1
 87 41 85 29 83 19 c 0
 71 -42 59 -99 46 -146 c 1
 -26 -138 l 1
 -12 -89 -1 -36 10 18 c 0
 28 109 81 405 98 490 c 0
 113 566 183 648 280 648 c 0
 367 648 432 613 432 530 c 0xf8
 432 519 430 507 428 494 c 0
 418 444 396 406 364 380 c 1
 430 360 466 315 466 241 c 0
 466 224 464 206 460 186 c 0
 440 83 379 1 256 0 c 0
 255 0 253 0 252 0 c 0
 177 0 127 19 90 55 c 1
EndSplineSet
EndChar
StartChar: gamma
Encoding: 947 947 341
Width: 517
VWidth: 6
Flags: HW
HStem: 499 10G<70 80 459 484>
LayerCount: 2
Fore
SplineSet
167 -184 m 1
 177 -133 199 -13 199 29 c 0
 199 30 199 32 199 33 c 0
 195 154 156 306 125 383 c 0
 113 412 99 427 94 430 c 0
 88 434 77 434 65 434 c 0
 63 434 60 434 58 434 c 1
 72 508 l 1
 88 508 107 508 120 506 c 0
 150 501 169 476 190 431 c 0
 223 357 250 238 265 140 c 1
 322 246 459 518 459 518 c 1
 529 490 l 1
 529 490 361 190 279 8 c 1
 274 -32 264 -85 253 -142 c 0
 250 -156 248 -171 245 -185 c 1
 167 -184 l 1
EndSplineSet
EndChar
StartChar: delta
Encoding: 948 948 342
Width: 517
VWidth: 2
Flags: HW
HStem: -3 76<150 282> 599 74<229 441>
VStem: 36 79<105 268> 123 82<511 574> 377 79<179 328>
LayerCount: 2
Fore
SplineSet
200 -3 m 2
 199 -3 l 1
 97 -3 36 62 36 161 c 0
 36 292 96 378 202 429 c 1
 160 452 123 479 123 534 c 0
 123 626 206 673 325 673 c 0
 386 673 451 660 507 646 c 1
 473 568 l 1
 411 586 355 599 308 599 c 0
 265 599 205 577 205 541 c 0
 205 530 212 521 222 513 c 1
 316 444 456 411 456 275 c 0
 456 127 359 -3 200 -3 c 2
285 384 m 1
 205 366 115 293 115 180 c 0
 115 115 148 72 214 72 c 1
 312 73 377 184 377 266 c 0
 377 317 343 356 285 384 c 1
EndSplineSet
EndChar
StartChar: epsilon
Encoding: 949 949 343
Width: 517
VWidth: 0
Flags: HW
HStem: -2 75<120 336> 249 74<171 322> 425 75<162 422>
VStem: 20 79<94 190> 67 77<347 408>
LayerCount: 2
Fore
SplineSet
429 64 m 1xf0
 389 38 312 -2 203 -2 c 0
 114 -2 78 15 47 44 c 0
 26 64 20 88 20 112 c 0xf0
 20 124 21 136 23 147 c 0
 35 210 78 267 156 285 c 1
 90 289 67 323 67 363 c 0
 67 370 68 378 69 385 c 0
 83 456 160 500 311 500 c 2
 317 500 l 2
 430 500 461 475 469 469 c 1
 423 405 l 1
 413 412 368 425 297 425 c 0
 197 425 151 413 145 382 c 0
 145 380 145 378 145 376 c 0xe8
 145 326 273 323 325 323 c 2
 328 323 l 1
 336 323 l 1
 322 249 l 1
 309 249 297 249 284 249 c 0
 253 249 223 247 184 233 c 0
 126 213 106 179 100 146 c 0
 99 142 99 138 99 134 c 0
 99 96 138 73 218 73 c 0
 300 73 370 101 399 123 c 1
 429 64 l 1xf0
EndSplineSet
EndChar
StartChar: zeta
Encoding: 950 950 344
Width: 517
VWidth: 0
Flags: HW
HStem: -149 67<229 308> 0 73<150 322> 582 79<181 409> 688 10G<156 174>
VStem: 42 78<101 277> 326 79<-62 -4>
LayerCount: 2
Fore
SplineSet
166 697 m 1
 182 676 200 660 240 660 c 0
 321 660 454 663 519 672 c 1
 536 595 l 1
 449 498 163 425 126 234 c 0
 122 212 120 193 120 176 c 0
 120 107 153 73 212 73 c 0
 213 73 271 74 272 74 c 0
 349 74 404 51 404 -9 c 0
 404 -16 403 -24 402 -32 c 0
 382 -134 273 -144 228 -149 c 1
 229 -82 l 1
 271 -76 319 -68 325 -38 c 0
 326 -34 326 -30 326 -27 c 0
 326 -2 302 0 264 0 c 0
 261 0 257 0 254 0 c 0
 252 0 177 0 175 0 c 0
 95 0 42 57 42 164 c 0
 42 188 45 216 51 246 c 0
 85 420 276 502 412 586 c 1
 348 583 297 582 235 582 c 0
 179 582 134 595 104 635 c 1
 166 697 l 1
EndSplineSet
EndChar
StartChar: eta
Encoding: 951 951 345
Width: 517
VWidth: 2
Flags: HW
HStem: -0 10G<20 96> 426 73<256 387> 498 10G<136 180>
VStem: 100 82<439 491> 302 80<-162 8> 396 82<353 415>
LayerCount: 2
Fore
SplineSet
181 439 m 1xbc
 241 478 301 499 355 499 c 0
 409 499 477 467 477 406 c 0
 477 401 476 395 475 389 c 2
 392 -39 l 2
 387 -64 382 -110 382 -140 c 0
 382 -149 382 -156 383 -161 c 1
 303 -177 l 1
 303 -166 302 -156 302 -145 c 0
 302 -117 304 -87 313 -42 c 2
 395 374 l 2
 395 377 396 380 396 382 c 0
 396 412 361 426 331 426 c 0xdc
 300 426 238 400 166 358 c 1
 96 0 l 1
 19 -0 l 1
 85 344 l 2
 96 402 100 428 100 451 c 0
 100 463 99 474 98 490 c 1
 180 508 l 1
 181 501 182 486 182 469 c 0
 182 459 181 448 181 439 c 1xbc
EndSplineSet
EndChar
StartChar: iota
Encoding: 953 953 347
Width: 517
VWidth: 0
Flags: HW
HStem: -9 69<251 374> 418 76<103 229>
VStem: 167 80<65 169>
LayerCount: 2
Fore
SplineSet
263 495 m 2
 322 495 l 1
 296 362 250 126 250 126 c 2
 248 116 248 107 248 100 c 0
 248 66 268 61 305 61 c 0
 350 61 401 90 436 146 c 1
 484 108 l 1
 436 35 382 -9 292 -9 c 0
 250 -9 214 -2 195 10 c 0
 173 24 167 52 167 78 c 0
 167 96 170 113 172 125 c 2
 229 418 l 1
 205 418 149 416 101 405 c 1
 100 474 l 1
 157 487 212 495 263 495 c 2
EndSplineSet
EndChar
StartChar: kappa
Encoding: 954 954 348
Width: 517
VWidth: 0
Flags: HW
HStem: -2 2G<20 98 370 395> 488 10G<115 193 489 501>
LayerCount: 2
Fore
SplineSet
293 295 m 1
 335 233 437 90 449 24 c 1
 376 -13 l 1
 364 40 274 178 229 245 c 1
 229 245 161 195 127 158 c 1
 96 0 l 1
 20 0 l 1
 117 498 l 1
 193 498 l 1
 148 269 l 1
 202 314 262 354 323 400 c 1
 441 487 482 503 495 512 c 1
 530 449 l 1
 425 392 332 328 293 295 c 1
EndSplineSet
EndChar
StartChar: lambda
Encoding: 955 955 349
Width: 517
VWidth: 6
Flags: HW
HStem: -8 10G<38 107> 0 76<374 450> 618 76<233 301>
VStem: 142 76<563 604> 312 71<498 611>
LayerCount: 2
Fore
SplineSet
50 -8 m 1xb8
 -10 40 l 1
 47 91 227 375 309 498 c 1
 310 516 312 533 312 548 c 0
 312 590 297 618 272 618 c 0
 247 618 224 594 218 563 c 1
 142 563 l 1
 154 626 196 694 274 694 c 0
 347 694 377 656 382 594 c 0
 387 527 383 258 392 130 c 0
 394 97 397 76 410 76 c 0
 423 76 442 96 442 96 c 1
 481 42 l 1
 446 10 436 0 394 0 c 0x78
 355 0 329 29 324 78 c 0
 315 167 313 309 313 371 c 1
 221 232 164 134 50 -8 c 1xb8
EndSplineSet
EndChar
StartChar: mu
Encoding: 956 956 350
Width: 517
VWidth: 2
Flags: HW
HStem: 1 75<137 269> 489 10G<123 183>
VStem: 103 80<342 486>
LayerCount: 2
Fore
SplineSet
405 -5 m 1
 381 15 358 35 356 77 c 1
 307 35 253 2 179 1 c 1
 175 1 l 2
 152 1 121 1 97 11 c 1
 55 -195 l 1
 -21 -195 l 1
 40 104 l 1
 62 228 103 421 103 477 c 0
 103 480 102 483 102 485 c 1
 183 499 l 1
 183 498 183 495 183 494 c 0
 183 444 152 295 119 122 c 1
 119 121 l 0
 119 105 127 93 136 85 c 0
 142 80 166 76 186 76 c 1
 219 77 240 82 268 97 c 0
 293 111 330 125 357 168 c 1
 420 489 l 1
 497 489 l 1
 424 117 l 1
 424 115 423 112 423 110 c 0
 423 87 441 66 456 52 c 1
 405 -5 l 1
EndSplineSet
EndChar
StartChar: nu
Encoding: 957 957 351
Width: 517
VWidth: 2
Flags: HW
HStem: -1 10G<145 203> 502 10G<125 154 468 493>
VStem: 147 76<26 242> 423 82<285 480>
LayerCount: 2
Fore
SplineSet
140 512 m 1
 167 475 175 457 180 420 c 0
 189 363 223 153 223 84 c 0
 223 79 221 84 221 81 c 1
 346 112 423 287 423 404 c 0
 423 433 419 449 406 472 c 1
 488 512 l 1
 498 488 504 464 504 433 c 0
 504 251 429 127 355 67 c 0
 317 36 263 0 145 -1 c 1
 146 8 147 19 147 33 c 0
 147 131 110 344 96 410 c 0
 94 420 78 453 68 465 c 1
 140 512 l 1
EndSplineSet
EndChar
StartChar: xi
Encoding: 958 958 352
Width: 517
VWidth: 0
Flags: HW
HStem: -156 75<229 309> 0 73<123 322> 582 79<181 339> 688 10G<157 175>
VStem: 28 79<89 197> 180 87<433 503> 326 79<-62 -4>
LayerCount: 2
Fore
SplineSet
167 697 m 1
 183 676 201 660 241 660 c 0
 322 660 395 663 461 672 c 1
 479 595 l 1
 433 559 281 535 268 471 c 0
 268 469 268 465 268 463 c 0
 268 423 337 415 406 415 c 1
 392 339 l 1
 257 307 132 267 109 147 c 0
 108 141 107 134 107 129 c 0
 107 85 147 73 212 73 c 0
 213 73 271 74 272 74 c 0
 349 74 404 51 404 -9 c 0
 404 -16 403 -24 402 -32 c 0
 382 -134 270 -151 225 -156 c 1
 229 -82 l 1
 271 -76 319 -68 325 -38 c 0
 326 -34 326 -30 326 -27 c 0
 326 -2 302 0 264 0 c 0
 261 0 257 0 254 0 c 0
 252 0 177 0 175 0 c 0
 91 0 28 21 28 109 c 0
 28 124 30 140 33 159 c 0
 57 282 178 352 238 370 c 1
 221 375 180 383 180 441 c 0
 180 450 182 461 184 472 c 0
 199 548 270 568 339 592 c 1
 309 588 283 582 236 582 c 0
 180 582 134 595 104 635 c 1
 167 697 l 1
EndSplineSet
EndChar
StartChar: omicron
Encoding: 959 959 353
Width: 517
VWidth: 2
Flags: HW
HStem: 0 76<147 291> 429 75<215 356>
VStem: 36 79<109 286> 384 79<208 399>
LayerCount: 2
Fore
SplineSet
199 0 m 1
 89 0 36 62 36 161 c 0
 36 182 38 204 42 227 c 0
 70 370 146 504 289 504 c 0
 385 504 433 470 454 406 c 0
 460 387 463 363 463 339 c 0
 463 314 461 289 456 265 c 0
 429 126 357 0 200 0 c 2
 199 0 l 1
303 105 m 1
 341 135 362 187 376 259 c 0
 376 262 378 265 378 268 c 0
 381 288 384 306 384 323 c 0
 384 385 358 429 291 429 c 0
 189 429 143 348 120 229 c 0
 117 211 115 195 115 180 c 0
 115 115 148 76 214 76 c 1
 251 76 275 84 303 105 c 1
EndSplineSet
EndChar
StartChar: pi
Encoding: 960 960 354
Width: 517
VWidth: 2
Flags: HW
HStem: -4 73<376 464> 420 78<81 145 223 358 436 517>
VStem: 297 78<70 216>
LayerCount: 2
Fore
SplineSet
434 498 m 2
 486 498 508 508 528 529 c 1
 569 471 l 1
 523 428 484 421 436 420 c 1
 377 120 l 2
 376 112 375 105 375 99 c 0
 375 71 392 69 408 69 c 0
 430 69 443 74 459 88 c 1
 487 32 l 1
 457 5 424 -4 390 -4 c 0
 336 -4 297 24 297 88 c 0
 297 100 299 113 302 128 c 2
 358 420 l 1
 223 420 l 1
 194 271 l 2
 167 131 118 24 106 -4 c 1
 29 6 l 1
 44 39 88 128 116 272 c 2
 145 417 l 1
 127 417 102 415 80 405 c 1
 77 487 l 1
 99 495 128 498 158 498 c 2
 434 498 l 2
EndSplineSet
EndChar
StartChar: rho
Encoding: 961 961 355
Width: 517
VWidth: 0
Flags: HW
HStem: 0 76<208 328> 429 75<244 388>
VStem: 13 79<-194 21> 417 79<207 399>
LayerCount: 2
Fore
SplineSet
84 274 m 2
 112 417 206 504 322 504 c 0
 418 504 466 470 487 406 c 0
 493 387 496 363 496 339 c 0
 496 314 493 289 488 265 c 0
 461 126 401 0 244 0 c 2
 243 0 l 2
 176 0 138 42 122 85 c 1
 101 -37 l 2
 95 -68 92 -98 92 -125 c 0
 92 -153 95 -178 98 -193 c 1
 19 -214 l 1
 16 -201 13 -177 13 -150 c 0
 13 -115 17 -73 24 -34 c 2
 84 274 l 2
409 259 m 0
 409 262 411 265 411 268 c 0
 414 288 417 306 417 323 c 0
 417 385 391 429 324 429 c 0
 254 429 184 387 161 268 c 0
 158 252 156 237 156 222 c 0
 156 138 204 76 264 76 c 1
 350 77 390 161 409 259 c 0
EndSplineSet
EndChar
StartChar: sigma1
Encoding: 962 962 356
Width: 517
VWidth: 1
Flags: HW
HStem: -171 74<228 305> 422 75<214 383>
VStem: 39 80<110 306> 326 79<-78 -22>
LayerCount: 2
Fore
SplineSet
125 257 m 0
 120 231 118 208 118 189 c 0
 118 74 199 75 226 73 c 0
 339 64 404 44 404 -22 c 0
 404 -29 403 -37 402 -46 c 0
 393 -93 354 -167 224 -171 c 1
 228 -97 l 1
 285 -90 319 -82 325 -48 c 0
 325 -47 326 -46 326 -45 c 0
 326 -16 252 -7 213 -3 c 0
 94 9 39 63 39 171 c 0
 39 197 42 225 48 257 c 0
 83 436 181 497 335 497 c 0
 381 497 415 485 440 463 c 0
 465 440 475 410 481 385 c 1
 400 356 l 1
 399 376 393 422 315 422 c 0
 207 422 147 374 125 257 c 0
EndSplineSet
EndChar
StartChar: sigma
Encoding: 963 963 357
Width: 517
VWidth: 2
Flags: HW
HStem: 0 76<147 281> 427 72<227 360 435 535>
VStem: 36 79<109 282> 371 79<186 425>
LayerCount: 2
Fore
SplineSet
435 426 m 1
 446 411 450 336 450 310 c 0
 450 130 357 0 200 0 c 2
 199 0 l 2
 89 0 36 62 36 161 c 0
 36 182 38 204 42 227 c 0
 70 370 148 498 321 499 c 0
 329 499 358 500 393 500 c 0
 455 500 537 498 561 494 c 1
 536 419 l 1
 515 422 475 425 435 426 c 1
352 427 m 1
 348 427 344 427 341 427 c 0
 330 427 323 427 321 427 c 0
 196 427 143 348 120 229 c 0
 117 211 115 195 115 180 c 0
 115 115 148 76 214 76 c 0
 311 76 371 180 371 305 c 0
 371 335 367 409 352 427 c 1
EndSplineSet
EndChar
StartChar: tau
Encoding: 964 964 358
Width: 517
VWidth: 0
Flags: HW
HStem: -1 76<264 371> 427 71<104 176 176 242 316 528>
VStem: 180 79<81 242>
LayerCount: 2
Fore
SplineSet
333 498 m 1
 393 498 l 2
 416 498 440 498 461 498 c 0
 533 498 l 1
 542 498 l 1
 528 426 l 1
 379 427 l 1
 320 427 l 1
 296 327 284 264 273 215 c 1
 270 195 l 2
 264 163 259 140 259 122 c 0
 259 86 275 74 322 74 c 0
 356 74 385 103 406 140 c 1
 464 111 l 1
 449 84 404 -1 308 -1 c 0
 213 -1 180 29 180 101 c 0
 180 126 184 157 191 194 c 2
 196 215 l 1
 208 266 221 334 242 428 c 1
 232 428 176 427 176 427 c 2
 142 427 110 410 83 394 c 1
 62 456 l 1
 91 477 141 498 188 498 c 2
 333 498 l 1
EndSplineSet
EndChar
StartChar: upsilon
Encoding: 965 965 359
Width: 517
VWidth: 2
Flags: HW
HStem: -2 76<144 277> 494 10G<124 184 463 502>
VStem: 49 79<91 268> 104 80<345 491> 425 80<301 493>
LayerCount: 2
Fore
SplineSet
54 179 m 0xe8
 60 208 65 239 71 268 c 0
 89 357 104 440 104 479 c 0
 104 484 103 488 103 491 c 1
 184 504 l 1
 184 503 184 500 184 499 c 0xd8
 184 461 168 376 149 280 c 0
 144 253 138 224 133 196 c 0
 130 178 128 163 128 149 c 0
 128 96 154 74 206 74 c 0
 234 74 292 94 327 133 c 0
 381 194 397 244 419 360 c 0
 423 381 425 404 425 425 c 0
 425 449 422 471 418 489 c 1
 500 511 l 1
 503 496 505 477 505 458 c 0
 505 424 501 389 497 368 c 0
 497 366 496 364 496 362 c 0
 495 356 493 350 492 344 c 0
 474 251 452 148 350 60 c 0
 313 28 249 -2 169 -2 c 0
 90 -2 49 57 49 133 c 0
 49 148 51 163 54 179 c 0xe8
EndSplineSet
EndChar
StartChar: phi
Encoding: 966 966 360
Width: 517
VWidth: 0
Flags: HW
HStem: 437 71<341 423>
VStem: 29 79<116 332> 431 77<259 429>
LayerCount: 2
Fore
SplineSet
259 71 m 1
 300 81 331 107 355 139 c 1
 380 170 410 253 421 305 c 1
 423 314 l 2
 428 339 431 360 431 378 c 0
 431 417 417 437 379 437 c 2
 378 437 l 2
 365 437 329 436 306 314 c 0
 292 245 275 155 259 71 c 1
245 -5 m 1
 226 -105 212 -184 211 -194 c 1
 132 -193 l 1
 133 -183 148 -103 167 -4 c 1
 124 4 85 25 63 62 c 0
 41 98 29 143 29 195 c 0
 29 221 32 249 38 278 c 0
 59 389 101 470 154 510 c 1
 207 466 l 1
 160 425 132 374 114 280 c 0
 110 259 108 234 108 210 c 0
 108 174 113 139 125 118 c 0
 137 96 156 80 183 72 c 1
 229 312 l 2
 259 466 322 508 392 508 c 0
 448 508 507 498 507 393 c 0
 507 370 504 342 498 309 c 2
 497 303 l 2
 481 223 445 148 413 103 c 0
 370 43 311 5 245 -5 c 1
EndSplineSet
EndChar
StartChar: chi
Encoding: 967 967 361
Width: 517
VWidth: 6
Flags: HW
HStem: -194 76<355 419> 434 75<72 129> 508 10G<459 484>
LayerCount: 2
Fore
SplineSet
201 154 m 1xa0
 185 281 172 336 146 389 c 0
 125 430 96 434 58 434 c 1
 72 508 l 1xc0
 144 508 175 504 211 446 c 0
 250 383 271 229 271 229 c 1
 335 327 459 518 459 518 c 1
 529 490 l 1
 529 490 408 294 298 131 c 1
 302 47 341 -118 378 -118 c 0
 393 -118 402 -105 407 -99 c 1
 460 -138 l 1
 448 -159 421 -194 371 -194 c 0
 265 -194 239 1 230 60 c 1
 64 -200 l 1
 -16 -165 l 1
 201 154 l 1xa0
EndSplineSet
EndChar
StartChar: psi
Encoding: 968 968 362
Width: 517
VWidth: 2
Flags: HW
HStem: -2 77<133 171> 494 4G<103 163 270 350 488 527>
VStem: 29 80<98 269> 83 80<345 491> 451 80<301 493>
LayerCount: 2
Fore
SplineSet
33 179 m 0xe8
 39 208 45 239 51 268 c 0
 69 357 83 440 83 479 c 0
 83 484 83 488 83 491 c 1
 163 504 l 1
 163 503 163 500 163 499 c 0xd8
 163 461 148 376 129 280 c 0
 124 253 118 224 113 196 c 0
 111 182 109 170 109 159 c 0
 109 106 138 80 187 75 c 1
 214 214 241 339 263 453 c 2
 271 498 l 1
 350 498 l 1
 336 427 l 2
 314 312 293 210 268 82 c 1
 302 91 331 108 353 133 c 0
 407 194 422 244 444 360 c 0
 448 381 451 404 451 425 c 0
 451 449 447 471 443 489 c 1
 525 511 l 1
 528 496 530 477 530 458 c 0
 530 424 526 389 522 368 c 0
 522 366 521 364 521 362 c 0
 520 356 519 350 518 344 c 0
 500 251 477 148 375 60 c 0
 348 37 315 14 252 4 c 1
 240 -61 l 2
 229 -117 223 -144 211 -193 c 1
 132 -193 l 1
 140 -163 145 -142 150 -115 c 0
 154 -92 159 -64 167 -22 c 0
 168 -15 170 -9 171 -2 c 1
 170 -2 170 -2 169 -2 c 0
 77 -2 29 59 29 138 c 0
 29 151 30 165 33 179 c 0xe8
EndSplineSet
EndChar
StartChar: omega
Encoding: 969 969 363
Width: 517
VWidth: 2
Flags: HW
HStem: -5 76<102 175 294 370> 495 14G<100 156 467 499>
VStem: 13 82<74 273> 431 80<199 480>
LayerCount: 2
Fore
SplineSet
240 334 m 1
 320 343 l 1
 311 301 302 255 293 210 c 0
 293 206 292 202 291 198 c 0
 287 176 285 155 285 139 c 0
 285 92 302 70 331 70 c 0
 374 70 401 132 415 205 c 0
 425 258 431 310 431 356 c 0
 431 400 425 440 411 472 c 1
 492 504 l 1
 507 468 511 424 511 381 c 0
 511 319 501 256 493 215 c 0
 472 106 425 -6 305 -6 c 0
 268 -6 239 16 223 51 c 1
 192 17 154 -5 117 -5 c 0
 38 -5 13 53 13 126 c 0
 13 155 16 186 22 217 c 0
 38 299 65 419 136 508 c 1
 204 476 l 1
 152 414 124 330 104 229 c 0
 98 198 94 167 94 142 c 0
 94 100 104 71 128 71 c 0
 162 71 190 96 208 157 c 1
 209 165 210 172 211 180 c 0
 221 232 232 285 240 334 c 1
EndSplineSet
EndChar
StartChar: uni03CF
Encoding: 975 975 419
Width: 517
VWidth: 0
Flags: HW
HStem: -168 65<252 332> -2 10G<20 99> 629 10G<142 221 503 517>
LayerCount: 2
Fore
SplineSet
386 -8 m 1
 374 45 262 231 210 293 c 1
 210 293 159 245 138 210 c 1
 97 -2 l 1
 20 -2 l 1
 144 639 l 1
 221 639 l 1
 164 343 l 1
 214 397 256 436 314 486 c 1
 426 581 497 630 509 640 c 1
 553 588 l 1
 451 524 305 390 269 354 c 1
 316 297 446 95 458 29 c 1
 435 -81 398 -168 240 -168 c 1
 252 -103 l 1
 331 -103 368 -65 386 -8 c 1
EndSplineSet
EndChar
StartChar: uni03D0
Encoding: 976 976 411
Width: 517
VWidth: 0
Flags: HW
HStem: 0 75<169 318> 326 64<152 285> 574 74<230 338>
VStem: 46 79<119 313> 354 78<446 557> 390 76<148 286>
LayerCount: 2
Fore
SplineSet
135 314 m 1xf4
 129 278 125 243 125 212 c 0
 125 132 152 75 243 75 c 0
 311 75 374 128 387 193 c 0
 389 205 390 215 390 225 c 0
 390 297 333 326 246 326 c 0
 213 326 176 322 135 314 c 1xf4
150 390 m 1
 239 396 334 402 352 491 c 0
 353 498 354 505 354 511 c 0xf8
 354 553 324 574 277 574 c 0
 245 574 186 542 150 390 c 1
67 359 m 0
 107 564 201 648 292 648 c 0
 370 648 432 613 432 531 c 0xf8
 432 519 430 508 428 494 c 0
 418 444 396 406 364 380 c 1
 430 360 466 315 466 241 c 0xf4
 466 224 464 206 460 186 c 0
 440 83 360 0 229 0 c 0
 89 0 46 76 46 188 c 0
 46 239 55 297 67 359 c 0
EndSplineSet
EndChar
StartChar: theta1
Encoding: 977 977 412
Width: 517
VWidth: 0
Flags: HW
HStem: -8 75<154 293> 288 77<193 415> 571 75<255 389>
VStem: 31 80<112 288> 98 80<381 498> 432 78<363 522>
LayerCount: 2
Fore
SplineSet
119 294 m 1xf4
 115 272 111 242 111 213 c 0xf4
 111 176 116 141 127 121 c 0
 145 89 173 67 226 67 c 0
 283 67 325 109 355 150 c 1
 377 177 403 236 416 285 c 1
 395 288 368 289 337 289 c 0
 312 289 284 288 254 288 c 0
 184 288 98 321 98 414 c 0xec
 98 425 99 436 101 448 c 0
 108 483 121 522 163 566 c 0
 204 610 275 646 344 646 c 0
 390 646 510 614 510 424 c 0
 510 391 506 353 498 309 c 2
 497 303 l 2
 481 223 446 158 414 113 c 0
 364 43 292 -8 211 -8 c 0
 151 -8 95 15 65 64 c 0
 43 100 31 149 31 203 c 0
 31 230 34 259 40 288 c 1
 119 294 l 1xf4
429 362 m 1
 431 380 432 399 432 417 c 0
 432 445 429 473 422 495 c 0
 404 551 367 571 332 571 c 0
 294 571 255 558 218 521 c 0
 189 492 182 468 179 453 c 0
 178 445 177 437 177 430 c 0xec
 177 373 223 365 272 365 c 0
 360 365 405 364 429 362 c 1
EndSplineSet
EndChar
StartChar: Upsilon1
Encoding: 978 978 413
Width: 517
VWidth: 1
Flags: HW
HStem: 0 10G<174 252> 522 146<492 562>
VStem: 490 83<523 626> 490 72<522 591>
LayerCount: 2
Fore
SplineSet
298 477 m 1xe0
 342 548 440 668 505 668 c 0
 557 668 573 646 573 606 c 0xe0
 573 584 568 557 562 525 c 0xd0
 562 524 562 523 562 522 c 1
 485 522 l 1
 489 548 490 568 490 580 c 0
 490 586 489 590 489 592 c 1
 479 586 340 461 315 334 c 2
 250 0 l 1
 174 0 l 1
 239 333 l 2
 241 346 243 360 243 374 c 0
 243 473 179 578 92 593 c 1
 138 672 l 1
 219 649 288 552 298 477 c 1xe0
EndSplineSet
EndChar
StartChar: uni03D3
Encoding: 979 979 414
Width: 517
VWidth: 0
Flags: HW
HStem: 0 10G<208 287> 522 146<493 562>
VStem: 490 83<523 626> 490 72<522 591>
LayerCount: 2
Fore
SplineSet
335 488 m 1xe0
 379 559 440 668 505 668 c 0
 557 668 573 646 573 606 c 0xe0
 573 584 568 557 562 525 c 0xd0
 562 524 562 523 562 522 c 1
 485 522 l 1
 489 548 490 568 490 580 c 0
 490 586 489 590 489 592 c 1
 479 586 375 461 350 334 c 2
 285 0 l 1
 208 0 l 1
 273 333 l 2
 277 353 279 375 279 396 c 0
 279 488 244 579 190 593 c 1
 236 672 l 1
 317 649 325 563 335 488 c 1xe0
89 598 m 1
 134 661 156 730 184 812 c 1
 267 798 l 1
 236 723 195 630 146 568 c 1
 89 598 l 1
EndSplineSet
EndChar
StartChar: phi1
Encoding: 981 981 416
Width: 517
VWidth: 2
Flags: HW
HStem: -1 75<136 171 262 307> 427 76<210 254 345 373> 680 10G<303 382>
VStem: 37 78<94 290> 397 78<203 404>
LayerCount: 2
Fore
SplineSet
249 -0 m 1
 232 -91 214 -186 213 -194 c 1
 134 -193 l 1
 134 -185 153 -91 171 -1 c 1
 83 3 37 56 37 151 c 0
 37 320 122 485 269 502 c 1
 305 690 l 1
 382 690 l 1
 377 665 363 591 345 501 c 1
 434 490 475 422 475 333 c 0
 475 142 381 10 249 -0 c 1
185 74 m 1
 254 427 l 1
 168 413 115 274 115 159 c 0
 115 92 148 78 185 74 c 1
397 329 m 0
 397 386 378 421 331 428 c 1
 305 292 273 129 262 71 c 1
 340 78 397 216 397 329 c 0
EndSplineSet
EndChar
StartChar: omega1
Encoding: 982 982 417
Width: 517
VWidth: 2
Flags: HW
HStem: -5 76<102 175 294 370> 424 75<79 108 181 409 490 526>
VStem: 13 82<74 264> 424 78<163 420>
LayerCount: 2
Fore
SplineSet
240 334 m 1
 320 343 l 1
 311 301 302 255 293 210 c 0
 293 206 292 202 291 198 c 0
 287 176 285 155 285 139 c 0
 285 92 302 70 331 70 c 0
 374 70 401 132 415 205 c 0
 422 239 424 270 424 298 c 0
 424 346 415 387 401 424 c 1
 197 424 l 1
 155 371 121 317 104 229 c 0
 98 198 94 167 94 142 c 0
 94 100 104 71 128 71 c 0
 162 71 190 96 208 157 c 1
 209 165 210 172 211 180 c 0
 221 232 232 285 240 334 c 1
79 497 m 1
 107 499 141 499 179 499 c 0
 194 499 210 499 227 499 c 2
 280 499 l 2
 353 499 496 497 532 497 c 2
 540 497 l 1
 526 424 l 1
 490 424 l 1
 499 386 502 348 502 312 c 0
 502 276 498 242 493 215 c 0
 472 106 425 -6 305 -6 c 0
 268 -6 239 16 223 51 c 1
 192 17 154 -5 117 -5 c 0
 38 -5 13 53 13 126 c 0
 13 155 16 186 22 217 c 0
 35 282 63 353 108 424 c 1
 65 424 l 1
 79 497 l 1
EndSplineSet
EndChar
StartChar: uni03D7
Encoding: 983 983 418
Width: 517
VWidth: 0
Flags: HW
HStem: -168 73<254 350> 0 76<299 387> 421 77<133 204>
VStem: 206 79<310 419> 245 79<77 186>
LayerCount: 2
Fore
SplineSet
51 404 m 1xf0
 51 404 119 498 191 498 c 0
 241 498 285 462 285 396 c 0xf0
 285 385 283 373 281 361 c 0
 279 349 262 300 247 278 c 1
 273 295 309 321 345 346 c 1
 354 354 l 1
 399 429 435 497 507 497 c 0
 531 497 541 482 541 460 c 0
 541 454 540 447 539 440 c 0
 529 386 454 326 396 287 c 1
 375 249 335 184 327 140 c 0
 325 130 324 121 324 114 c 0
 324 88 335 76 355 76 c 0
 380 76 398 88 416 117 c 1
 479 93 l 1
 478 83 l 2
 450 -59 427 -168 240 -168 c 1
 254 -95 l 1
 353 -95 386 -62 403 27 c 0
 403 28 404 31 404 32 c 1
 377 15 346 0 318 0 c 0
 279 0 245 35 245 97 c 0xe8
 245 109 246 122 249 136 c 0
 251 148 268 198 283 220 c 1
 257 203 221 176 185 151 c 1
 176 145 l 1
 131 70 95 0 23 0 c 0
 -1 0 -11 15 -11 37 c 0
 -11 43 -9 51 -8 58 c 0
 4 122 79 173 137 212 c 1
 158 250 195 313 203 357 c 0
 205 367 206 377 206 384 c 0
 206 410 195 421 175 421 c 0
 150 421 118 385 85 358 c 1
 51 404 l 1xf0
EndSplineSet
EndChar
StartChar: uni03D9
Encoding: 985 985 421
Width: 517
VWidth: 2
Flags: HW
HStem: 4 72<148 157 240 290> 429 75<215 356>
VStem: 36 79<108 286> 384 79<208 399>
LayerCount: 2
Fore
SplineSet
303 105 m 1
 341 135 362 187 376 259 c 0
 376 262 378 265 378 268 c 0
 381 288 384 306 384 323 c 0
 384 385 358 429 291 429 c 0
 189 429 143 348 120 229 c 0
 117 211 115 195 115 180 c 0
 115 115 148 76 214 76 c 1
 251 76 275 84 303 105 c 1
157 4 m 1
 75 19 36 76 36 161 c 0
 36 182 38 204 42 227 c 0
 70 370 146 504 289 504 c 0
 385 504 433 470 454 406 c 0
 460 387 463 363 463 339 c 0
 463 314 461 289 456 265 c 0
 431 138 369 23 240 3 c 1
 209 -154 l 1
 126 -154 l 1
 157 4 l 1
EndSplineSet
EndChar
StartChar: uni03DA
Encoding: 986 986 423
Width: 517
VWidth: 1
Flags: HW
HStem: -171 74<196 274> 570 75<255 556>
VStem: 42 82<104 339> 294 79<-78 -22>
LayerCount: 2
Fore
SplineSet
142 342 m 0
 130 280 124 231 124 193 c 0
 124 117 147 83 194 73 c 0
 303 50 373 40 373 -24 c 0
 373 -31 372 -38 371 -46 c 0
 362 -93 323 -167 193 -171 c 1
 196 -97 l 1
 253 -90 288 -82 294 -48 c 0
 294 -47 294 -46 294 -45 c 0
 294 -16 220 -9 182 -3 c 0
 73 14 42 81 42 169 c 0
 42 221 52 280 64 342 c 0
 99 521 179 645 359 645 c 0
 411 645 451 645 488 645 c 0
 516 645 542 645 570 646 c 1
 556 565 l 1
 536 567 417 570 339 570 c 0
 212 570 164 459 142 342 c 0
EndSplineSet
EndChar
StartChar: uni03DB
Encoding: 987 987 422
Width: 517
VWidth: 1
Flags: HW
HStem: -171 74<196 274> 422 75<214 531>
VStem: 34 82<94 291> 294 79<-78 -22>
LayerCount: 2
Fore
SplineSet
125 257 m 0
 118 222 116 194 116 171 c 0
 116 73 168 75 194 73 c 0
 307 64 373 44 373 -22 c 0
 373 -29 372 -37 371 -46 c 0
 362 -93 323 -167 193 -171 c 1
 196 -97 l 1
 253 -90 288 -82 294 -48 c 0
 294 -47 294 -46 294 -45 c 0
 294 -16 221 -7 182 -3 c 0
 74 8 34 54 34 144 c 0
 34 176 40 213 48 257 c 0
 83 436 181 497 335 497 c 0
 387 497 427 497 464 497 c 0
 492 497 517 497 545 498 c 1
 531 417 l 1
 511 419 393 422 315 422 c 0
 207 422 147 374 125 257 c 0
EndSplineSet
EndChar
StartChar: uni03DC
Encoding: 988 988 424
Width: 517
VWidth: 0
Flags: HW
HStem: -0 10G<21 103> 326 73<173 372> 559 75<205 510>
LayerCount: 2
Fore
SplineSet
99 -0 m 1
 21 1 l 1
 143 634 l 1
 478 634 l 1
 515 633 537 625 552 617 c 1
 511 545 l 1
 500 552 490 559 442 559 c 1
 408 559 l 2
 357 559 294 558 205 558 c 1
 173 398 l 1
 232 398 265 399 325 399 c 0
 368 399 396 393 396 393 c 2
 404 390 l 1
 373 319 l 1
 356 323 331 326 309 326 c 0
 257 326 212 326 159 325 c 1
 147 266 108 45 99 -0 c 1
EndSplineSet
EndChar
StartChar: uni03DD
Encoding: 989 989 425
Width: 517
VWidth: 0
Flags: HW
HStem: -150 71<-28 90> 419 75<322 467> 618 74<363 513>
LayerCount: 2
Fore
SplineSet
166 74 m 0
 178 134 230 419 250 520 c 0
 264 590 298 692 433 692 c 0
 441 692 449 692 456 692 c 0
 514 692 521 690 581 645 c 1
 534 582 l 1
 495 611 486 618 422 618 c 0
 350 618 337 571 327 518 c 2
 322 495 l 1
 355 495 383 494 419 494 c 1
 469 493 482 488 496 484 c 1
 468 413 l 1
 458 416 448 419 421 419 c 2
 308 419 l 1
 294 344 242 76 242 74 c 0
 220 -41 166 -150 0 -150 c 0
 -15 -150 -30 -150 -46 -148 c 1
 -27 -76 l 1
 -14 -78 -1 -79 11 -79 c 0
 113 -79 151 -3 166 74 c 0
EndSplineSet
EndChar
StartChar: afii10051
Encoding: 1026 1026 740
Width: 517
VWidth: 0
Flags: HW
HStem: 0 10G<84 166> 317 73<234 380> 547 78<96 194 269 432>
VStem: 412 79<128 286>
LayerCount: 2
Fore
SplineSet
409 200 m 0
 411 211 412 220 412 229 c 0
 412 291 365 317 299 317 c 0
 272 317 226 312 226 312 c 1
 217 269 208 221 199 175 c 0
 189 124 180 76 173 42 c 0
 169 23 166 8 165 0 c 1
 156 0 147 0 138 0 c 0
 120 0 101 0 84 0 c 1
 103 95 126 197 166 400 c 0
 176 453 185 503 194 547 c 1
 81 547 l 1
 81 548 l 1
 96 625 l 1
 255 625 l 1
 276 625 297 625 318 625 c 0
 361 625 405 625 447 625 c 1
 432 547 l 1
 273 547 l 1
 270 529 265 511 262 493 c 0
 255 457 249 421 241 381 c 1
 281 388 290 390 321 390 c 0
 424 390 491 351 491 250 c 0
 491 232 488 213 484 192 c 0
 458 56 391 -89 262 -112 c 1
 263 -42 l 1
 305 -25 367 -16 409 200 c 0
EndSplineSet
EndChar
StartChar: afii10053
Encoding: 1028 1028 742
Width: 517
Flags: HW
HStem: -6 75<186 360> 284 74<159 384> 503 10G<477 504> 573 75<276 448>
VStem: 40 79<144 277>
LayerCount: 2
Fore
SplineSet
430 141 m 1
 470 84 l 1
 421 35 347 -6 242 -6 c 0
 112 -6 40 94 40 229 c 0
 40 255 43 282 48 310 c 0
 104 600 291 647 364 647 c 0
 490 647 536 592 560 548 c 1
 488 503 l 1
 467 540 447 573 353 573 c 0
 246 573 166 455 135 351 c 1
 154 356 236 358 398 358 c 1
 384 284 l 1
 230 284 153 284 121 276 c 1
 120 266 119 257 119 247 c 0
 119 151 162 68 257 68 c 0
 346 68 400 109 430 141 c 1
EndSplineSet
EndChar
StartChar: afii10058
Encoding: 1033 1033 747
Width: 517
Flags: HW
HStem: -14 73<-5 32> -2 74<311 387> 317 73<374 425> 559 75<240 330>
VStem: 436 81<145 309>
LayerCount: 2
Fore
SplineSet
390 317 m 0x78
 363 317 357 299 357 299 c 1
 334 183 319 110 311 73 c 1
 316 72 334 71 339 71 c 0
 381 71 412 104 431 200 c 0
 434 219 436 235 436 249 c 0
 436 297 416 317 390 317 c 0x78
-5 59 m 1xb8
 -3 59 -2 59 0 59 c 0xb8
 66 59 104 236 181 633 c 1
 315 633 l 2
 332 633 307 633 322 633 c 0
 360 633 394 633 421 631 c 1
 409 565 397 502 384 435 c 0
 381 417 377 399 374 381 c 1
 384 384 396 390 412 390 c 0
 480 390 516 359 516 278 c 0
 516 254 512 225 506 192 c 0
 480 56 402 -2 318 -2 c 0x78
 272 -2 274 0 217 0 c 1
 236 94 260 196 299 398 c 2
 299 400 l 2
 306 436 320 504 330 559 c 1
 243 559 l 1
 169 229 145 -14 -7 -14 c 0
 -9 -14 -12 -14 -14 -14 c 1
 -5 59 l 1xb8
EndSplineSet
EndChar
StartChar: afii10059
Encoding: 1034 1034 748
Width: 517
Flags: HW
HStem: -2 74<311 387> 305 75<144 280> 317 73<374 425> 624 9G<116 192 343 362>
VStem: 436 81<145 309>
LayerCount: 2
Fore
SplineSet
390 317 m 0xb8
 363 317 357 299 357 299 c 1
 334 183 319 110 311 73 c 1
 316 72 334 71 339 71 c 0
 381 71 412 104 431 200 c 0
 434 219 436 235 436 249 c 0
 436 297 416 317 390 317 c 0xb8
299 400 m 2
 306 438 343 633 343 633 c 1
 381 633 394 633 421 631 c 1
 406 548 391 468 374 381 c 1
 384 384 396 390 412 390 c 0xb8
 480 390 516 359 516 278 c 0
 516 254 512 225 506 192 c 0
 480 56 402 -2 318 -2 c 0
 272 -2 274 0 217 0 c 1
 232 79 251 163 280 305 c 1
 226 305 174 301 127 292 c 1
 94 125 88 88 71 0 c 1
 -7 0 l 1
 116 632 l 1
 194 633 l 1
 142 366 l 1
 185 375 240 379 295 379 c 1xd8
 296 385 298 392 299 398 c 2
 299 400 l 2
EndSplineSet
EndChar
StartChar: afii10060
Encoding: 1035 1035 749
Width: 517
VWidth: 0
Flags: HW
HStem: 0 3G<84 166 356 400> 317 73<234 371> 547 78<96 194 269 432>
VStem: 354 81<11 98> 388 80<120 298>
LayerCount: 2
Fore
SplineSet
356 -7 m 1xf0
 355 4 354 15 354 28 c 0xf0
 354 39 355 51 358 67 c 1
 384 200 l 0
 387 216 388 230 388 242 c 0
 388 294 360 317 299 317 c 0
 272 317 226 312 226 312 c 1
 217 269 208 221 199 175 c 0
 189 124 180 76 173 42 c 0
 169 23 166 8 165 0 c 1
 156 0 147 0 138 0 c 0
 120 0 101 0 84 0 c 1
 103 95 126 197 166 400 c 0
 176 453 185 503 194 547 c 1
 81 547 l 1
 81 548 l 1
 96 625 l 1
 255 625 l 1
 276 625 297 625 318 625 c 0
 361 625 405 625 447 625 c 1
 432 547 l 1
 273 547 l 1
 270 529 265 511 262 493 c 0
 255 457 249 421 241 381 c 1
 281 388 290 390 321 390 c 0
 418 390 468 355 468 265 c 0xe8
 468 244 464 219 459 192 c 0
 438 74 l 1
 436 63 434 53 434 45 c 0
 434 31 436 20 438 11 c 1
 356 -7 l 1xf0
EndSplineSet
EndChar
StartChar: afii10145
Encoding: 1039 1039 753
Width: 517
Flags: HW
HStem: 0 73<102 177 251 349> 623 10G<132 211 457 536>
LayerCount: 2
Fore
SplineSet
102 73 m 1
 349 73 l 1
 459 633 l 1
 536 633 l 1
 427 77 l 1
 412 0 l 1
 251 0 l 0
 223 -146 l 1
 149 -146 l 1
 177 0 l 1
 125 0 61 0 9 -0 c 1
 134 633 l 1
 211 633 l 1
 102 73 l 1
EndSplineSet
EndChar
StartChar: afii10018
Encoding: 1041 1041 755
Width: 517
VWidth: 0
Flags: HW
HStem: -2 74<105 317> 313 73<168 354> 562 73<199 471>
VStem: 391 80<149 279>
LayerCount: 2
Fore
SplineSet
499 623 m 9
 473 550 l 17
 425 560 368 562 303 562 c 0
 284 562 264 562 243 562 c 1
 222 562 216 560 201 559 c 1
 199 541 195 520 191 497 c 0
 185 464 175 421 168 385 c 1
 191 386 213 386 234 386 c 0
 392 386 471 353 471 248 c 0
 471 231 469 213 465 192 c 0
 444 82 357 11 274 1 c 0
 254 -1 234 -2 215 -2 c 0
 173 -2 131 1 78 1 c 2
 11 1 l 1
 30 96 53 199 93 402 c 0
 110 486 123 565 131 627 c 1
 171 630 196 634 251 634 c 1
 388 634 462 634 499 623 c 9
263 313 m 0
 239 313 210 312 174 312 c 2
 153 312 l 1
 130 196 113 112 105 75 c 1
 158 75 176 71 213 71 c 0
 233 71 250 73 268 75 c 0
 321 81 375 130 389 200 c 0
 390 208 391 217 391 224 c 0
 391 289 331 313 263 313 c 0
EndSplineSet
EndChar
StartChar: afii10021
Encoding: 1044 1044 758
Width: 517
Flags: HW
HStem: 1 76<109 341> 559 75<274 430>
LayerCount: 2
Fore
SplineSet
399 398 m 1
 430 559 l 1
 276 559 l 1
 221 315 171 187 109 77 c 1
 337 77 l 1
 345 117 363 214 382 311 c 2
 399 398 l 1
433 -137 m 1
 359 -136 l 1
 386 1 l 1
 50 1 l 1
 50 -1 48 -6 48 -8 c 0
 38 -60 33 -133 33 -133 c 1
 -43 -141 l 1
 -40 -97 -32 -26 -21 29 c 0
 -18 46 -14 62 -12 77 c 1
 30 77 l 1
 111 222 156 332 208 599 c 0
 210 610 213 621 215 633 c 1
 377 633 l 2
 394 633 407 633 422 633 c 0
 460 633 494 633 521 631 c 1
 413 77 l 1
 474 77 l 1
 433 -137 l 1
EndSplineSet
EndChar
StartChar: afii10024
Encoding: 1046 1046 760
Width: 517
Flags: HW
HStem: -2 10G<-46 42 179 247 395 472> 300 72<206 237 318 349> 638 1G<126 166 301 370 485 539>
VStem: 395 78<-0 150>
LayerCount: 2
Fore
SplineSet
345 300 m 1
 304 300 l 1
 246 -2 l 1
 179 -2 l 1
 237 300 l 1
 195 300 l 1
 149 209 53 62 30 -3 c 1
 -46 2 l 1
 -9 92 96 262 144 349 c 1
 133 467 128 536 74 601 c 1
 140 647 l 1
 193 567 204 430 208 372 c 1
 251 372 l 1
 303 639 l 1
 370 639 l 1
 318 372 l 1
 360 372 l 1
 387 430 443 567 527 647 c 1
 584 601 l 1
 505 536 466 441 409 323 c 1
 431 234 472 88 472 -0 c 1
 395 -0 l 1
 395 69 364 215 345 300 c 1
EndSplineSet
EndChar
StartChar: afii10025
Encoding: 1047 1047 761
Width: 517
Flags: HW
HStem: -3 74<100 298> 315 73<197 317> 572 74<194 382>
VStem: 370 82<136 265> 411 79<434 543>
LayerCount: 2
Fore
SplineSet
197 389 m 17xf0
 233 389 231 388 255 388 c 0
 348 388 398 422 409 476 c 0
 410 482 411 488 411 494 c 0
 411 546 362 572 303 572 c 0
 227 572 204 559 142 521 c 1
 108 579 l 17
 204 641 256 646 322 646 c 0
 410 646 490 599 490 509 c 0xe8
 490 498 488 488 486 476 c 0
 475 417 439 380 384 350 c 1
 423 329 451 292 451 227 c 0
 451 210 449 193 445 172 c 0
 423 57 314 -3 193 -3 c 0
 151 -3 71 2 -2 57 c 9
 52 124 l 1
 99 86 136 71 208 71 c 0
 296 71 357 122 367 174 c 0
 369 183 370 192 370 200 c 0
 370 270 311 315 241 315 c 0
 217 315 220 314 184 314 c 9
 197 389 l 17xf0
EndSplineSet
EndChar
StartChar: afii10026
Encoding: 1048 1048 762
Width: 517
VWidth: 0
Flags: HW
HStem: -3 10G<1 77 335 414> 624 8G<121 201 397 531>
LayerCount: 2
Fore
SplineSet
454 633 m 1
 531 633 l 1
 526 607 521 579 516 551 c 0
 494 439 467 315 446 205 c 0
 430 125 418 52 410 -3 c 1
 335 -3 l 1
 347 80 362 170 380 261 c 0
 393 326 407 393 420 456 c 1
 339 335 156 89 77 -1 c 1
 -0 -3 l 1
 123 632 l 1
 201 632 l 1
 186 558 152 384 124 241 c 2
 104 142 l 1
 236 314 341 459 454 633 c 1
EndSplineSet
EndChar
StartChar: afii10029
Encoding: 1051 1051 765
Width: 517
Flags: HW
HStem: -5 75<-4 49> 559 75<279 461>
LayerCount: 2
Fore
SplineSet
-22 -3 m 1
 -2 71 l 1
 0 71 2 70 4 70 c 0
 71 70 138 200 222 633 c 1
 396 633 l 2
 413 633 439 633 454 633 c 0
 492 633 526 633 553 631 c 1
 512 420 471 210 430 -1 c 1
 429 -1 l 0
 412 -1 430 0 351 0 c 1
 371 102 385 163 414 311 c 2
 431 398 l 1
 461 559 l 1
 284 559 l 1
 231 337 164 -5 -0 -5 c 0
 -7 -5 -15 -4 -22 -3 c 1
EndSplineSet
EndChar
StartChar: afii10033
Encoding: 1055 1055 769
Width: 517
VWidth: 15
Flags: HW
HStem: -2 10G<10 89 336 415> 557 73<196 444>
LayerCount: 2
Fore
SplineSet
196 557 m 1
 87 -2 l 1
 10 -2 l 1
 131 631 l 1
 459 630 l 1
 536 630 l 1
 413 -2 l 1
 336 -2 l 1
 444 557 l 1
 196 557 l 1
EndSplineSet
EndChar
StartChar: afii10037
Encoding: 1059 1059 773
Width: 517
Flags: HW
HStem: -11 74<85 173> 631 10G<153 188 482 514>
VStem: 100 84<458 616>
LayerCount: 2
Fore
SplineSet
66 107 m 1
 86 81 106 63 125 63 c 0
 173 63 220 137 234 158 c 1
 190 186 144 230 100 614 c 1
 185 641 l 1
 191 450 239 238 279 234 c 0
 279 234 l 1
 285 249 357 379 406 474 c 0
 455 569 475 618 489 648 c 1
 561 620 l 1
 524 545 484 473 438 384 c 0
 392 295 356 224 328 174 c 0
 248 32 172 -11 111 -11 c 0
 64 -11 25 15 1 40 c 1
 66 107 l 1
EndSplineSet
EndChar
StartChar: afii10038
Encoding: 1060 1060 774
Width: 517
VWidth: 0
Flags: HW
HStem: -4 10G<171 253> 43 76<130 181 274 350> 511 75<201 271 364 421> 628 10G<295 375>
VStem: 20 80<149 348> 449 76<270 484>
LayerCount: 2
Fore
SplineSet
181 43 m 1
 180 43 177 43 175 43 c 0
 126 43 20 67 20 214 c 0
 20 236 23 263 28 291 c 0
 77 545 197 580 286 583 c 1
 296 638 l 1
 375 638 l 1
 370 611 369 613 364 586 c 1
 422 585 525 568 525 409 c 0
 525 381 521 347 514 309 c 0
 471 87 341 42 260 42 c 1
 258 29 256 23 256 22 c 0
 256 20 255 18 250 -4 c 1
 171 -4 l 1
 175 12 177 19 177 21 c 0
 177 23 178 27 181 43 c 1
274 118 m 1
 334 118 406 150 438 313 c 0
 445 352 449 383 449 408 c 0
 449 495 407 509 350 511 c 1
 333 420 304 272 280 147 c 2
 274 118 l 1
195 120 m 1
 219 242 252 411 271 506 c 1
 216 502 147 500 107 297 c 0
 102 270 100 248 100 228 c 0
 100 126 162 120 195 120 c 1
EndSplineSet
EndChar
StartChar: afii10040
Encoding: 1062 1062 776
Width: 517
Flags: HW
HStem: 0 73<85 318> 623 10G<115 194 426 504>
VStem: 372 73<-130 -1>
LayerCount: 2
Fore
SplineSet
85 73 m 1
 318 73 l 1
 428 633 l 1
 504 633 l 1
 396 77 l 1
 469 77 l 1
 466 62 461 47 458 30 c 0
 450 -10 444 -54 444 -91 c 0
 444 -105 445 -118 447 -129 c 1
 376 -146 l 1
 373 -129 372 -112 372 -93 c 0
 372 -64 375 -33 381 0 c 1
 304 0 l 1
 -8 -0 l 1
 117 633 l 1
 194 633 l 1
 85 73 l 1
EndSplineSet
EndChar
StartChar: afii10041
Encoding: 1063 1063 777
Width: 517
Flags: HW
HStem: 0 10G<346 443> 219 75<193 389> 623 10G<116 194 467 546>
VStem: 82 80<325 563>
LayerCount: 2
Fore
SplineSet
546 633 m 1
 505 422 463 211 422 0 c 1
 346 0 l 1
 391 238 l 1
 338 222 277 219 241 219 c 0
 117 219 82 290 82 389 c 0
 82 446 93 512 106 580 c 0
 109 594 112 608 115 622 c 0
 115 625 117 630 117 633 c 1
 194 633 l 1
 177 542 161 464 161 406 c 0
 161 335 186 294 265 294 c 0
 295 294 358 300 406 313 c 1
 469 633 l 1
 546 633 l 1
EndSplineSet
EndChar
StartChar: afii10042
Encoding: 1064 1064 778
Width: 517
Flags: HW
HStem: 0 73<70 187 263 379> 623 10G<103 179 294 372 487 565>
LayerCount: 2
Fore
SplineSet
70 73 m 1
 187 73 l 1
 296 633 l 1
 372 633 l 1
 263 73 l 1
 379 73 l 1
 489 633 l 1
 565 633 l 1
 441 0 l 1
 365 0 l 1
 -20 -0 l 1
 104 633 l 1
 179 633 l 1
 70 73 l 1
EndSplineSet
EndChar
StartChar: afii10043
Encoding: 1065 1065 779
Width: 517
Flags: HW
HStem: 0 73<70 171 247 349> 623 10G<102 179 278 356 457 535>
VStem: 382 72<-129 -2>
LayerCount: 2
Fore
SplineSet
70 73 m 1
 171 73 l 1
 280 633 l 1
 356 633 l 1
 247 73 l 1
 349 73 l 1
 459 633 l 1
 535 633 l 1
 426 77 l 1
 478 77 l 1
 478 77 469 39 465 18 c 0
 457 -24 455 -62 455 -95 c 0
 455 -107 456 -118 456 -129 c 1
 384 -143 l 1
 383 -129 382 -115 382 -98 c 0
 382 -72 385 -41 393 0 c 1
 336 0 l 1
 -21 -0 l 1
 104 633 l 1
 179 633 l 1
 70 73 l 1
EndSplineSet
EndChar
StartChar: afii10044
Encoding: 1066 1066 780
Width: 517
VWidth: 0
Flags: HW
HStem: -2 74<157 344> 317 73<221 378> 556 77<97 174>
VStem: 411 80<143 285>
LayerCount: 2
Fore
SplineSet
296 317 m 0
 269 317 204 307 204 307 c 1
 181 191 165 110 157 73 c 1
 210 73 212 71 249 71 c 0
 337 71 390 104 409 200 c 0
 411 210 411 219 411 228 c 0
 411 290 362 317 296 317 c 0
268 633 m 1
 261 594 254 555 246 516 c 0
 238 472 229 427 220 381 c 1
 260 388 287 390 318 390 c 0
 421 390 491 351 491 249 c 0
 491 232 488 213 484 192 c 0
 458 56 372 -2 251 -2 c 0
 205 -2 120 0 63 0 c 1
 82 95 105 197 145 400 c 0
 155 453 165 511 174 556 c 1
 82 556 l 1
 97 633 l 1
 235 633 l 2
 242 633 253 633 268 633 c 1
EndSplineSet
EndChar
StartChar: afii10045
Encoding: 1067 1067 781
Width: 517
Flags: HW
HStem: -2 76<78 220> 317 73<134 254> 623 10G<106 189 482 561>
VStem: 270 79<139 300>
LayerCount: 2
Fore
SplineSet
359 0 m 1
 484 633 l 1
 561 633 l 1
 437 0 l 1
 359 0 l 1
186 317 m 0
 159 317 126 312 126 312 c 1
 103 196 86 110 78 73 c 1
 131 73 99 71 136 71 c 0
 224 71 245 104 264 200 c 0
 267 218 270 233 270 247 c 0
 270 296 245 317 186 317 c 0
110 633 m 1
 112 633 121 633 131 633 c 0
 151 633 179 633 189 633 c 1
 182 594 175 555 167 516 c 0
 159 472 150 427 141 381 c 1
 181 388 177 390 208 390 c 0
 304 390 349 357 349 270 c 0
 349 248 346 222 340 192 c 0
 314 56 259 -2 138 -2 c 0
 92 -2 41 0 -16 0 c 1
 3 95 26 197 66 400 c 0
 76 453 101 588 110 633 c 1
EndSplineSet
EndChar
StartChar: afii10046
Encoding: 1068 1068 782
Width: 517
Flags: HW
HStem: -2 74<120 311> 317 73<185 356> 625 10G<149 232>
VStem: 395 80<149 280>
LayerCount: 2
Fore
SplineSet
255 317 m 0
 228 317 168 308 168 308 c 1
 145 192 128 110 120 73 c 1
 173 73 168 71 205 71 c 0
 293 71 374 104 393 200 c 0
 395 209 395 217 395 225 c 0
 395 289 338 317 255 317 c 0
153 635 m 1
 155 635 164 635 174 635 c 0
 194 635 222 635 232 635 c 1
 225 596 217 557 209 517 c 0
 200 472 192 427 183 381 c 1
 223 388 247 390 278 390 c 0
 411 390 475 352 475 253 c 0
 475 234 472 215 468 192 c 0
 442 56 328 -2 207 -2 c 0
 161 -2 83 0 26 0 c 1
 45 95 68 197 108 400 c 0
 118 453 144 590 153 635 c 1
EndSplineSet
EndChar
StartChar: afii10047
Encoding: 1069 1069 783
Width: 517
Flags: HW
HStem: -6 75<93 266> 284 74<158 383> 503 10G<113 143> 573 75<183 355>
VStem: 420 81<351 494>
LayerCount: 2
Fore
SplineSet
42 141 m 1
 60 109 98 68 187 68 c 0
 291 68 371 168 404 276 c 1
 375 284 298 284 144 284 c 1
 158 358 l 1
 320 358 402 356 419 351 c 1
 420 362 420 373 420 384 c 0
 420 478 383 573 287 573 c 0
 193 573 161 540 125 503 c 1
 70 548 l 1
 111 592 180 647 306 647 c 0
 369 647 501 612 501 418 c 0
 501 386 498 351 490 310 c 0
 456 137 327 -6 172 -6 c 0
 67 -6 10 35 -20 84 c 1
 42 141 l 1
EndSplineSet
EndChar
StartChar: afii10048
Encoding: 1070 1070 784
Width: 517
Flags: HW
HStem: -6 75<273 347> 292 74<135 191> 573 75<367 443> 623 10G<108 187>
VStem: 180 75<83 290> 458 82<317 561>
LayerCount: 2
Fore
SplineSet
308 68 m 0xec
 365 68 417 195 440 316 c 0
 449 365 458 421 458 469 c 0
 458 528 446 573 412 573 c 0
 409 573 l 0
 343 569 301 469 271 313 c 0
 261 259 255 213 255 176 c 0
 255 106 273 68 308 68 c 0xec
428 647 m 0
 512 647 540 589 540 499 c 0
 540 446 531 381 517 311 c 1
 483 138 429 -6 283 -6 c 0
 215 -6 180 42 180 158 c 0
 180 196 184 240 191 292 c 1
 120 292 l 1
 104 209 79 83 63 0 c 1
 -15 0 l 1
 110 633 l 1
 187 633 l 1xdc
 135 366 l 1
 204 366 l 1
 239 511 284 647 428 647 c 0
EndSplineSet
EndChar
StartChar: afii10049
Encoding: 1071 1071 785
Width: 517
Flags: HW
HStem: -11 65<1 28> 0 10G<337 416> 280 66<265 393> 562 75<272 446>
VStem: 146 77<375 514>
LayerCount: 2
Fore
SplineSet
217 307 m 1xb8
 176 332 146 374 146 431 c 0
 146 560 227 636 365 636 c 0
 450 636 535 625 535 625 c 1
 415 0 l 1
 337 0 l 1x78
 395 292 l 1
 365 286 337 280 301 280 c 1
 214 233 181 192 152 124 c 0
 113 32 53 0 2 -11 c 1
 -14 55 l 1
 19 63 60 93 82 145 c 0
 117 226 167 283 217 307 c 1xb8
223 438 m 0
 223 399 247 347 304 347 c 0
 344 347 370 352 409 364 c 1
 447 560 l 1
 427 561 388 562 354 562 c 0
 278 562 223 525 223 438 c 0
EndSplineSet
EndChar
StartChar: afii10066
Encoding: 1073 1073 787
Width: 517
Flags: HW
HStem: 0 76<156 290> 398 83<247 366> 579 71<272 460> 689 10G<475 501>
VStem: 46 77<112 267> 383 77<198 381>
LayerCount: 2
Fore
SplineSet
156 387 m 1
 204 447 261 481 320 481 c 0
 382 481 429 450 450 386 c 0
 456 366 459 343 459 319 c 0
 459 297 457 273 453 251 c 0
 424 101 357 0 200 0 c 2
 199 0 l 2
 197 0 l 0
 131 0 46 29 46 188 c 0
 46 224 48 266 60 315 c 0
 119 551 206 649 345 649 c 0
 437 649 456 663 494 699 c 1
 539 639 l 1
 502 606 456 581 338 579 c 0
 249 577 188 481 156 387 c 1
374 245 m 0
 374 248 375 251 375 254 c 0
 379 279 383 301 383 320 c 0
 383 370 362 398 300 398 c 0
 267 398 169 340 124 227 c 1
 124 220 123 213 123 206 c 0
 123 123 150 76 214 76 c 0
 315 77 358 161 374 245 c 0
EndSplineSet
Substitution2: "'locl' Macedonian/Serbian italic forms" afii10066.serbian
EndChar
StartChar: afii10067
Encoding: 1074 1074 788
Width: 517
Flags: HW
HStem: -5 79<163 340> 224 72<170 327> 428 76<250 370>
VStem: 68 79<89 222> 369 78<103 194> 376 79<338 420>
LayerCount: 2
Fore
SplineSet
95 311 m 0xf8
 118 425 202 504 322 504 c 3
 394 504 455 462 455 396 c 0xf4
 455 389 453 381 452 373 c 0
 436 293 394 283 366 269 c 1
 392 261 447 232 447 161 c 0
 447 152 446 143 444 132 c 0
 419 0 286 -5 229 -5 c 3
 116 -5 68 48 68 141 c 0
 68 162 70 185 75 210 c 0
 80 239 87 273 95 311 c 0xf8
375 375 m 0
 376 379 376 383 376 386 c 0
 376 415 350 428 316 428 c 3
 261 428 186 377 170 296 c 1
 181 296 193 296 205 296 c 0
 279 296 362 311 375 375 c 0
241 225 m 0
 217 225 213 224 177 224 c 2
 155 224 l 1
 150 196 147 172 147 152 c 0
 147 94 171 74 215 74 c 3
 218 74 222 74 225 74 c 0
 296 74 355 76 368 141 c 0
 369 145 369 148 369 152 c 0xf8
 369 198 311 225 241 225 c 0
EndSplineSet
EndChar
StartChar: afii10068
Encoding: 1075 1075 789
Width: 517
Flags: HW
HStem: -8 75<167 344> 428 75<208 369>
VStem: 67 75<91 176> 377 75<348 416>
LayerCount: 2
Fore
SplineSet
377 113 m 1
 429 59 l 1
 388 24 345 -8 264 -8 c 0
 151 -8 67 27 67 134 c 0
 67 242 182 277 277 310 c 0
 344 333 377 356 377 384 c 0
 377 409 349 428 302 428 c 0
 243 428 217 417 188 391 c 1
 144 457 l 1
 187 483 229 503 295 503 c 0
 401 503 453 467 453 382 c 0
 453 325 399 277 335 254 c 0
 246 222 143 201 143 128 c 0
 143 84 202 67 257 67 c 0
 323 67 357 93 377 113 c 1
EndSplineSet
Substitution2: "'locl' Macedonian/Serbian italic forms" afii10068.serbian
EndChar
StartChar: afii10069
Encoding: 1076 1076 790
Width: 517
VWidth: 2
Flags: HW
HStem: 0 76<159 285> 423 75<222 379> 612 80<216 326>
VStem: 48 76<110 305> 407 80<234 396>
LayerCount: 2
Fore
SplineSet
407 375 m 1
 370 417 341 423 288 423 c 0
 199 423 124 318 124 195 c 0
 124 155 133 76 216 76 c 0
 307 76 407 183 407 375 c 1
218 691 m 1
 333 679 487 672 487 413 c 0
 487 184 398 0 200 0 c 2
 199 0 l 1
 198 0 l 2
 98 0 48 85 48 176 c 0
 48 323 122 499 297 499 c 0
 343 499 376 489 411 469 c 1
 384 589 320 608 199 612 c 1
 218 691 l 1
EndSplineSet
Substitution2: "'locl' Macedonian/Serbian italic forms" afii10069.serbian
EndChar
StartChar: afii10072
Encoding: 1078 1078 792
Width: 517
Flags: HW
HStem: -4 4G<177 244 411 436> 495 20G<105 144 269 342 456 507>
VStem: 118 72<289 390> 332 73<117 262>
LayerCount: 2
Back
SplineSet
375.377929688 245.60546875 m 5
 395.471679688 145.5078125 445.756835938 60.05859375 469.630859375 17.08984375 c 5
 396.580078125 -17.08984375 l 5
 366.439453125 28.80859375 331.209960938 111.328125 315.592773438 196.77734375 c 5
 315.592773438 196.77734375 314.53515625 193.84765625 287.720703125 186.5234375 c 5
 250.990234375 -2.44140625 l 5
 185.072265625 -2.44140625 l 5
 221.802734375 186.5234375 l 5
 197.8359375 193.84765625 190.592773438 196.77734375 190.592773438 196.77734375 c 5
 134.405273438 116.2109375 60.87109375 29.296875 25.9609375 -14.6484375 c 5
 -42.724609375 8.7890625 l 5
 6.77734375 62.5 82.8076171875 157.2265625 149.791992188 245.60546875 c 5
 133.83984375 269.04296875 118.002929688 393.5546875 53.341796875 465.33203125 c 5
 126.295898438 516.6015625 l 5
 176.1328125 441.40625 189.482421875 394.53125 204.474609375 315.91796875 c 5
 211.447265625 291.50390625 213.036132812 269.53125 236.325195312 261.23046875 c 5
 282.357421875 498.046875 l 5
 348.275390625 498.046875 l 5
 302.243164062 261.23046875 l 5
 316.375976562 266.11328125 336.732421875 292.96875 353.197265625 317.3828125 c 4
 415.758789062 410.64453125 461.301757812 456.54296875 511.306640625 507.8125 c 5
 563.975585938 467.28515625 l 5
 482.422851562 399.4140625 408.659179688 283.69140625 375.377929688 245.60546875 c 5
EndSplineSet
Fore
SplineSet
500 504 m 1
 543 446 l 1
 543 446 404 379 404 197 c 0
 404 112 484 36 484 36 c 1
 425 -14 l 1
 398 15 332 91 332 194 c 0
 332 200 332 205 332 211 c 1
 317 209 300 204 284 198 c 1
 280 182 l 1
 242 0 l 1
 177 0 l 1
 221 221 l 1
 200 216 177 213 177 213 c 1
 163 152 113 66 9 -23 c 1
 -43 27 l 1
 -43 27 118 144 118 296 c 0
 118 377 53 472 53 472 c 1
 121 515 l 1
 166 438 190 355 190 287 c 1
 190 287 217 290 236 295 c 1
 236 299 l 1
 236 299 263 438 275 502 c 1
 342 498 l 1
 298 272 l 1
 310 277 329 284 342 286 c 1
 363 369 413 440 500 504 c 1
EndSplineSet
EndChar
StartChar: afii10073
Encoding: 1079 1079 793
Width: 517
Flags: HW
HStem: -2 75<88 318> 230 74<180 309> 425 75<142 382>
VStem: 362 78<109 190> 396 79<338 409>
LayerCount: 2
Fore
SplineSet
-10 64 m 1xf0
 44 123 l 1
 65 101 123 73 205 73 c 0
 293 73 352 100 361 145 c 0
 361 147 362 150 362 152 c 0xf0
 362 173 343 196 298 214 c 0
 264 228 235 230 204 230 c 0
 191 230 179 229 166 229 c 1
 180 304 l 1
 189 304 l 1
 191 304 l 2
 245 304 384 306 396 368 c 0
 396 371 396 374 396 377 c 0
 396 411 355 425 263 425 c 0
 192 425 136 403 123 396 c 1
 102 459 l 1
 112 465 166 500 279 500 c 0
 415 500 475 460 475 395 c 0xe8
 475 388 474 379 473 371 c 0
 465 331 426 271 346 266 c 1
 409 250 439 204 439 162 c 0
 439 157 439 151 438 146 c 0
 432 114 417 73 374 43 c 0
 332 14 280 -2 191 -2 c 0
 82 -2 20 38 -10 64 c 1xf0
EndSplineSet
EndChar
StartChar: afii10076
Encoding: 1082 1082 796
Width: 517
VWidth: 0
Flags: HW
HStem: 0 10G<40 118 404 430> 433 76<457 527> 488 10G<135 213>
LayerCount: 2
Fore
SplineSet
209 208 m 1xc0
 182 203 156 202 156 202 c 1
 116 0 l 1
 40 0 l 1
 137 498 l 1
 213 498 l 1xa0
 169 278 l 1
 254 288 291 328 347 401 c 0
 390 458 433 507 530 509 c 1
 527 433 l 1
 471 426 436 409 396 351 c 0
 366 307 328 272 290 246 c 1
 349 221 379 169 403 115 c 0
 414 90 433 62 466 44 c 1
 423 -15 l 1
 384 8 363 25 339 83 c 0
 306 163 277 188 209 208 c 1xc0
EndSplineSet
EndChar
StartChar: afii10077
Encoding: 1083 1083 797
Width: 517
Flags: HW
HStem: -3 77<-2 51> 429 80<280 407>
LayerCount: 2
Fore
SplineSet
-24 1 m 1
 -0 77 l 1
 6 76 13 74 20 74 c 0
 66 74 94 188 129 298 c 0
 178 454 242 509 340 509 c 0
 414 509 469 501 500 493 c 1
 459 282 445 210 404 -1 c 0
 403 -1 l 0
 386 -1 404 0 325 0 c 1
 342 84 395 346 395 346 c 2
 409 423 l 1
 396 426 368 429 340 429 c 0
 288 429 247 400 205 272 c 0
 164 147 145 -3 8 -3 c 0
 -2 -3 -13 -1 -24 1 c 1
EndSplineSet
EndChar
StartChar: afii10078
Encoding: 1084 1084 798
Width: 517
Flags: HW
HStem: 0 10G<373 446> 490 10G<249 268 406 455>
LayerCount: 2
Fore
SplineSet
173 497 m 1
 178 497 184 497 189 497 c 0
 213 497 237 499 260 500 c 1
 275 372 292 266 292 266 c 1
 327 326 371 397 440 502 c 1
 468 498 503 496 528 496 c 1
 445 0 l 1
 373 0 l 1
 441 381 l 1
 396 314 342 225 307 166 c 1
 243 166 l 1
 231 240 220 308 212 393 c 1
 150 74 81 9 -27 -17 c 1
 -44 63 l 1
 39 77 78 105 173 497 c 1
EndSplineSet
EndChar
StartChar: afii10079
Encoding: 1085 1085 799
Width: 517
Flags: HW
HStem: 0 10G<20 107 322 401> 219 74<154 364> 491 7G<117 193 410 496>
LayerCount: 2
Fore
SplineSet
195 500 m 1
 151 279 l 1
 198 289 245 293 304 293 c 2
 379 293 l 1
 405 427 403 419 418 498 c 1
 496 498 l 1
 399 0 l 1
 322 0 l 1
 364 219 l 1
 337 219 l 0
 263 219 197 217 137 205 c 1
 104 38 115 88 98 0 c 1
 20 0 l 1
 117 500 l 1
 195 500 l 1
EndSplineSet
EndChar
StartChar: afii10086
Encoding: 1092 1092 806
Width: 517
Flags: HW
HStem: -3 76<72 150 268 349> 423 75<164 246 359 421> 640 10G<314 341>
VStem: 21 74<72 303> 425 79<211 423>
LayerCount: 2
Fore
SplineSet
425 363 m 0
 425 390 421 424 401 424 c 0
 372 424 357 402 317 343 c 1
 268 89 l 1
 268 89 285 72 313 72 c 0
 363 72 425 213 425 363 c 0
95 140 m 0
 95 90 101 72 110 72 c 0
 131 72 165 102 203 155 c 1
 217 226 237 325 251 396 c 1
 251 396 229 423 200 423 c 0
 140 423 95 269 95 140 c 0
385 610 m 1
 373 595 362 567 357 548 c 2
 332 448 l 2
 334 450 367 499 417 499 c 0
 419 499 l 0
 480 499 504 448 504 372 c 0
 504 168 418 -3 309 -3 c 0
 272 -3 251 4 251 4 c 1
 237 -60 l 2
 217 -152 167 -191 105 -218 c 1
 69 -155 l 1
 127 -128 154 -100 168 -48 c 2
 190 38 l 1
 190 38 145 -3 98 -3 c 0
 47 -3 21 41 21 132 c 0
 21 326 85 498 208 498 c 0
 240 498 267 478 267 478 c 1
 282 548 l 2
 288 577 301 618 326 650 c 1
 385 610 l 1
EndSplineSet
EndChar
StartChar: afii10088
Encoding: 1094 1094 808
Width: 517
VWidth: 2
Flags: HW
HStem: 0 76<126 220> 489 10G<132 191 408 480>
VStem: 39 82<80 226> 111 80<372 486> 370 73<-131 2>
LayerCount: 2
Fore
SplineSet
467 77 m 1xe8
 464 62 460 46 457 29 c 0
 449 -11 443 -54 443 -91 c 0
 443 -105 443 -118 445 -129 c 1
 375 -146 l 1
 372 -129 370 -113 370 -94 c 0
 370 -65 375 -30 381 3 c 1
 361 3 326 0 326 0 c 1
 326 14 332 52 349 146 c 1
 302 60 233 0 159 0 c 0
 96 0 39 43 39 110 c 0xe8
 39 118 40 126 41 134 c 0
 63 257 111 424 111 477 c 0
 111 480 111 483 111 485 c 1
 191 499 l 2
 191 498 191 495 191 494 c 0xd8
 191 446 156 325 123 149 c 0
 122 140 120 132 120 124 c 0
 120 97 130 76 163 76 c 0
 244 76 330 223 376 337 c 1
 410 502 l 1
 487 491 l 1
 406 76 l 1
 406 76 433 77 467 77 c 1xe8
EndSplineSet
EndChar
StartChar: afii10089
Encoding: 1095 1095 809
Width: 517
Flags: HW
HStem: 0 10G<310 407> 159 75<159 264> 488 10G<96 186 405 483>
VStem: 69 79<244 416>
LayerCount: 2
Fore
SplineSet
107 498 m 1
 186 498 l 1
 180 468 148 312 148 292 c 0
 148 260 164 234 206 234 c 0
 244 234 325 275 392 423 c 1
 407 498 l 1
 483 498 l 1
 442 287 427 211 386 0 c 1
 310 0 l 1
 356 246 l 1
 320 199 255 159 205 159 c 0
 116 159 69 191 69 279 c 0
 69 330 84 377 107 498 c 1
EndSplineSet
EndChar
StartChar: afii10090
Encoding: 1096 1096 810
Width: 517
Flags: HW
HStem: -10 10G<419 439> -3 75<49 135 224 300> 498 1G<87 149 265 335 444 515>
VStem: 12 68<73 218> 75 76<401 497>
LayerCount: 2
Back
SplineSet
82.5966796875 73.2421875 m 5
 182.694335938 73.2421875 l 5
 265.755859375 498.046875 l 5
 341.439453125 498.046875 l 5
 258.377929688 73.2421875 l 5
 358.475585938 73.2421875 l 5
 442.025390625 498.046875 l 5
 517.708984375 498.046875 l 5
 420.41015625 0 l 5
 343.26171875 0 l 5
 -7.9072265625 -0.48828125 l 5
 90.462890625 498.046875 l 5
 165.169921875 498.046875 l 5
 82.5966796875 73.2421875 l 5
EndSplineSet
Fore
SplineSet
367 69 m 0xb0
 366 79 l 1
 336 40 281 -3 245 -3 c 1
 203 -3 183 27 183 57 c 0
 183 61 183 66 184 70 c 1
 156 31 119 -3 74 -3 c 0
 25 -3 12 42 12 85 c 0x70
 12 104 15 123 18 137 c 0
 35 224 51 311 68 398 c 0
 72 422 75 446 75 462 c 0
 75 475 73 486 72 497 c 1
 148 509 l 1
 149 503 150 492 150 480 c 0x68
 150 470 148 446 146 433 c 1
 84 127 l 2
 84 125 83 123 83 121 c 0
 82 115 81 107 81 100 c 0
 81 86 85 72 104 72 c 0
 127 72 158 94 201 160 c 1
 267 498 l 1
 335 498 l 1
 259 104 l 1
 258 100 257 95 257 90 c 0
 257 80 261 72 276 72 c 0x70
 299 72 338 95 381 161 c 1
 446 498 l 1
 515 498 l 1
 447 139 l 1
 440 105 l 2
 440 103 440 100 440 98 c 0
 440 77 459 62 476 55 c 1
 433 -10 l 1
 404 -4 374 22 367 69 c 0xb0
EndSplineSet
EndChar
StartChar: afii10091
Encoding: 1097 1097 811
Width: 517
Flags: HW
HStem: -3 75<53 135 230 303> 498 1G<87 149 265 335 444 515>
VStem: 12 68<73 218> 75 76<401 497> 386 71<-130 -3>
LayerCount: 2
Fore
SplineSet
368 77 m 1xe8
 338 38 281 -3 245 -3 c 0
 203 -3 183 27 183 57 c 0
 183 61 183 66 184 70 c 1
 156 31 119 -3 74 -3 c 0
 25 -3 12 42 12 85 c 0xe8
 12 104 15 123 18 137 c 0
 35 224 51 311 68 398 c 0
 72 422 75 446 75 462 c 0
 75 475 73 486 72 497 c 1
 148 509 l 1
 149 503 150 492 150 480 c 0xd8
 150 470 148 446 146 433 c 2
 84 127 l 2
 84 125 83 123 83 121 c 0
 82 115 81 107 81 100 c 0
 81 86 85 72 104 72 c 0
 127 72 158 94 201 160 c 1
 267 498 l 1
 335 498 l 1
 259 104 l 2
 258 100 257 95 257 90 c 0
 257 80 261 72 276 72 c 0
 299 72 338 95 381 161 c 1
 446 498 l 1
 515 498 l 1
 447 139 l 1
 440 105 l 2
 440 103 440 100 440 98 c 0
 441 80 463 77 487 75 c 1
 484 62 481 49 478 34 c 0
 467 -23 458 -89 458 -130 c 1
 386 -140 l 1
 387 -106 393 -61 404 0 c 1
 381 0 367 29 367 61 c 0
 367 66 367 72 368 77 c 1xe8
EndSplineSet
EndChar
StartChar: afii10092
Encoding: 1098 1098 812
Width: 517
Flags: HW
HStem: -2 74<196 344> 241 73<208 365> 426 75<87 176>
VStem: 107 73<86 235> 384 79<108 220>
LayerCount: 2
Fore
SplineSet
81 494 m 1
 106 499 143 500 168 500 c 0
 201 500 235 498 269 498 c 1
 257 442 218 305 218 305 c 1
 258 312 257 313 288 313 c 0
 392 313 463 286 463 195 c 0
 463 51 375 -2 232 -2 c 0
 141 -2 107 44 107 140 c 0
 107 208 169 387 176 424 c 1
 165 424 155 426 143 426 c 0
 130 426 104 424 87 420 c 1
 81 494 l 1
266 241 m 0
 239 241 196 236 196 236 c 1
 189 210 181 178 181 157 c 0
 181 90 208 71 243 71 c 0
 334 71 384 96 384 178 c 0
 384 230 334 241 266 241 c 0
EndSplineSet
EndChar
StartChar: afii10093
Encoding: 1099 1099 813
Width: 517
Flags: HW
HStem: -5 74<101 220> 238 73<136 243> 488 10G<95 178 456 534>
VStem: 24 75<73 232> 261 78<109 221>
LayerCount: 2
Fore
SplineSet
359 0 m 1
 458 498 l 1
 534 498 l 1
 437 0 l 1
 359 0 l 1
100 498 m 1
 107 498 163 498 178 498 c 1
 157 419 134 305 134 305 c 1
 171 311 177 311 195 311 c 2
 200 311 l 2
 273 311 338 271 338 187 c 0
 338 64 245 -5 142 -5 c 0
 53 -5 24 28 24 98 c 0
 24 158 46 244 69 359 c 0
 80 412 91 453 100 498 c 1
180 238 m 0
 161 238 120 233 120 233 c 1
 108 173 99 134 99 109 c 0
 99 79 111 69 145 69 c 0
 202 69 261 98 261 175 c 0
 261 217 226 238 180 238 c 0
EndSplineSet
EndChar
StartChar: afii10094
Encoding: 1100 1100 814
Width: 517
Flags: HW
HStem: -2 74<158 330> 241 73<173 356> 488 10G<154 232>
VStem: 74 73<82 236> 376 79<113 220>
LayerCount: 2
Fore
SplineSet
154 498 m 1
 161 498 217 498 232 498 c 1
 206 406 182 305 182 305 c 1
 222 312 238 313 269 313 c 0
 375 313 455 286 455 191 c 0
 455 48 352 -2 213 -2 c 0
 112 -2 74 33 74 131 c 0
 74 169 86 228 102 292 c 0
 120 364 154 498 154 498 c 1
247 241 m 0
 220 241 162 236 162 236 c 1
 154 196 146 166 146 142 c 0
 146 90 166 71 211 71 c 0
 302 71 376 89 376 177 c 0
 376 233 316 241 247 241 c 0
EndSplineSet
EndChar
StartChar: afii10095
Encoding: 1101 1101 815
Width: 517
Flags: HW
HStem: -6 75<103 291> 218 74<175 372> 433 75<162 350>
VStem: 389 79<285 394>
LayerCount: 2
Fore
SplineSet
58 122 m 1
 92 94 125 68 198 68 c 0
 283 68 340 102 373 210 c 1
 344 218 315 218 161 218 c 1
 175 292 l 1
 337 292 370 289 387 284 c 1
 388 294 389 304 389 313 c 0
 389 396 349 433 270 433 c 0
 193 433 159 411 124 389 c 1
 96 453 l 1
 162 493 214 507 288 507 c 1
 340 507 467 494 467 327 c 0
 467 303 464 275 458 244 c 0
 424 71 310 -6 183 -6 c 0
 97 -6 58 21 5 60 c 1
 58 122 l 1
EndSplineSet
EndChar
